<svg width="7" height="13" viewBox="0 0 7 13" fill="none" xmlns="http://www.w3.org/2000/svg">
<path d="M1.88933 0.848403C2.01383 0.84798 2.13684 0.875456 2.24932 0.928813C2.3618 0.98217 2.4609 1.06005 2.53933 1.15674L6.56433 6.15674C6.6869 6.30585 6.75391 6.49288 6.75391 6.6859C6.75391 6.87892 6.6869 7.06596 6.56433 7.21507L2.39767 12.2151C2.25622 12.3853 2.05296 12.4923 1.8326 12.5126C1.61225 12.5329 1.39285 12.4649 1.22267 12.3234C1.05249 12.182 0.945466 11.9787 0.925149 11.7583C0.904833 11.538 0.972884 11.3186 1.11433 11.1484L4.83933 6.68174L1.23933 2.21507C1.13743 2.09275 1.0727 1.9438 1.0528 1.78584C1.0329 1.62788 1.05866 1.46753 1.12704 1.32376C1.19542 1.17998 1.30356 1.05881 1.43865 0.974566C1.57374 0.890324 1.73014 0.846543 1.88933 0.848403Z" fill="#1E1E1E"/>
</svg>
