<svg width="16" height="16" viewBox="0 0 16 16" fill="none" xmlns="http://www.w3.org/2000/svg">
<path d="M3.33333 11.8889C3.33333 12.6122 3.33333 12.9739 3.41284 13.2706C3.6286 14.0758 4.25754 14.7047 5.06276 14.9205C5.35948 15 5.72113 15 6.44444 15H11.2667C12.5735 15 13.2269 15 13.726 14.7457C14.165 14.522 14.522 14.165 14.7457 13.726C15 13.2269 15 12.5735 15 11.2667V4.73333C15 3.42654 15 2.77315 14.7457 2.27402C14.522 1.83498 14.165 1.47802 13.726 1.25432C13.2268 1 12.5735 1 11.2667 1H6.44444C5.72113 1 5.35948 1 5.06276 1.07951C4.25754 1.29526 3.6286 1.92421 3.41284 2.72942C3.33333 3.02614 3.33333 3.3878 3.33333 4.11111M8 4.88889L11.1111 8M11.1111 8L8 11.1111M11.1111 8H1" stroke="white" stroke-width="2" stroke-linecap="round" stroke-linejoin="round"/>
</svg>
