<svg width="10.33329" height="12.66699" viewBox="0 0 10.33329 12.66699" fill="none" version="1.1" id="svg13" xmlns="http://www.w3.org/2000/svg">
  <path d="m 7.5,1.66699 h 1.16669 c 0.3094,0 0.6061,0.12292 0.8249,0.34171 0.2188,0.21879 0.3417,0.51554 0.3417,0.82496 v 8.16663 c 0,0.3095 -0.1229,0.6062 -0.3417,0.825 -0.2188,0.2188 -0.5155,0.3417 -0.8249,0.3417 H 1.66666 c -0.30941,0 -0.60616,-0.1229 -0.82495,-0.3417 C 0.62291,11.60649 0.5,11.30979 0.5,11.00029 V 2.83366 C 0.5,2.52424 0.62291,2.22749 0.84171,2.0087 1.0605,1.78991 1.35725,1.66699 1.66666,1.66699 h 1.16667" stroke="#000000" stroke-opacity="1.0" stroke-linecap="round" stroke-linejoin="round" id="path2" />
  <path d="m 6.91732,0.5 h -3.5 C 3.09515,0.5 2.83398,0.76117 2.83398,1.08333 V 2.25 c 0,0.32216 0.26117,0.58333 0.58334,0.58333 h 3.5 c 0.32216,0 0.58333,-0.26117 0.58333,-0.58333 V 1.08333 C 7.50065,0.76117 7.23948,0.5 6.91732,0.5 Z" stroke="#000000" stroke-opacity="1.0" stroke-linecap="round" stroke-linejoin="round" id="path4" />
</svg>
