<svg width="11.5" height="12.66668" viewBox="0 0 11.5 12.66668" fill="none" version="1.1" id="svg6" xmlns="http://www.w3.org/2000/svg">
    <path d="M 0.5,2.83398 H 1.66667 11" stroke="#000000" stroke-opacity="0.6" stroke-linecap="round" stroke-linejoin="round" id="path2"/>
    <path d="m 9.8337,2.83333 v 8.16665 c 0,0.3094 -0.123,0.6062 -0.3418,0.825 -0.2187,0.2188 -0.5155,0.3417 -0.8249,0.3417 H 2.83366 c -0.30942,0 -0.60617,-0.1229 -0.82496,-0.3417 -0.21879,-0.2188 -0.34171,-0.5156 -0.34171,-0.825 V 2.83333 m 1.75,0 V 1.66666 C 3.41699,1.35724 3.53991,1.0605 3.7587,0.8417 3.97749,0.62291 4.27424,0.5 4.58366,0.5 h 2.33333 c 0.30942,0 0.60617,0.12291 0.82496,0.3417 0.21879,0.2188 0.34171,0.51554 0.34171,0.82496 v 1.16667" stroke="#404038" stroke-linecap="round" stroke-linejoin="round" id="path4"/>
</svg>
