<svg width="14.5" height="16" viewBox="0 0 14.5 16" fill="none" version="1.1" id="svg6" xmlns="http://www.w3.org/2000/svg">
  <path d="M 0.5,3.5 H 2 14" stroke="#ffffff" stroke-linecap="round" stroke-linejoin="round" id="path2" />
  <path d="M 12.5,3.5 V 14 c 0,0.3978 -0.158,0.7794 -0.4393,1.0607 C 11.7794,15.342 11.3978,15.5 11,15.5 H 3.5 C 3.10218,15.5 2.72064,15.342 2.43934,15.0607 2.15804,14.7794 2,14.3978 2,14 V 3.5 m 2.25,0 V 2 C 4.25,1.60218 4.40804,1.22064 4.68934,0.93934 4.97064,0.65804 5.35218,0.5 5.75,0.5 h 3 C 9.1478,0.5 9.5294,0.65804 9.8107,0.93934 10.092,1.22064 10.25,1.60218 10.25,2 v 1.5" stroke="#ffffff" stroke-linecap="round" stroke-linejoin="round" id="path4" />
</svg>
