<?xml version="1.0" encoding="UTF-8" standalone="no"?>
<svg
   viewBox="0 0 42.626057 37.879501"
   width="42.626057"
   height="37.879501"
   version="1.1"
   id="svg432"
   xmlns="http://www.w3.org/2000/svg"
   xmlns:svg="http://www.w3.org/2000/svg">
  <defs
     id="defs436" />
  <path
     d="m 42.625514,19.223252 c -0.06641,-1.839844 -1.207031,-3.46875 -2.914062,-4.160156 -1.707032,-0.691406 -3.660157,-0.316406 -4.988282,0.960937 -3.640625,-2.476562 -7.921875,-3.84375 -12.320312,-3.9375 l 2.078125,-9.9843753 6.847656,1.441406 c 0.167969,1.5625 1.449219,2.773438 3.019531,2.851563 1.570313,0.08203 2.964844,-0.988281 3.292969,-2.527344 0.328125,-1.539062 -0.511719,-3.08593702 -1.976563,-3.65234302 -1.46875,-0.566407 -3.128906,0.01562 -3.917968,1.37500002 L 23.906764,0.02403268 c -0.261719,-0.05859 -0.53125,-0.0078 -0.753906,0.136719 -0.222656,0.144531 -0.378906,0.371094 -0.429688,0.628906 L 20.352076,11.895127 c -4.453124,0.06641 -8.792968,1.433594 -12.4765624,3.9375 C 6.5239516,14.563096 4.5552016,14.211533 2.8520756,14.930283 1.1450446,15.65294 0.02785764,17.313096 5.1363932e-4,19.164658 -0.02682636,21.012314 1.0395756,22.707627 2.7231696,23.481064 c -0.03906,0.46875 -0.03906,0.9375 0,1.40625 0,7.167969 8.3515634,12.992188 18.6562504,12.992188 10.300782,0 18.65625,-5.824219 18.65625,-12.992188 0.03516,-0.46875 0.03516,-0.9375 0,-1.40625 1.609375,-0.804687 2.617188,-2.457031 2.589844,-4.257812 z m -32,3.199219 c 0,-1.765625 1.433594,-3.199219 3.199219,-3.199219 1.769531,0 3.199219,1.433594 3.199219,3.199219 0,1.769531 -1.429688,3.199219 -3.199219,3.199219 -1.765625,0 -3.199219,-1.429688 -3.199219,-3.199219 z m 18.59375,8.800781 c -2.273438,1.710938 -5.066406,2.582031 -7.90625,2.464844 -2.839844,0.117187 -5.632812,-0.753906 -7.902344,-2.464844 -0.28125,-0.34375 -0.257812,-0.84375 0.05469,-1.160156 0.316406,-0.3125 0.816406,-0.335938 1.160156,-0.05469 1.925781,1.410156 4.273438,2.121094 6.65625,2.015625 2.386719,0.128907 4.746094,-0.558593 6.6875,-1.953125 0.355469,-0.34375 0.917969,-0.335937 1.265625,0.01563 0.34375,0.355469 0.335937,0.921875 -0.01563,1.265625 z m -0.578125,-5.472656 c -1.765625,0 -3.199219,-1.433594 -3.199219,-3.199219 0,-1.765625 1.433594,-3.199219 3.199219,-3.199219 1.769531,0 3.199219,1.433594 3.199219,3.199219 0.03516,0.875 -0.289063,1.726563 -0.902344,2.359375 -0.609375,0.628906 -1.453125,0.976562 -2.328125,0.96875 z m 0,0"
     fill="#ffffff"
     id="path430" />
</svg>
