<svg width="66" height="66" viewBox="0 0 66 66" fill="none" xmlns="http://www.w3.org/2000/svg">
<path d="M62 33C62 36.8083 61.2499 40.5794 59.7925 44.0978C58.3351 47.6163 56.199 50.8132 53.5061 53.5061C50.8132 56.199 47.6163 58.3351 44.0978 59.7925C40.5794 61.2499 36.8083 62 33 62C29.1917 62 25.4206 61.2499 21.9022 59.7925C18.3837 58.3351 15.1868 56.199 12.4939 53.5061C9.801 50.8132 7.66488 47.6163 6.20749 44.0978C4.7501 40.5794 4 36.8083 4 33C4 29.1917 4.75011 25.4206 6.2075 21.9022C7.66489 18.3837 9.80101 15.1868 12.4939 12.4939C15.1868 9.801 18.3837 7.66487 21.9022 6.20749C25.4206 4.7501 29.1917 4 33 4C36.8083 4 40.5794 4.75011 44.0978 6.2075C47.6163 7.66489 50.8132 9.80101 53.5061 12.4939C56.199 15.1868 58.3351 18.3838 59.7925 21.9022C61.2499 25.4206 62 29.1917 62 33L62 33Z" stroke="white" stroke-width="8" stroke-linecap="round" stroke-linejoin="round"/>
<path d="M41.453 5.25928C47.2656 7.03046 52.375 10.5828 56.0598 15.4146C59.7445 20.2464 61.8184 26.1136 61.9886 32.1877C62.1588 38.2618 60.4167 44.2359 57.0084 49.2665C53.6 54.2971 48.6975 58.1299 42.9932 60.2238C37.2889 62.3177 31.0709 62.5669 25.2173 60.9362C19.3637 59.3054 14.1703 55.8772 10.3703 51.1355C6.57027 46.3938 4.35573 40.5782 4.03934 34.51C3.72295 28.4417 5.3207 22.4274 8.60699 17.3162" stroke="#026E78" stroke-width="8" stroke-linecap="round" stroke-linejoin="round"/>
</svg>
