<svg xmlns="http://www.w3.org/2000/svg" width="10.000022" height="9.5723867" viewBox="0 0 10.000022 9.5723867" fill="none" version="1.1" id="svg4">
    <path d="m 4.5145402,0.35289263 c 0.15263,-0.470524 0.81829,-0.470523 0.97092,0 l 0.83,2.55870997 c 0.06825,0.2104 0.26427,0.35289 0.48547,0.35289 h 2.68773 c 0.49419,0 0.6999398,0.63223 0.30031,0.92303 l -2.17588,1.58348 c -0.17858,0.12996 -0.2533,0.36005 -0.18515,0.57014 l 0.83077,2.56107 c 0.15257,0.47034 -0.38596,0.86114 -0.78578,0.57014 l -2.17262,-1.58113 c -0.17901,-0.13028 -0.42161,-0.13028 -0.60062,0 l -2.17262,1.58113 c -0.39982,0.291 -0.93835,-0.0998 -0.78578,-0.57014 l 0.83077,-2.56107 c 0.06815,-0.21009 -0.00657,-0.44018 -0.18515,-0.57014 l -2.17587603,-1.58348 c -0.399586,-0.2908 -0.1938883,-0.92303 0.30031,-0.92303 H 3.1990702 c 0.2212,0 0.41722,-0.14249 0.48547,-0.35289 z" fill="#d6de73" id="path2"/>
</svg>