<svg width="11" height="12" viewBox="0 0 11 12" fill="none" xmlns="http://www.w3.org/2000/svg">
<path d="M10 11C10 10.2247 10 9.83706 9.90314 9.52161C9.685 8.81139 9.12222 8.25556 8.40312 8.04011C8.08373 7.94444 7.69128 7.94444 6.90625 7.94444H4.09375C3.30875 7.94444 2.91624 7.94444 2.59686 8.04011C1.87775 8.25556 1.31502 8.81139 1.09689 9.52161C1 9.83706 1 10.2247 1 11M8.03125 3.5C8.03125 4.88071 6.89798 6 5.5 6C4.10203 6 2.96875 4.88071 2.96875 3.5C2.96875 2.11929 4.10203 1 5.5 1C6.89798 1 8.03125 2.11929 8.03125 3.5Z" fill="#6690FF"/>
<path d="M10 11C10 10.2247 10 9.83706 9.90314 9.52161C9.685 8.81139 9.12222 8.25556 8.40312 8.04011C8.08373 7.94444 7.69127 7.94444 6.90625 7.94444H4.09375C3.30875 7.94444 2.91624 7.94444 2.59686 8.04011C1.87775 8.25556 1.31502 8.81139 1.09689 9.52161C1 9.83706 1 10.2247 1 11H10ZM8.03125 3.5C8.03125 4.88071 6.89798 6 5.5 6C4.10203 6 2.96875 4.88071 2.96875 3.5C2.96875 2.11929 4.10203 1 5.5 1C6.89798 1 8.03125 2.11929 8.03125 3.5Z" stroke="#6690FF" stroke-linecap="round" stroke-linejoin="round"/>
</svg>
