<svg width="12" height="12" viewBox="0 0 12 12" fill="none" xmlns="http://www.w3.org/2000/svg">
<path d="M0.921867 4.97974C0.984829 5.05568 1.06215 5.11846 1.14941 5.16447C1.23668 5.21049 1.33216 5.23883 1.43039 5.24789C1.52862 5.25695 1.62768 5.24654 1.72188 5.21725C1.81608 5.18797 1.90358 5.14039 1.97937 5.07724L5.24937 2.35474V11.2497C5.24937 11.4487 5.32838 11.6394 5.46904 11.7801C5.60969 11.9207 5.80045 11.9997 5.99937 11.9997C6.19828 11.9997 6.38904 11.9207 6.5297 11.7801C6.67035 11.6394 6.74937 11.4487 6.74937 11.2497V2.35474L10.0194 5.07724C10.0952 5.14027 10.1827 5.18775 10.2769 5.21697C10.3711 5.24618 10.4701 5.25656 10.5683 5.2475C10.6665 5.23845 10.762 5.21014 10.8492 5.1642C10.9365 5.11826 11.0138 5.05558 11.0769 4.97974C11.1399 4.9039 11.1874 4.81639 11.2166 4.7222C11.2458 4.62801 11.2562 4.52899 11.2471 4.4308C11.2381 4.3326 11.2098 4.23714 11.1638 4.14989C11.1179 4.06263 11.0552 3.98527 10.9794 3.92224L6.47937 0.172239L6.36687 0.104739L6.26937 0.0522389C6.09561 -0.0148088 5.90312 -0.0148088 5.72937 0.0522389L5.63187 0.104739L5.51937 0.172239L1.01937 3.92224C0.943424 3.9852 0.880647 4.06253 0.834633 4.14979C0.788619 4.23705 0.760271 4.33253 0.751214 4.43076C0.742158 4.52899 0.752569 4.62805 0.781852 4.72225C0.811136 4.81645 0.858716 4.90395 0.921867 4.97974Z" fill="#3366FF"/>
</svg>
