<svg width="420" height="356" viewBox="0 0 420 356" fill="none" xmlns="http://www.w3.org/2000/svg">
<path d="M90.4871 356H157.062C166.304 356 173.789 348.515 173.789 339.273V145.347C173.789 136.106 166.304 128.62 157.062 128.62H90.4871C81.2452 128.62 73.7598 136.106 73.7598 145.347V339.273C73.7598 348.515 81.2452 356 90.4871 356Z" fill="url(#paint0_linear_1502_2143)"/>
<path d="M396.068 241.139C412.085 227.381 414.315 209.106 401.923 192.198C400.584 190.372 400.905 189.703 402.62 188.546C417.005 178.76 422.581 163.511 417.73 147.522C413.228 132.663 399.33 122.961 382.31 122.919C359.463 122.863 336.616 122.905 313.756 122.905C312.222 122.905 310.689 122.905 308.682 122.905C309.337 121.372 309.685 120.535 310.048 119.699C310.48 118.723 310.954 117.747 311.372 116.758C321.269 93.0746 323.987 68.2763 322.384 42.9205C321.701 32.2011 320.084 21.5374 314.536 11.961C310.41 4.8519 304.43 0.558553 296.122 0.251886C279.284 -0.34751 265.316 26.9598 264.55 48.0223C263.685 49.5696 182.976 141.166 182.864 144.455C182.279 145.18 182.293 342.103 182.976 343.301C182.976 349.644 190.294 355.972 199.857 355.972C222.439 355.972 337.773 355.931 372.859 355.931C401.658 355.931 408.098 307.7 395.12 299.796C391.607 297.664 391.036 295.489 394.688 292.952L394.925 292.715C407.289 286.721 407.735 254.535 394.632 243.607C394.047 242.185 395.301 241.794 396.068 241.139ZM195.075 128.578C195.075 128.662 195.075 128.746 195.061 128.829C195.061 128.746 195.075 128.662 195.075 128.578Z" fill="url(#paint1_linear_1502_2143)"/>
<path d="M47.1229 171.902C43.9726 169.965 39.8326 170.954 37.895 174.105L17.7246 212.299L23.1052 215.602L49.3114 181.116C51.2629 177.98 50.2732 173.84 47.1229 171.902Z" fill="#202020"/>
<path d="M20.6939 208.159C20.6939 208.159 13.975 209.525 12.7763 211.462C11.5775 213.414 16.3447 213.33 16.3447 213.33C16.3447 213.33 10.0441 222.53 12.9853 224.551C15.9266 226.573 22.2551 228.259 25.9769 210.64L20.6939 208.159Z" fill="#E99C75"/>
<path d="M1.76473 251.078C-0.883763 247.663 0.649576 242.045 5.19383 238.519L43.8339 180.977L72.6886 205.886L14.7981 250.855C10.2399 254.396 4.41322 254.493 1.76473 251.078Z" fill="#3FA853"/>
<path d="M1.50069 243.091C-0.450831 246.938 1.09645 251.65 4.94373 253.601L65.9148 284.449L70.3615 275.667L11.9971 239.648C8.1498 237.696 3.45221 239.243 1.50069 243.091Z" fill="#3FA853"/>
<path d="M63.209 283.167C63.209 283.167 69.1611 297.538 73.4684 298.11V276.085L69.7326 275.96L63.209 283.167Z" fill="black"/>
<path d="M53.8094 129.953L63.0059 131.119L64.6809 117.898L55.4845 116.733L53.8094 129.953Z" fill="#D68967"/>
<path d="M46.8594 286.568C42.5382 286.484 39.1091 282.93 39.1927 278.609L36.6836 192.588L73.2885 202.792L54.8327 278.901C54.7352 283.209 51.1806 286.652 46.8594 286.568Z" fill="#54DC6E"/>
<path d="M47.2346 275.556C42.9413 275.152 39.1219 278.302 38.7176 282.595L32.2637 350.62L42.0631 351.554L54.274 284.073C54.6922 279.766 51.528 275.96 47.2346 275.556Z" fill="#54DC6E"/>
<path d="M32.2632 350.62C32.2632 350.62 20.5262 349.7 19.1602 353.84L41.6445 355.973L42.0626 351.554L32.2632 350.62Z" fill="black"/>
<path d="M31.4414 197.509C31.4414 197.509 43.0111 201.941 52.4063 203.126C64.8124 204.702 73.1761 202.792 73.1761 202.792L79.7694 145.361C80.7034 137.207 75.9361 129.805 68.813 128.397C66.4433 127.923 63.9621 127.477 61.5645 127.129C58.233 126.641 53.1312 126.446 49.493 126.334C44.5584 126.195 40.2093 130.293 39.4008 135.827L31.4414 197.509Z" fill="#313131"/>
<path d="M49.257 106.122C48.9643 107.823 48.8249 109.468 48.8388 110.945C48.8528 113.12 48.8667 115.322 49.4104 117.427C49.8146 118.96 50.5116 120.424 51.4316 121.72C51.7104 122.111 52.0449 122.515 52.491 122.696C52.8534 122.849 53.2576 122.835 53.6479 122.821C58.1643 122.71 62.2904 123.644 66.0959 120.605C69.5947 117.817 71.5462 113.371 72.1038 109.008C73.1771 100.518 68.9116 92.9911 62.5552 92.1826C54.4983 91.165 50.4837 99.0269 49.257 106.122Z" fill="#E99C75"/>
<path d="M5.54227 116.911L15.1605 120.117C15.5229 120.243 15.7738 120.577 15.7738 120.967V148.331C15.7738 148.944 15.1744 149.376 14.589 149.181L4.97076 145.975C4.60833 145.849 4.35742 145.515 4.35742 145.124V117.775C4.35742 117.148 4.95682 116.716 5.54227 116.911Z" fill="#3366FF"/>
<path d="M5.54227 116.911L15.1605 120.117C15.5229 120.243 15.7738 120.577 15.7738 120.967V148.331C15.7738 148.944 15.1744 149.376 14.589 149.181L4.97076 145.975C4.60833 145.849 4.35742 145.515 4.35742 145.124V117.775C4.35742 117.148 4.95682 116.716 5.54227 116.911Z" fill="#244ABC"/>
<path d="M4.97076 145.989C4.60833 145.863 4.35742 145.529 4.35742 145.138V117.957L13.7387 121.079C14.1011 121.204 14.352 121.539 14.352 121.929V149.111L4.97076 145.989Z" fill="#3366FF"/>
<path d="M5.79297 122.584C5.79297 123.239 6.11358 123.769 6.50388 123.769C6.89418 123.769 7.21479 123.239 7.21479 122.584C7.21479 121.929 6.89418 121.399 6.50388 121.399C6.11358 121.399 5.79297 121.929 5.79297 122.584Z" fill="#121212"/>
<path d="M41.5068 167.888L48.9783 173.701C49.6753 174.244 50.6929 174.119 51.2365 173.422L76.2578 141.208C77.5681 139.521 77.2614 137.109 75.5748 135.799L71.6439 132.746C69.9572 131.436 67.5457 131.743 66.2353 133.429L41.2141 165.644C40.6704 166.34 40.7959 167.344 41.5068 167.888Z" fill="#202020"/>
<path d="M52.4057 172C54.4687 169.17 53.8554 165.211 51.0396 163.134L16.5814 141.208L13.0547 146.031L43.5402 173.366C46.3699 175.443 50.3287 174.829 52.4057 172Z" fill="#202020"/>
<path d="M16.9176 141.905C16.9176 141.905 17.5727 135.451 16.1509 133.82C14.7291 132.189 13.4606 136.51 13.4606 136.51C13.4606 136.51 6.92302 128.244 4.27452 130.321C1.62603 132.412 -1.67761 137.653 13.1958 145.961L16.9176 141.905Z" fill="#E99C75"/>
<path d="M65.5227 125.345L51.7227 126.153L54.9705 130.614L67.1815 128.384L65.5227 125.345Z" fill="#202020"/>
<path d="M64.1725 103.822C64.507 102.791 39.7088 98.3857 45.6888 88.0565C51.6688 77.7274 60.367 88.0565 60.367 88.0565C60.367 88.0565 64.1725 80.9892 70.1525 93.4929C70.1525 93.4929 87.0331 107.614 63.9076 123.937L64.7161 116.883C64.7161 116.869 60.367 115.782 64.1725 103.822Z" fill="#7D382E"/>
<path d="M62.6247 111.461C62.6247 111.461 66.3465 108.728 66.3465 111.447C66.3465 114.165 66.8901 116.883 62.541 117.97C62.541 117.956 62.7083 113.649 62.6247 111.461Z" fill="#E99C75"/>
<defs>
<linearGradient id="paint0_linear_1502_2143" x1="74.735" y1="172.697" x2="234.844" y2="208.599" gradientUnits="userSpaceOnUse">
<stop stop-color="#B2E4FD"/>
<stop offset="1" stop-color="#205BB5"/>
</linearGradient>
<linearGradient id="paint1_linear_1502_2143" x1="184.754" y1="69.1994" x2="541.978" y2="190.509" gradientUnits="userSpaceOnUse">
<stop stop-color="#B2E4FD"/>
<stop offset="1" stop-color="#205BB5"/>
</linearGradient>
</defs>
</svg>
