<svg width="171" height="199" viewBox="0 0 171 199" fill="none" xmlns="http://www.w3.org/2000/svg">
<path d="M124.621 4.45068C125.679 4.08492 126.796 3.89808 127.919 3.92669C130.664 3.99607 133.309 5.34834 135.101 7.41084C135.896 8.32676 136.243 9.87987 137.07 10.6607C138.147 11.6782 139.521 11.5437 140.356 13.0944C141.065 14.409 141.303 15.9383 142.025 17.245C143.278 19.512 145.748 20.7559 147.802 22.3303C151.891 25.4639 154.589 30.3539 155.061 35.4879C155.234 37.3612 155.057 39.4261 153.791 40.8161C152.715 41.9974 150.928 42.612 150.415 44.1268C150.216 44.7147 150.25 45.3525 150.188 45.9702C149.894 48.9048 147.396 51.2381 144.624 52.235C141.485 53.3639 138.437 52.9623 135.236 52.832C132.036 52.7024 128.914 53.7285 125.759 53.6737C122.713 53.6207 119.521 52.9714 116.48 52.6525C115.457 52.5454 114.253 52.4194 113.38 51.8218C112.433 51.1742 112.495 50.3551 111.911 49.5463C110.82 48.037 108.04 47.5903 108.324 45.1535C108.465 43.9436 109.513 43.0642 110.042 41.9669C111.479 38.9861 108.312 36.752 107.765 34.0115C107.05 30.4282 109.687 27.2306 109.83 23.6467C109.907 21.7071 109.765 19.7584 109.963 17.8274C110.166 15.8379 110.777 13.7 112.26 12.2753C113.669 10.9224 115.248 10.9686 116.965 10.4185C118.566 9.90604 119.003 8.87814 120.047 7.63054C121.258 6.18271 122.836 5.06839 124.621 4.45068Z" fill="black"/>
<path d="M133.484 44.9883C133.626 43.7888 133.703 43.0761 134.387 42.2862C134.93 41.66 135.461 41.3173 135.375 40.3119C135.289 39.3175 134.715 38.4612 134.252 37.5922C133.789 36.7225 133.42 35.6721 133.769 34.7446C133.993 34.1506 134.474 33.7179 134.869 33.2341C135.263 32.7503 135.596 32.1088 135.43 31.4935C135.166 30.518 133.863 30.2532 133.5 29.3142C133.211 28.5644 133.64 27.7294 133.639 26.9194C133.638 25.782 132.76 24.8143 131.759 24.4072C130.523 23.9045 129.36 24.185 128.112 24.1796C126.689 24.1735 125.268 23.6829 123.844 23.6829C122.368 23.5278 122.238 23.3251 121.595 21.8967C121.071 20.7331 120.642 19.5239 120.284 18.2915C120.119 17.7273 119.208 15.4184 119.478 14.9199C117.469 18.6414 116.26 22.7372 116.045 27.0478C115.964 28.6667 116.027 30.3281 116.572 31.8429C116.835 32.5713 117.209 33.273 117.28 34.0496C117.458 35.9995 114.999 36.6568 114.848 38.4971C114.716 40.1196 116.603 41.1384 116.959 42.7219C117.185 43.7255 116.753 44.7528 116.688 45.7819C116.556 47.8736 118.064 49.8418 119.942 50.4924C121.82 51.1429 123.933 50.6348 125.607 49.5198C126.56 48.8851 127.532 48.0221 128.65 48.1609C129.319 48.2436 129.916 48.6873 130.587 48.7506C131.433 48.8309 132.247 48.2728 132.728 47.531C133.231 46.7532 133.378 45.8738 133.484 44.9883Z" fill="#061F33"/>
<path d="M126.118 30.2976C126.936 30.0852 128.518 30.488 129.198 31.0936C130.025 31.8306 130.03 33.4756 130.276 34.5041C130.677 36.1795 131.077 37.8544 131.477 39.5298C131.696 40.4463 131.899 41.4846 131.42 42.2818C130.892 43.1618 129.778 43.3523 128.799 43.4588C127.59 43.5903 126.381 43.7223 125.171 43.8538C123.973 43.984 122.718 44.1064 121.604 43.6195C120.491 43.1326 119.598 41.8193 119.954 40.5985C120.316 39.3606 121.675 38.833 122.478 37.8562C123.395 36.74 123.508 35.148 123.791 33.6983C124.074 32.2487 124.762 30.6487 126.118 30.2976Z" fill="#FF917B"/>
<path d="M130.314 32.1999C131.409 31.2116 132.211 29.8995 132.707 28.4735C133.352 26.6192 133.806 24.3431 132.175 22.8587C131.11 21.8899 129.578 21.5953 128.316 21.0275C126.868 20.3763 125.317 20.0142 123.867 19.3636C121.762 18.4197 120.479 17.0279 119.525 14.8984C118.877 16.9092 118.5 19.1774 118.335 21.3056C118.147 23.7065 118.451 26.1548 119.259 28.409C119.932 30.2896 121 32.0995 122.63 33.1268C124.995 34.6178 128.218 34.0914 130.314 32.1999Z" fill="#FEA587"/>
<g opacity="0.2">
<path d="M125.67 23.4715C125.76 23.4922 125.85 23.5166 125.932 23.5579C126.178 23.6797 126.335 23.9365 126.402 24.2031C126.468 24.4696 126.456 24.7483 126.444 25.0228C125.604 24.5159 124.663 24.1781 123.693 24.0345C123.677 24.032 123.717 23.6529 123.741 23.6139C123.835 23.4618 124.095 23.4667 124.255 23.4295C124.716 23.3224 125.213 23.3644 125.67 23.4715Z" fill="#36353D"/>
</g>
<path d="M129.487 19.7178C127.582 19.7178 126.025 21.2045 125.907 23.082C125.27 22.9415 124.61 22.9323 123.97 23.0571C123.69 21.3196 122.185 19.9929 120.371 19.9929C118.357 19.9929 116.725 21.6275 116.725 23.6438C116.725 25.66 118.357 27.2947 120.371 27.2947C122.385 27.2947 124.017 25.66 124.017 23.6438C124.017 23.6432 124.017 23.6419 124.017 23.6413C124.703 23.5281 125.196 23.5385 125.917 23.6718C126.098 25.4853 127.628 26.9021 129.487 26.9021C131.468 26.9021 133.074 25.2936 133.074 23.3103C133.074 21.3269 131.468 19.7178 129.487 19.7178ZM120.371 26.6666C118.704 26.6666 117.352 25.3131 117.352 23.6438C117.352 21.9744 118.704 20.6209 120.371 20.6209C122.038 20.6209 123.39 21.9744 123.39 23.6438C123.39 25.3125 122.038 26.6666 120.371 26.6666ZM129.487 26.2838C127.846 26.2838 126.517 24.9522 126.517 23.3096C126.517 21.6671 127.846 20.3355 129.487 20.3355C131.127 20.3355 132.457 21.6671 132.457 23.3096C132.457 24.9522 131.127 26.2838 129.487 26.2838Z" fill="#303243"/>
<path d="M95.4508 31.5943H55.2317C51.6016 31.5943 48.6309 28.6198 48.6309 24.985V7.57606C48.6309 3.94129 51.6016 0.966797 55.2317 0.966797H95.4508C99.081 0.966797 102.052 3.94129 102.052 7.57606V24.985C102.052 28.6198 99.081 31.5943 95.4508 31.5943Z" fill="#BBE5FB"/>
<path d="M60.5252 17.1921H56.1262C54.0696 17.1921 52.3867 15.5071 52.3867 13.4478V7.50207C52.3867 5.44281 54.0696 3.75781 56.1262 3.75781H60.5252C62.5819 3.75781 64.2647 5.44281 64.2647 7.50207V13.4478C64.2647 15.5071 62.5819 17.1921 60.5252 17.1921Z" fill="#EAEEF7"/>
<path d="M55.8379 17.1806C55.9326 17.1872 56.0289 17.1921 56.1252 17.1921C56.0582 17.0074 55.9668 16.8407 55.8412 16.7148C55.8444 16.875 55.8428 17.0303 55.8379 17.1806Z" fill="#36353D"/>
<path d="M54.8687 13.4904C55.1283 13.0933 55.5265 12.7713 55.9836 12.6373C56.2219 12.567 56.4537 12.5687 56.6822 12.6063C56.7393 12.603 56.7981 12.6046 56.8552 12.5867C57.0821 12.5147 57.3204 12.3824 57.4477 12.1732C57.5277 12.0408 57.5587 11.8839 57.5832 11.7303C57.6289 11.4426 57.6517 11.1533 57.6583 10.8624C57.322 10.6483 57.087 10.2773 56.9727 9.88836C56.834 9.41277 56.847 8.90775 56.8666 8.41255L56.927 8.4387C57.9064 8.87017 59.1028 8.76721 59.994 8.17394C60.0381 8.63809 60.0414 9.11205 59.9304 9.56477C59.8194 10.0175 59.5827 10.4506 59.2155 10.7366C59.1746 10.7693 59.1306 10.7987 59.0865 10.8265C59.0816 10.9817 59.0751 11.1354 59.0637 11.2906C59.0359 11.6927 59.1061 12.0718 59.4472 12.3235C59.6382 12.4641 59.8618 12.5523 60.0757 12.6569C60.3189 12.5948 60.5637 12.5605 60.8167 12.5981C60.7253 12.0571 60.598 11.5064 60.7237 10.9834C60.8657 10.3868 61.3145 9.91615 61.5724 9.35884C61.9756 8.48447 61.8581 7.39272 61.2786 6.62622C60.709 5.87279 59.7182 5.46584 58.7845 5.59495C57.6387 5.67504 56.5973 6.31243 55.9166 7.3012C55.5396 7.84871 55.2833 8.51062 54.7447 8.89795C54.3546 9.17906 53.8339 9.29673 53.5482 9.68407C53.1712 10.194 53.3393 10.9834 52.9149 11.4541C52.7745 11.6077 52.5917 11.7041 52.3926 11.776V13.4512C52.3926 14.8192 53.1353 16.022 54.2387 16.6758C54.2681 16.3129 54.2795 15.9468 54.3056 15.5824C54.3513 14.8518 54.4705 14.1 54.8687 13.4904Z" fill="#36353D"/>
<path d="M59.0634 11.2894C59.0749 11.1341 59.0814 10.9788 59.0863 10.8252C58.7337 11.0442 58.2881 11.1226 57.8996 10.9821C57.8148 10.951 57.7348 10.9118 57.6597 10.8644C57.6532 11.1553 57.6303 11.4446 57.5846 11.7323C57.5601 11.8859 57.5291 12.0411 57.4491 12.1752C57.3234 12.3844 57.0851 12.5167 56.8566 12.5887C56.7995 12.6066 56.7407 12.605 56.6836 12.6083C56.9807 12.6573 57.2745 12.7652 57.5715 12.8567C57.6173 12.8714 57.6646 12.8845 57.7103 12.8992C58.2228 13.0495 58.7664 13.0495 59.2789 12.8992C59.3262 12.8861 59.3719 12.8714 59.4176 12.8567C59.638 12.7897 59.8551 12.7129 60.0738 12.6573C59.86 12.5527 59.6364 12.4644 59.4454 12.3239C59.1042 12.0706 59.0341 11.6914 59.0634 11.2894Z" fill="#FF907B"/>
<path d="M62.1195 13.4906C61.86 13.0935 61.4617 12.7715 61.0047 12.6375C60.941 12.6179 60.8774 12.6048 60.8137 12.595C60.5624 12.559 60.3159 12.5933 60.0727 12.6538C59.8539 12.7094 59.6369 12.7862 59.4165 12.8532C59.3708 12.8679 59.3235 12.881 59.2778 12.8957C58.7652 13.0461 58.2217 13.0461 57.7091 12.8957C57.6618 12.8826 57.6161 12.8679 57.5704 12.8532C57.2733 12.7617 56.9795 12.6538 56.6825 12.6048C56.4539 12.5672 56.2222 12.5656 55.9838 12.6358C55.5268 12.7699 55.1285 13.0918 54.869 13.489C54.4691 14.1002 54.3499 14.8504 54.2993 15.5776C54.2732 15.9405 54.2618 16.3082 54.2324 16.671C54.7107 16.9538 55.2559 17.1335 55.8369 17.1793C55.8418 17.0289 55.8435 16.8737 55.8402 16.7135C55.9659 16.8394 56.0573 17.0061 56.1242 17.1907H56.1259H60.5248C60.6407 17.1907 60.7566 17.1858 60.8709 17.1744C60.9378 16.9963 61.0275 16.8361 61.1483 16.7135C61.1451 16.859 61.1467 17.0012 61.15 17.1384C61.7376 17.0387 62.2795 16.8001 62.7414 16.4569C62.7218 16.1644 62.7104 15.8702 62.6908 15.5776C62.6386 14.852 62.5194 14.1002 62.1195 13.4906Z" fill="#093666"/>
<path d="M59.0838 10.8244C59.1279 10.7966 59.172 10.7672 59.2128 10.7345C59.5817 10.4485 59.8167 10.0154 59.9277 9.5627C60.0387 9.10999 60.0355 8.63603 59.9914 8.17188C59.1002 8.76514 57.9037 8.8681 56.9244 8.43664L56.864 8.41049C56.8444 8.9057 56.8297 9.4107 56.9701 9.88629C57.0843 10.2753 57.3194 10.6463 57.6556 10.8604C57.7307 10.9078 57.8107 10.9486 57.8956 10.978C58.2857 11.1219 58.7313 11.0434 59.0838 10.8244Z" fill="#FDA486"/>
<path d="M97.9488 6.5793H72.2112C71.8504 6.5793 71.5566 6.28348 71.5566 5.92393C71.5566 5.56274 71.8521 5.26855 72.2112 5.26855H97.9488C98.3095 5.26855 98.6033 5.56437 98.6033 5.92393C98.6033 6.28511 98.3095 6.5793 97.9488 6.5793Z" fill="#6CB7D8"/>
<path d="M80.3196 9.8293H67.676C67.3153 9.8293 67.0215 9.53348 67.0215 9.17393C67.0215 8.81274 67.3169 8.51855 67.676 8.51855H80.3196C80.6803 8.51855 80.9741 8.81437 80.9741 9.17393C80.9757 9.53348 80.6803 9.8293 80.3196 9.8293Z" fill="#6CB7D8"/>
<path d="M97.9485 9.8293H85.3049C84.9442 9.8293 84.6504 9.53348 84.6504 9.17393C84.6504 8.81274 84.9458 8.51855 85.3049 8.51855H97.9485C98.3092 8.51855 98.603 8.81437 98.603 9.17393C98.603 9.53348 98.3092 9.8293 97.9485 9.8293Z" fill="#6CB7D8"/>
<path d="M98.153 15.2656H77.051C76.6903 15.2656 76.3965 15.5614 76.3965 15.921C76.3965 16.2822 76.6919 16.5764 77.051 16.5764H98.153C98.5137 16.5764 98.8075 16.2806 98.8075 15.921C98.8075 15.5614 98.5137 15.2656 98.153 15.2656Z" fill="#6CB7D8"/>
<path d="M98.1524 12.0166H67.7776C67.4169 12.0166 67.123 12.3124 67.123 12.672C67.123 13.0332 67.4185 13.3273 67.7776 13.3273H98.1524C98.5132 13.3273 98.807 13.0315 98.807 12.672C98.807 12.3108 98.5132 12.0166 98.1524 12.0166Z" fill="#6CB7D8"/>
<path d="M53.5428 26.4688H84.7762C85.1108 26.4688 85.3834 26.7417 85.3834 27.0767C85.3834 27.4118 85.1108 27.6847 84.7762 27.6847H53.5428C53.2081 27.6847 52.9355 27.4118 52.9355 27.0767C52.9355 26.7433 53.2081 26.4688 53.5428 26.4688Z" fill="#6CB7D8"/>
<path d="M53.5428 23.459H98.2016C98.5362 23.459 98.8088 23.7319 98.8088 24.067C98.8088 24.402 98.5362 24.6749 98.2016 24.6749H53.5428C53.2081 24.6749 52.9355 24.402 52.9355 24.067C52.9355 23.7319 53.2081 23.459 53.5428 23.459Z" fill="#6CB7D8"/>
<path d="M68.2164 51.0367H27.9974C24.3672 51.0367 21.3965 48.0622 21.3965 44.4274V27.0184C21.3965 23.3837 24.3672 20.4092 27.9974 20.4092H68.2164C71.8466 20.4092 74.8173 23.3837 74.8173 27.0184V44.4274C74.8173 48.0622 71.8466 51.0367 68.2164 51.0367Z" fill="#3A77AE"/>
<path d="M33.2381 36.6344H28.8391C26.7825 36.6344 25.0996 34.9494 25.0996 32.8902V26.9445C25.0996 24.8852 26.7825 23.2002 28.8391 23.2002H33.2381C35.2948 23.2002 36.9776 24.8852 36.9776 26.9445V32.8902C36.9776 34.9494 35.2948 36.6344 33.2381 36.6344Z" fill="#EAEEF7"/>
<path d="M26.9062 36.09C26.9144 36.0949 26.9241 36.0998 26.9322 36.1062C26.9419 36.0203 26.9516 35.9327 26.963 35.8467C26.9435 35.9278 26.9241 36.0089 26.9062 36.09Z" fill="#78BCFF"/>
<path d="M26.6846 33.4291C26.7205 33.4406 26.7548 33.4569 26.7907 33.4798C27.0617 33.6579 27.2298 34.0142 27.2706 34.3558C27.3783 33.9832 27.5089 33.6154 27.6656 33.251C27.8337 32.862 28.0329 32.4779 28.3169 32.1625C28.3528 32.1233 28.4752 32.0236 28.6335 31.9092C28.152 31.9304 27.6542 32.3292 27.2069 32.6201C26.8005 32.8849 26.3353 33.2265 25.9844 33.6481C26.0448 33.6105 26.1052 33.5762 26.1656 33.5435C26.3255 33.4553 26.51 33.3768 26.6846 33.4291Z" fill="#78BCFF"/>
<path d="M29.7558 31.5189C30.0104 32.1465 30.882 32.4243 31.4517 32.0582C31.6198 31.9504 31.7586 31.8 31.9365 31.7085C31.9691 31.6922 32.0018 31.6774 32.036 31.666C32.0573 31.5222 32.0605 31.3751 32.0638 31.228C32.072 30.875 32.0801 30.522 32.0883 30.1689C31.9593 30.2964 31.8206 30.4125 31.6688 30.5105C31.2526 30.7802 30.7172 30.9028 30.2536 30.7312C30.1214 30.6821 30.0006 30.6119 29.8896 30.5269C29.8113 30.7361 29.7558 30.9567 29.7166 31.1773C29.7003 31.2656 29.6872 31.3538 29.6758 31.4437C29.7133 31.4568 29.7411 31.4813 29.7558 31.5189Z" fill="#FF917B"/>
<path d="M33.1183 35.1231C32.9697 34.6116 32.813 34.0951 32.7934 33.5623C32.7722 33.0295 32.9028 32.4657 33.257 32.0849C33.4627 31.8626 33.67 31.7564 33.8773 31.7302C33.4578 31.6322 33.0268 31.5848 32.5959 31.5881C32.4066 31.5897 32.2123 31.6028 32.0361 31.6681C32.0018 31.6812 31.9691 31.6943 31.9365 31.7106C31.7586 31.8022 31.6198 31.9525 31.4517 32.0604C30.882 32.4265 30.0104 32.1486 29.7558 31.521C29.7395 31.4818 29.7133 31.4589 29.6758 31.4459C29.4685 31.3723 28.969 31.673 28.6328 31.9133C28.4728 32.0277 28.352 32.1274 28.3161 32.1666C28.0321 32.482 27.833 32.8645 27.6648 33.2551C27.5082 33.6195 27.3776 33.9873 27.2698 34.3599C27.2764 34.4155 27.2813 34.4727 27.2813 34.5266C27.2813 34.7897 27.185 35.0741 27.1131 35.3225C27.0625 35.4974 27.0103 35.6723 26.9646 35.8488C26.9532 35.9354 26.9434 36.0236 26.9336 36.1103C27.4918 36.4437 28.1447 36.6365 28.8384 36.6365H33.2374C33.4545 36.6365 33.6667 36.6169 33.874 36.581C33.7173 36.4143 33.5769 36.2263 33.4594 36.0253C33.2994 35.7474 33.208 35.4336 33.1183 35.1231Z" fill="#89C0FF"/>
<path d="M35.5011 32.5319C35 32.1658 34.4402 31.6543 33.877 31.7278C33.6697 31.7556 33.4624 31.8618 33.2568 32.0825C32.9026 32.4649 32.772 33.0271 32.7932 33.5599C32.8144 34.0927 32.9695 34.6092 33.118 35.1207C33.2078 35.4312 33.2992 35.7467 33.4608 36.0229C33.5783 36.2239 33.7187 36.4118 33.8754 36.5785C35.32 36.3269 36.4854 35.24 36.8543 33.8378C36.6699 33.6449 36.5164 33.4226 36.3254 33.2298C36.0724 32.9716 35.7917 32.7444 35.5011 32.5319Z" fill="#89C0FF"/>
<path d="M31.6686 30.5106C31.8204 30.4126 31.9591 30.2965 32.0881 30.1691C32.248 30.0105 32.3933 29.8324 32.5272 29.6493C32.4635 29.615 32.4913 29.4957 32.4994 29.4451C32.5288 29.2767 32.5941 29.1133 32.6871 28.9695C32.7638 28.8518 32.8601 28.7456 32.9222 28.6181C33.0479 28.3566 32.9352 28.1213 32.6382 28.1049C32.519 28.0984 32.3966 28.1114 32.2872 28.064C32.1191 27.9905 32.0391 27.796 32.0195 27.613C31.9999 27.4299 32.0261 27.2436 31.9918 27.0638C31.9575 26.884 31.8383 26.6994 31.6588 26.67C31.5037 26.6454 31.3585 26.7402 31.223 26.8187C30.7594 27.0916 30.2159 27.2256 29.6772 27.2044C29.5581 27.1995 29.4373 27.1864 29.3247 27.1488C29.2512 27.6244 29.1777 28.1 29.1043 28.5756C29.0651 28.8338 29.0243 29.0969 29.0798 29.3519C29.1271 29.5676 29.2381 29.7621 29.3622 29.9452C29.5091 30.1625 29.6821 30.3701 29.8894 30.527C30.0004 30.612 30.1212 30.6822 30.2534 30.7313C30.7186 30.9029 31.254 30.7803 31.6686 30.5106Z" fill="#FEA587"/>
<path d="M31.2225 26.8186C31.358 26.7385 31.5032 26.6454 31.6583 26.6699C31.8395 26.6977 31.957 26.8824 31.9913 27.0638C32.0256 27.2435 32.0011 27.4299 32.019 27.6129C32.0386 27.796 32.1186 27.9904 32.2867 28.064C32.3961 28.1114 32.5202 28.0983 32.6377 28.1049C32.9347 28.1212 33.0474 28.3565 32.9217 28.618C32.8613 28.7455 32.7634 28.8517 32.6866 28.9694C32.5936 29.1132 32.5283 29.2767 32.4989 29.445C32.4891 29.4957 32.463 29.6166 32.5267 29.6493C32.5267 29.6493 32.5267 29.6493 32.5283 29.6493C32.5903 29.6803 32.6409 29.6035 32.6817 29.5643C32.9152 29.3388 33.1127 29.0756 33.2661 28.788C33.4799 28.3843 33.5648 27.9087 33.6497 27.4609C33.7346 27.0147 33.8096 26.5163 33.5615 26.1338C33.3853 25.8625 33.0784 25.7089 32.7813 25.5798C32.3226 25.3788 31.8526 25.2023 31.3743 25.0535C31.056 24.9538 30.7263 24.864 30.3933 24.8836C29.9461 24.9097 29.5135 25.1451 29.2475 25.5063C29.0761 25.7383 28.9716 26.0685 28.921 26.3512C28.8786 26.5947 28.921 26.9052 29.1365 27.0556C29.1936 27.0965 29.2572 27.1259 29.3225 27.1471C29.4352 27.1831 29.556 27.1978 29.6751 27.2027C30.2154 27.2256 30.7589 27.0899 31.2225 26.8186Z" fill="#36353D"/>
<path d="M27.1132 35.3202C27.1834 35.0718 27.2813 34.7874 27.2813 34.5243C27.2813 34.4687 27.2781 34.4131 27.2699 34.3576C27.2275 34.016 27.061 33.6597 26.79 33.4815C26.7557 33.4587 26.7198 33.4407 26.6839 33.4309C26.5093 33.3786 26.3248 33.457 26.1632 33.5453C26.1045 33.578 26.0424 33.6123 25.982 33.6499C25.7584 33.7872 25.5283 33.9522 25.3145 34.1418C25.6066 34.959 26.1747 35.6487 26.9059 36.0932C26.9222 36.0115 26.9418 35.9298 26.963 35.8481C27.0104 35.6699 27.0626 35.4951 27.1132 35.3202Z" fill="#78BCFF"/>
<path d="M70.7144 26.0226H44.9768C44.6161 26.0226 44.3223 25.7268 44.3223 25.3673C44.3223 25.0061 44.6177 24.7119 44.9768 24.7119H70.7144C71.0751 24.7119 71.3689 25.0077 71.3689 25.3673C71.3689 25.7268 71.0751 26.0226 70.7144 26.0226Z" fill="#6CB7D8"/>
<path d="M53.0852 29.2717H40.4416C40.0809 29.2717 39.7871 28.9759 39.7871 28.6163C39.7871 28.2551 40.0825 27.9609 40.4416 27.9609H53.0852C53.4459 27.9609 53.7397 28.2567 53.7397 28.6163C53.7414 28.9759 53.4459 29.2717 53.0852 29.2717Z" fill="#6CB7D8"/>
<path d="M70.7141 29.2717H58.0706C57.7098 29.2717 57.416 28.9759 57.416 28.6163C57.416 28.2551 57.7115 27.9609 58.0706 27.9609H70.7141C71.0748 27.9609 71.3686 28.2567 71.3686 28.6163C71.3686 28.9759 71.0748 29.2717 70.7141 29.2717Z" fill="#6CB7D8"/>
<path d="M70.9186 34.708H49.8166C49.4559 34.708 49.1621 35.0038 49.1621 35.3634C49.1621 35.7246 49.4575 36.0187 49.8166 36.0187H70.9186C71.2793 36.0187 71.5731 35.7229 71.5731 35.3634C71.5731 35.0038 71.2793 34.708 70.9186 34.708Z" fill="#6CB7D8"/>
<path d="M70.9181 31.459H40.5432C40.1825 31.459 39.8887 31.7548 39.8887 32.1144C39.8887 32.4755 40.1841 32.7697 40.5432 32.7697H70.9181C71.2788 32.7697 71.5726 32.4739 71.5726 32.1144C71.5726 31.7532 71.2788 31.459 70.9181 31.459Z" fill="#6CB7D8"/>
<path d="M26.3084 45.9111H57.5418C57.8764 45.9111 58.149 46.1841 58.149 46.5191C58.149 46.8542 57.8764 47.1271 57.5418 47.1271H26.3084C25.9738 47.1271 25.7012 46.8542 25.7012 46.5191C25.7012 46.1857 25.9738 45.9111 26.3084 45.9111Z" fill="#6CB7D8"/>
<path d="M26.3084 42.9014H70.9672C71.3018 42.9014 71.5744 43.1743 71.5744 43.5093C71.5744 43.8444 71.3018 44.1173 70.9672 44.1173H26.3084C25.9738 44.1173 25.7012 43.8444 25.7012 43.5093C25.7012 43.1743 25.9738 42.9014 26.3084 42.9014Z" fill="#6CB7D8"/>
<path d="M47.6849 70.9595H7.46417C3.83401 70.9595 0.863281 67.985 0.863281 64.3503V46.9413C0.863281 43.3065 3.83401 40.332 7.46417 40.332H47.6832C51.3134 40.332 54.2841 43.3065 54.2841 46.9413V64.3503C54.2858 67.985 51.315 70.9595 47.6849 70.9595Z" fill="#BBE5FB"/>
<path d="M12.6658 56.4421H8.26687C6.21021 56.4421 4.52734 54.7571 4.52734 52.6978V46.7521C4.52734 44.6928 6.21021 43.0078 8.26687 43.0078H12.6658C14.7225 43.0078 16.4054 44.6928 16.4054 46.7521V52.6978C16.4054 54.7571 14.7225 56.4421 12.6658 56.4421Z" fill="#EAEEF7"/>
<path d="M10.7485 50.2822C10.7372 50.2871 10.7242 50.2903 10.7129 50.2936C10.7259 50.292 10.7372 50.2871 10.7485 50.2822Z" fill="#FF917B"/>
<path d="M9.30494 49.7727C9.35228 49.7417 9.41267 49.7384 9.4698 49.7482C9.41267 49.6877 9.36044 49.624 9.31963 49.5537C9.29025 49.6861 9.25597 49.8152 9.2168 49.9443C9.23475 49.946 9.25107 49.9509 9.2674 49.9574C9.21843 49.9051 9.24455 49.8119 9.30494 49.7727Z" fill="#FF917B"/>
<path d="M11.3578 49.944C11.3578 49.9522 11.3562 49.9604 11.3529 49.9685C11.3415 49.9702 11.3317 49.9718 11.3219 49.9751C11.2844 50.0061 11.2436 50.0323 11.2011 50.0584C11.1864 50.0731 11.1734 50.0895 11.1619 50.1058C11.1048 50.1777 11.0265 50.2693 10.9987 50.3592C10.9971 50.3673 10.9938 50.3755 10.9922 50.382C11.2076 50.2693 11.4378 50.1925 11.6696 50.1467C11.6418 49.9702 11.6141 49.7937 11.5684 49.6221C11.5178 49.7381 11.4558 49.8492 11.3643 49.9375C11.3611 49.9408 11.3594 49.9424 11.3578 49.944Z" fill="#FF917B"/>
<path d="M9.88226 52.3285C9.87083 52.3219 9.85614 52.3121 9.85451 52.2991C9.85288 52.2811 9.87083 52.268 9.88716 52.2598C9.9198 52.2435 9.95245 52.2271 9.98509 52.2108C9.82023 51.9117 9.61783 51.6306 9.39258 51.374C9.40237 51.4018 9.4138 51.428 9.42849 51.4557C9.57866 51.7336 9.68639 52.0457 9.79412 52.3432C9.8692 52.5491 9.93939 52.7583 10.003 52.9675C10.0161 52.9168 10.0292 52.8645 10.039 52.8122C10.0243 52.7763 10.0112 52.7403 9.99652 52.7044C9.98019 52.6635 9.96387 52.6177 9.97693 52.5753C9.98999 52.5295 10.0308 52.5017 10.0732 52.4772C10.0161 52.42 9.95245 52.3693 9.88226 52.3285Z" fill="#C2DEF6"/>
<path d="M11.2216 51.0766C11.1123 51.173 11.016 51.2858 10.9197 51.3969C10.9131 51.4051 10.905 51.4132 10.8984 51.4214C10.9001 51.441 10.9017 51.4623 10.905 51.4835C10.918 51.593 10.9539 51.6993 10.9833 51.8055C10.9947 51.8071 11.0045 51.8088 11.016 51.8104C11.0241 51.812 11.0339 51.8153 11.0404 51.8218C11.06 51.8398 11.0486 51.8709 11.0388 51.8937C11.0307 51.9085 11.0241 51.9248 11.0176 51.9411C11.0241 51.9706 11.029 52.0016 11.0323 52.031C11.0339 52.0441 11.0339 52.0588 11.0355 52.0719H11.0372C11.1074 52.1078 11.1482 52.1797 11.1873 52.2468C11.1873 52.286 11.1955 52.3301 11.2086 52.3775C11.3718 51.8333 11.5399 51.3037 11.6134 50.7432C11.4926 50.8739 11.3489 50.9638 11.2216 51.0766Z" fill="#C2DEF6"/>
<path d="M10.9831 51.8069C10.9537 51.7007 10.9178 51.5945 10.9047 51.485C10.9014 51.4637 10.8998 51.4425 10.8982 51.4229C10.8916 51.431 10.8835 51.4392 10.877 51.4474C10.877 51.5699 10.8835 51.6909 10.8933 51.8118C10.9227 51.8069 10.952 51.8036 10.9831 51.8069Z" fill="#ED1C24"/>
<path d="M10.3339 54.2543C10.3339 54.202 10.4188 54.0941 10.4955 54.001C10.4841 53.9617 10.4711 53.9225 10.458 53.8849C10.329 53.5238 10.1821 53.1707 10.0418 52.8145C10.0303 52.8668 10.0189 52.9174 10.0059 52.9697C10.1364 53.3914 10.2458 53.8196 10.3339 54.2543Z" fill="#ED1C24"/>
<path d="M11.0154 51.9414C10.9992 51.9787 10.9863 52.016 10.9766 52.055C10.996 52.0582 11.0154 52.0647 11.0333 52.0728C11.0317 52.0598 11.0317 52.0452 11.03 52.0323C11.0268 52.0014 11.0219 51.9722 11.0154 51.9414Z" fill="#ED1C24"/>
<path d="M10.7293 54.9842C10.6575 54.7603 10.6199 54.5331 10.5726 54.3092C10.5595 54.2552 10.5481 54.2029 10.5367 54.149C10.5236 54.0983 10.5106 54.0493 10.4959 54.0003C10.4192 54.0951 10.3343 54.2029 10.3343 54.2536C10.2461 53.8205 10.1352 53.3907 10.0046 52.9674C9.93928 52.7582 9.87072 52.549 9.79564 52.3431C9.68791 52.0456 9.58018 51.7351 9.43001 51.4556C9.41532 51.4295 9.40389 51.4017 9.3941 51.3739C9.37778 51.3559 9.36309 51.338 9.34677 51.32C9.20639 51.1647 8.97787 50.9457 8.87504 50.7104C8.86688 50.6957 8.86035 50.6793 8.85382 50.663C8.84892 50.6483 8.84403 50.6336 8.84076 50.6188C8.84076 50.6172 8.83913 50.6139 8.83913 50.6123C8.24499 50.6352 7.77489 50.9081 7.26562 51.2072C7.38478 51.2301 7.5121 51.2906 7.64758 51.3968C7.91527 51.6092 7.9218 52.1715 7.89405 52.4853C7.8614 52.8481 7.7602 53.2011 7.69491 53.559C7.55617 54.3255 7.58065 55.1247 7.76836 55.8798C7.82549 56.1086 7.9169 56.2818 8.03279 56.4338C8.11114 56.4387 8.18949 56.442 8.26784 56.442H11.41C11.2647 56.2475 11.1374 56.0399 11.0362 55.8193C10.9105 55.5496 10.8207 55.2669 10.7293 54.9842Z" fill="#093666"/>
<path d="M11.6311 50.7255C11.6246 50.7337 11.6164 50.7402 11.6099 50.7484C11.5381 51.309 11.3683 51.8385 11.2051 52.3827C11.2475 52.5315 11.3389 52.7096 11.3846 52.8257C11.4728 53.0496 11.574 53.2702 11.6833 53.4843C11.8106 53.736 11.9265 53.9697 12.1126 54.1772C12.2856 54.3701 12.3934 54.6185 12.599 54.782C12.6937 54.8571 12.8259 54.9111 12.9336 54.8555C13.0985 54.7721 13.0675 54.5515 13.0773 54.3995C13.0936 54.1642 13.1279 53.9288 13.1475 53.6935C13.185 53.2212 13.203 52.7488 13.2046 52.2749C13.2046 51.7453 13.4348 51.0998 14.0501 51.1031C13.8134 50.9298 13.5588 50.7566 13.3091 50.634C13.0071 50.4853 12.6806 50.3856 12.3477 50.3349C12.1812 50.3104 12.013 50.2973 11.8433 50.299C11.8286 50.299 11.8155 50.299 11.8041 50.3006C11.8058 50.4542 11.7307 50.6111 11.6311 50.7255Z" fill="#093666"/>
<path d="M10.9602 50.5975C10.9161 50.8116 10.89 51.0274 10.8802 51.2464C10.877 51.3134 10.877 51.3804 10.877 51.4474C10.8835 51.4392 10.8916 51.431 10.8982 51.4229C10.9047 51.4147 10.9129 51.4065 10.9194 51.3984C11.0157 51.2856 11.1136 51.1745 11.2214 51.078C11.3503 50.9653 11.494 50.8754 11.6115 50.7479C11.618 50.7397 11.6262 50.7332 11.6327 50.725C11.7323 50.6122 11.8073 50.4553 11.8041 50.2984C11.8041 50.2625 11.7992 50.2282 11.791 50.1938C11.7878 50.1808 11.7829 50.1677 11.7763 50.1579C11.7584 50.135 11.7257 50.1383 11.6996 50.1432C11.6898 50.1448 11.6817 50.1465 11.6719 50.1481C11.4385 50.1939 11.2083 50.2707 10.9945 50.3834C10.9749 50.4504 10.9733 50.5289 10.9602 50.5975Z" fill="#89C0FF"/>
<path d="M8.8418 50.6211C8.84502 50.6356 8.84825 50.6502 8.85471 50.6647C8.86116 50.6809 8.86762 50.697 8.87568 50.7116C8.86116 50.6809 8.84987 50.6518 8.8418 50.6211Z" fill="#89C0FF"/>
<path d="M8.82422 48.0463L8.84458 48.0432C8.83832 48.0401 8.83048 48.0354 8.82422 48.0322C8.82422 48.0369 8.82422 48.0416 8.82422 48.0463Z" fill="#FEA587"/>
<path d="M9.51147 49.7582C9.50005 49.7255 9.51311 49.6879 9.53596 49.6617C9.55881 49.6356 9.59145 49.6209 9.62573 49.6094C9.85425 49.5326 10.1301 49.6372 10.2493 49.848C10.2721 49.8873 10.2884 49.9298 10.3097 49.9706C10.3423 50.0344 10.3847 50.0948 10.4304 50.1504C10.481 50.2141 10.5431 50.2762 10.6214 50.2942C10.6508 50.3007 10.6818 50.3007 10.7128 50.2942C10.7242 50.2909 10.7373 50.286 10.7487 50.2828C10.7683 50.2746 10.7863 50.2648 10.801 50.2501C10.8483 50.2092 10.8744 50.1504 10.9103 50.0997C10.9805 50.0017 11.0866 49.9363 11.1992 49.8938C11.2335 49.8807 11.2727 49.8709 11.3086 49.8824C11.3347 49.8905 11.3576 49.9183 11.3592 49.9445C11.3608 49.9428 11.3625 49.9412 11.3641 49.9396C11.4555 49.8513 11.5175 49.7402 11.5681 49.6241C11.591 49.5702 11.6138 49.5146 11.6334 49.4591C11.6889 49.3152 11.7428 49.1714 11.7983 49.026C11.8375 48.9246 11.8864 48.8135 11.9909 48.7759C12.0382 48.7579 12.0921 48.7596 12.1427 48.753C12.3337 48.7236 12.4871 48.5438 12.4806 48.3559C12.474 48.1777 12.3222 48.0176 12.1411 47.9882C12.0496 48.0323 11.999 48.1189 11.968 48.2186L11.9289 48.4294C11.937 48.3608 11.9484 48.2872 11.968 48.2186L12.017 47.9587C11.9746 47.5976 11.9321 47.2298 11.7999 46.8899C11.7314 46.7101 11.6253 46.5254 11.4424 46.447C11.2792 46.3767 11.0915 46.4029 10.9234 46.3587C10.7487 46.3113 10.5724 46.2884 10.406 46.21C10.3962 46.2051 10.3864 46.2018 10.3766 46.2002C10.3586 46.2002 10.3439 46.2133 10.3309 46.2231C10.1366 46.3849 9.87873 46.3277 9.65022 46.4012C9.41517 46.4764 9.25194 46.6938 9.18339 46.9242C9.11483 47.1546 9.12463 47.3998 9.13279 47.64C9.14258 47.8803 9.15074 48.1254 9.07892 48.3559C9.04954 48.2268 8.9614 48.1107 8.84551 48.0421C8.759 48.065 8.67902 48.1058 8.61862 48.1696C8.52069 48.2758 8.50273 48.4588 8.61046 48.5569C8.69534 48.6354 8.82592 48.6419 8.92875 48.6975C9.17196 48.8315 9.1589 49.1665 9.25684 49.4215C9.2748 49.4672 9.29601 49.5097 9.3205 49.5506C9.36294 49.6209 9.41354 49.6846 9.47067 49.7451C9.48373 49.75 9.49678 49.7532 9.51147 49.7582Z" fill="#FEA587"/>
<path d="M11.2012 50.059C11.2431 50.0347 11.2835 50.0073 11.3206 49.9766C11.2754 49.9911 11.2351 50.0218 11.2012 50.059Z" fill="#FEA587"/>
<path d="M10.5352 54.1494C10.5465 54.2029 10.5578 54.2565 10.5708 54.3084C10.5611 54.2549 10.5481 54.2013 10.5352 54.1494Z" fill="#FF917B"/>
<path d="M8.87354 50.7125C8.97638 50.9462 9.20489 51.1668 9.34527 51.3221C9.36159 51.34 9.37628 51.358 9.3926 51.376C9.61949 51.6326 9.82189 51.9121 9.98512 52.2128C10.0129 52.1981 10.0422 52.185 10.07 52.1703C10.2969 52.0559 10.5254 51.9415 10.7637 51.8516C10.8045 51.8369 10.847 51.8222 10.891 51.814C10.8796 51.6931 10.8747 51.5705 10.8747 51.4495C10.8747 51.3825 10.8747 51.3155 10.878 51.2485C10.8878 51.0312 10.9139 50.8138 10.9579 50.5997C10.9726 50.531 10.9743 50.4526 10.9906 50.384C10.9922 50.3758 10.9939 50.3676 10.9971 50.3611C11.0249 50.2712 11.1032 50.1813 11.1603 50.1078C11.1734 50.0914 11.1865 50.0767 11.1995 50.0604C11.2338 50.0228 11.273 49.9917 11.3203 49.977C11.3301 49.9737 11.3415 49.9721 11.3513 49.9705C11.3562 49.9623 11.3579 49.9541 11.3562 49.9459C11.3546 49.9198 11.3334 49.892 11.3056 49.8839C11.2697 49.8724 11.2322 49.8838 11.1963 49.8953C11.0836 49.9361 10.9759 50.0031 10.9073 50.1012C10.8714 50.1519 10.8453 50.2107 10.798 50.2516C10.7817 50.2647 10.7637 50.2761 10.7458 50.2843C10.7343 50.2892 10.7213 50.2941 10.7098 50.2957C10.6805 50.3022 10.6494 50.3022 10.6184 50.2957C10.5385 50.2777 10.4781 50.2156 10.4275 50.1519C10.3818 50.0963 10.341 50.0358 10.3067 49.9721C10.2855 49.9312 10.2691 49.8887 10.2463 49.8495C10.1271 49.6403 9.85127 49.5341 9.62275 49.6109C9.59011 49.6223 9.55746 49.6371 9.53298 49.6632C9.51013 49.6894 9.49707 49.727 9.50849 49.7596C9.4938 49.7564 9.48075 49.7531 9.46605 49.7498C9.40893 49.74 9.34853 49.7433 9.3012 49.7743C9.2408 49.8136 9.21469 49.9067 9.26365 49.959C9.24733 49.9525 9.23101 49.9476 9.21305 49.9459C9.1445 49.9378 9.07268 49.9639 9.02861 50.0162C8.97311 50.0832 8.96821 50.1862 9.01555 50.2581C8.97964 50.2336 8.93067 50.2418 8.89639 50.2679C8.86212 50.2941 8.84253 50.3349 8.83274 50.3758C8.81152 50.4542 8.81478 50.5343 8.836 50.6144C8.836 50.616 8.83763 50.6193 8.83763 50.6209C8.84906 50.652 8.86048 50.6814 8.87354 50.7125Z" fill="#FF917B"/>
<path d="M11.0376 51.8943C11.049 51.8714 11.0588 51.8403 11.0392 51.8224C11.0327 51.8158 11.0229 51.8142 11.0147 51.8109C11.0033 51.8093 10.9935 51.8076 10.9821 51.806C10.9527 51.8027 10.9217 51.806 10.8923 51.8109C10.8499 51.8191 10.8074 51.8338 10.765 51.8485C10.5267 51.9384 10.2982 52.0528 10.0713 52.1672C10.0435 52.1819 10.0142 52.195 9.98641 52.2097C9.95376 52.226 9.92112 52.2424 9.88847 52.2587C9.87215 52.2669 9.85256 52.28 9.85583 52.2979C9.85746 52.311 9.87052 52.3208 9.88358 52.3274C9.95376 52.3682 10.0174 52.4189 10.0746 52.4761C10.0794 52.4728 10.0843 52.4696 10.0892 52.4679C10.2835 52.3601 10.4761 52.2505 10.6703 52.1427C10.765 52.0904 10.8744 52.0364 10.9756 52.0544C10.9854 52.0152 10.9984 51.9776 11.0147 51.94C11.0229 51.9253 11.0311 51.9106 11.0376 51.8943Z" fill="#C2DEF6"/>
<path d="M7.69546 53.5609C7.76075 53.203 7.86195 52.8499 7.8946 52.4871C7.92235 52.1733 7.91582 51.6111 7.64813 51.3986C7.51265 51.2908 7.38533 51.2303 7.26618 51.2091C6.38802 51.0456 5.93098 52.9594 5.84447 53.7407C5.83631 53.8093 5.83141 53.8681 5.82978 53.9172C5.80693 54.4647 5.83631 55.0416 5.91629 55.6038C6.50227 56.081 7.23516 56.385 8.03171 56.434C7.91582 56.282 7.82441 56.1088 7.76728 55.88C7.5812 55.1266 7.55509 54.3274 7.69546 53.5609Z" fill="#0D3B79"/>
<path d="M15.0763 52.8173C15.0714 52.4676 15.0616 52.108 14.9326 51.7811C14.8037 51.4543 14.5327 51.1634 14.1851 51.1111C14.1377 51.1045 14.092 51.1013 14.048 51.0996C13.4326 51.0964 13.2024 51.7419 13.2024 52.2714C13.2024 52.7454 13.1829 53.2177 13.1453 53.6901C13.1274 53.9254 13.0931 54.1607 13.0751 54.3961C13.0637 54.5481 13.0963 54.7687 12.9315 54.8521C12.8238 54.906 12.6915 54.8537 12.5969 54.7785C12.3912 54.6151 12.2835 54.3667 12.1105 54.1738C11.9244 53.9663 11.8085 53.7325 11.6812 53.4809C11.5718 53.2668 11.4706 53.0461 11.3825 52.8222C11.3368 52.7062 11.2454 52.528 11.2029 52.3793C11.1899 52.3319 11.1817 52.2862 11.1817 52.2486C11.1442 52.1799 11.1017 52.108 11.0315 52.0737H11.0299C11.0119 52.0639 10.9924 52.059 10.9728 52.0557C10.8716 52.0377 10.7606 52.0917 10.6675 52.144C10.4733 52.2518 10.2807 52.3613 10.0864 52.4692C10.0815 52.4725 10.0766 52.4757 10.0718 52.4774C10.0309 52.5019 9.98851 52.5313 9.97545 52.5754C9.96239 52.6179 9.97871 52.6637 9.99504 52.7045C10.0097 52.7405 10.0228 52.7765 10.0375 52.8124C10.1778 53.1687 10.3264 53.5217 10.4537 53.8829C10.4668 53.9221 10.4798 53.9597 10.4912 53.9989C10.5059 54.048 10.519 54.0986 10.5321 54.1477C10.5451 54.2016 10.5565 54.2539 10.568 54.3078C10.6153 54.5317 10.6528 54.7589 10.7247 54.9828C10.8144 55.2655 10.9058 55.5483 11.0299 55.818C11.1327 56.0386 11.2584 56.2478 11.4037 56.4406H12.6605C13.5093 56.4406 14.2928 56.1546 14.9229 55.6725C15.0861 54.7328 15.091 53.7718 15.0763 52.8173Z" fill="#0D3B79"/>
<path d="M9.07806 48.3566C9.14988 48.1262 9.14172 47.881 9.13192 47.6408C9.12213 47.4005 9.11234 47.1554 9.18252 46.9249C9.25108 46.6945 9.41431 46.4755 9.64935 46.4019C9.87787 46.33 10.1358 46.3856 10.33 46.2238C10.3431 46.2124 10.3578 46.1993 10.3757 46.2009C10.3855 46.2009 10.3953 46.2058 10.4051 46.2107C10.5716 46.2892 10.7479 46.312 10.9225 46.3594C11.0906 46.4052 11.2784 46.3774 11.4416 46.4477C11.6228 46.5262 11.7289 46.7092 11.799 46.8906C11.9296 47.2322 11.9737 47.5983 12.0161 47.9595L11.9672 48.2193C11.9982 48.1196 12.0488 48.033 12.1402 47.9889C12.1467 47.9856 12.1516 47.9823 12.1581 47.9807C12.1941 47.966 12.2316 47.9611 12.2675 47.948C12.3899 47.9023 12.4601 47.7715 12.4715 47.644C12.483 47.5166 12.4487 47.3907 12.4177 47.2665C12.3589 47.0344 12.3148 46.7958 12.3197 46.5556C12.323 46.3758 12.3557 46.196 12.3426 46.0146C12.3067 45.5194 11.8888 45.0732 11.3828 44.9899C11.1151 44.9458 10.8376 44.9931 10.5683 44.949C10.5014 44.9376 10.4328 44.9196 10.3773 44.882C10.3088 44.8362 10.2647 44.7627 10.2255 44.6924C10.1407 44.5404 10.0639 44.3656 10.1145 44.2005C10.1782 43.9913 10.4149 43.8883 10.6271 43.8197C10.33 43.769 10.0003 43.8556 9.80442 44.0796C9.61018 44.3035 9.58733 44.6646 9.78646 44.8836C9.70485 44.918 9.60528 44.8836 9.53999 44.8232C9.4747 44.7627 9.43716 44.681 9.40125 44.6025C9.34249 44.7545 9.34902 44.931 9.42247 45.0781C9.43389 45.1026 9.44858 45.1272 9.44532 45.1533C9.43716 45.2154 9.35555 45.2285 9.29352 45.2465C9.19558 45.2759 9.1205 45.3494 9.05521 45.4246C8.76466 45.7695 8.62266 46.2156 8.58838 46.6585C8.55247 47.1014 8.61613 47.5476 8.69774 47.9856C8.74018 47.9954 8.78262 48.0101 8.82016 48.0314C8.82669 48.0346 8.83485 48.0395 8.84138 48.0428C8.96054 48.1115 9.05031 48.2259 9.07806 48.3566Z" fill="#36353D"/>
<path d="M11.9647 48.2197C11.9436 48.2879 11.9323 48.3609 11.9258 48.429L11.9647 48.2197Z" fill="#36353D"/>
<path d="M50.1831 45.9445H24.4456C24.0848 45.9445 23.791 45.6487 23.791 45.2892C23.791 44.928 24.0865 44.6338 24.4456 44.6338H50.1831C50.5439 44.6338 50.8377 44.9296 50.8377 45.2892C50.8377 45.6503 50.5422 45.9445 50.1831 45.9445Z" fill="#6CB7D8"/>
<path d="M32.5559 49.1955H19.9124C19.5516 49.1955 19.2578 48.8997 19.2578 48.5401C19.2578 48.1789 19.5533 47.8848 19.9124 47.8848H32.5559C32.9166 47.8848 33.2104 48.1806 33.2104 48.5401C33.2104 48.8997 32.915 49.1955 32.5559 49.1955Z" fill="#6CB7D8"/>
<path d="M50.1848 49.1955H37.5413C37.1805 49.1955 36.8867 48.8997 36.8867 48.5401C36.8867 48.1789 37.1822 47.8848 37.5413 47.8848H50.1848C50.5455 47.8848 50.8393 48.1806 50.8393 48.5401C50.8393 48.8997 50.5439 49.1955 50.1848 49.1955Z" fill="#6CB7D8"/>
<path d="M50.3857 54.6309H29.2854C28.9247 54.6309 28.6309 54.9267 28.6309 55.2862C28.6309 55.6474 28.9263 55.9416 29.2854 55.9416H50.3857C50.7464 55.9416 51.0403 55.6458 51.0403 55.2862C51.0419 54.9267 50.7464 54.6309 50.3857 54.6309Z" fill="#6CB7D8"/>
<path d="M50.3868 51.3818H20.012C19.6512 51.3818 19.3574 51.6777 19.3574 52.0372C19.3574 52.3984 19.6529 52.6926 20.012 52.6926H50.3868C50.7476 52.6926 51.0414 52.3968 51.0414 52.0372C51.043 51.676 50.7476 51.3818 50.3868 51.3818Z" fill="#6CB7D8"/>
<path d="M5.77713 65.834H37.0106C37.3452 65.834 37.6178 66.1069 37.6178 66.442C37.6178 66.777 37.3452 67.0499 37.0106 67.0499H5.77713C5.44251 67.0499 5.16992 66.777 5.16992 66.442C5.16992 66.1085 5.44414 65.834 5.77713 65.834Z" fill="#6CB7D8"/>
<path d="M5.77713 62.8242H50.436C50.7706 62.8242 51.0432 63.0972 51.0432 63.4322C51.0432 63.7672 50.7706 64.0402 50.436 64.0402H5.77713C5.44251 64.0402 5.16992 63.7672 5.16992 63.4322C5.16992 63.0972 5.44414 62.8242 5.77713 62.8242Z" fill="#6CB7D8"/>
<path d="M144.841 184.223C147.303 184.08 149.54 185.91 150.643 188.118C151.748 190.327 151.954 192.862 152.142 195.324C151.437 193.849 150.733 192.373 150.029 190.898C149.822 190.465 149.575 189.994 149.125 189.83C148.433 189.576 147.688 190.265 147.592 190.996C147.495 191.728 147.835 192.439 148.166 193.098C148.497 193.758 148.837 194.468 148.741 195.2C148.595 196.31 147.522 197.036 146.507 197.505C143.858 198.728 140.877 199.219 137.977 198.909C139.441 196.518 141.336 194.419 142.906 192.097C144.477 189.774 145.746 187.107 145.709 184.302L144.841 184.223Z" fill="black"/>
<path d="M129.956 104.442C127.669 119.113 128.636 134.283 132.767 148.543C134.862 155.773 137.751 162.751 139.952 169.949C142.154 177.147 143.672 184.696 142.91 192.186C142.796 193.307 142.867 194.804 143.956 195.092C145.276 195.441 145.975 193.587 146.057 192.223C146.957 177.2 147.775 161.622 142.3 147.606C140.666 143.421 138.474 139.389 137.736 134.956C137.218 131.839 137.443 128.653 137.536 125.494C137.698 119.968 137.451 114.43 136.797 108.941C136.505 106.498 135.707 103.562 133.325 102.958C131.284 102.441 129.347 104.005 127.875 105.512L129.956 104.442Z" fill="#FEA587"/>
<path d="M113.998 184.226C116.409 184.747 118.075 187.109 118.55 189.532C119.025 191.956 118.547 194.453 118.07 196.877C117.785 195.267 117.5 193.656 117.216 192.047C117.133 191.575 117.02 191.054 116.631 190.775C116.031 190.346 115.13 190.81 114.841 191.489C114.553 192.168 114.69 192.944 114.833 193.668C114.976 194.393 115.114 195.169 114.826 195.848C114.389 196.878 113.161 197.29 112.057 197.47C109.179 197.94 106.175 197.615 103.463 196.54C105.512 194.628 107.898 193.113 110.032 191.294C112.165 189.476 114.1 187.247 114.813 184.534L113.998 184.226Z" fill="black"/>
<path d="M120.953 103.364C114.833 116.888 111.714 131.765 111.888 146.612C111.976 154.14 112.897 161.636 113.097 169.162C113.297 176.688 112.744 184.368 110.01 191.381C109.601 192.432 109.27 193.893 110.242 194.462C111.421 195.151 112.59 193.552 113.033 192.259C117.911 178.024 122.858 163.232 121.325 148.261C120.867 143.79 119.831 139.319 120.304 134.85C120.637 131.707 121.705 128.698 122.638 125.679C124.27 120.398 125.51 114.995 126.345 109.531C126.716 107.099 126.731 104.056 124.597 102.837C122.768 101.792 120.484 102.78 118.664 103.839L120.953 103.364Z" fill="#FEA587"/>
<path d="M132.566 156.214C133.122 159.048 134.164 161.701 135.364 164.316C136.093 165.903 136.73 167.507 137.508 169.073C138.175 170.414 138.449 172.448 139.424 173.602C140.09 174.389 141.121 173.991 142 173.734C143.04 173.431 143.56 173.236 144.675 173.571C145.282 173.753 147.422 174.777 147.98 174.249C148.487 173.768 147.837 171.951 147.754 171.404C147.222 167.896 147.596 164.444 147.472 160.92C147.348 157.378 145.977 153.931 144.657 150.694C142.277 144.861 139.487 139.222 138.027 133.048C137.498 130.811 137.534 128.668 137.502 126.375C137.476 124.516 137.941 122.693 137.793 120.828C137.645 118.959 138.04 117.022 138.18 115.131C139.03 103.636 138.211 91.6312 133.403 81.3132C132.96 80.3626 132.437 78.714 131.496 78.1954C130.368 77.5735 127.808 77.8595 126.52 77.7907C123.123 77.61 119.715 77.6075 116.318 77.7834C115.236 77.8394 113.494 77.7481 112.533 78.3202C111.579 78.888 111.076 80.4119 110.543 81.4015C109.167 83.9575 107.851 86.5513 106.78 89.2522C105.584 92.2665 103.906 96.4956 104.464 99.771C105.288 104.606 105.083 109.416 105.644 114.208C106.294 119.765 106.585 125.345 107.369 130.895C108.454 138.574 109.991 146.083 111.859 153.58C112.708 156.989 112.359 160.339 112.157 163.824C112.048 165.714 111.598 168.371 112.15 170.187C112.744 172.145 114.535 170.948 116.335 171.538C117.448 171.904 119.063 173.652 120.156 172.803C121.271 171.937 121.034 168.137 121.065 166.895C121.136 163.999 121.167 161.09 121.406 158.184C121.734 154.187 122.684 150.259 122.908 146.241C123.172 141.515 122.639 136.834 122.914 132.108C123.059 129.615 121.975 126.95 122.376 124.58C121.841 130.107 123.67 136.085 125.722 141.3C126.694 143.767 127.638 146.302 129.435 148.304C131.615 150.732 131.94 153.022 132.566 156.214Z" fill="#3A77AE"/>
<path d="M82.7481 79.7064C81.5763 79.6066 80.4044 79.5062 79.2325 79.4064C77.6407 79.2706 75.9753 79.11 74.6387 78.2342C77.1094 77.8831 79.6161 77.7851 82.1069 77.9409C83.0976 78.0029 83.8416 78.0851 84.7752 77.7577C85.7884 77.4023 86.9129 77.5806 87.9668 77.5368C89.6195 77.468 91.2776 77.5307 92.9211 77.7236C93.7788 77.824 94.6601 77.9707 95.3876 78.4357C95.9371 78.7868 96.3997 79.4155 96.2562 80.0521C96.145 80.5438 95.7049 80.8937 95.2491 81.1086C94.6182 81.4062 93.9757 81.7305 93.2773 81.6892C92.5212 81.6441 91.7748 81.4847 91.0485 81.2753C89.8942 80.943 88.7509 80.5821 87.5942 80.2602C86.4607 79.9443 85.2621 79.9218 84.0835 79.8214C83.6386 79.7825 83.1937 79.7441 82.7481 79.7064Z" fill="#FEA587"/>
<path d="M108.811 71.7825C108.707 72.9693 108.611 74.1663 108.701 75.3567C108.818 76.891 109.411 77.9055 108.057 79.119C107.44 79.6728 106.665 80.0173 105.889 80.3064C102.549 81.5497 98.9607 81.924 95.4166 82.2885C94.9358 82.3378 94.407 82.3762 94.0113 82.098C93.5554 81.7785 93.4412 81.1633 93.3634 80.6119C93.2619 79.8895 93.1604 79.1671 93.0595 78.4453C93.0242 78.194 92.992 77.9225 93.1129 77.6992C93.2515 77.443 93.55 77.3243 93.8271 77.2348C95.9885 76.5392 98.3766 76.3938 100.278 75.151C101.573 74.3045 102.526 73.0088 103.198 71.6139C104.27 69.392 104.781 66.895 105.511 64.5477C106.901 60.0709 108.292 55.5935 109.681 51.1162C109.934 50.3037 110.164 49.4584 110.382 48.6252C110.493 48.201 110.603 47.7763 110.713 47.3515C110.811 46.9778 110.845 46.5999 110.95 46.2341C111.097 45.7217 111.32 45.233 111.606 44.7875C112.091 44.0341 112.711 43.5405 113.437 43.0664C113.184 43.4784 112.952 43.9056 112.745 44.3384C110.864 48.2327 110.455 52.6796 110.086 57.0121C109.66 61.9344 109.235 66.8609 108.811 71.7825Z" fill="#9EF7A0"/>
<path d="M137.647 41.3613C136.075 40.7248 134.497 40.1064 132.884 39.5788C132.252 39.3719 131.65 38.9812 130.983 39.0615C130.331 39.14 129.719 39.6476 129.169 39.9665C127.979 40.6572 126.544 40.9159 125.188 40.684C123.833 40.4521 122.526 39.2575 121.23 39.1437C120.269 39.0597 118.877 39.9713 118.028 40.3919C116.439 41.1782 114.925 42.1075 113.436 43.0678C113.183 43.4798 112.951 43.9071 112.744 44.3398C110.863 48.2341 110.454 52.681 110.085 57.0136C109.66 61.9352 109.236 66.8617 108.811 71.7827C108.619 73.9724 108.457 76.3027 109.442 78.2526C109.958 79.2744 110.913 80.0984 111.96 80.4733C113.257 79.7534 114.574 79.4777 115.963 79.0425C117.171 78.6646 118.34 77.9325 119.635 77.8917C121.59 77.8302 123.553 77.7018 125.502 77.7256C127.339 77.7475 129.155 77.7383 130.939 78.1278C132.416 78.4498 133.523 76.6149 134.211 75.5261C135.138 74.0601 135.778 72.4169 136.207 70.7402C136.84 68.2687 137.276 65.7541 137.687 63.2376C138.051 61.0053 138.76 58.5411 138.645 56.3076C138.518 53.8398 138.102 51.3379 137.93 48.8585C137.88 48.1112 137.982 41.4971 137.647 41.3613Z" fill="#9EF7A0"/>
<path d="M111.502 79.2894C115.569 78.0612 119.814 77.3017 124.149 77.0473C126.561 76.9061 129.001 76.9208 131.454 77.0997C131.827 77.1271 132.242 77.1788 132.481 77.4782C133.154 78.3241 132.005 79.0776 131.321 79.1147C130.716 79.1476 130.129 78.9126 129.547 78.7873C128.921 78.6522 128.279 78.5457 127.655 78.4446C122.886 77.6748 116.589 78.472 112.171 80.4524C111.868 80.5881 111.547 80.7268 111.211 80.7232C110.766 80.7183 110.162 80.3513 110.546 79.862C110.764 79.5851 111.179 79.3867 111.502 79.2894Z" fill="#303243"/>
<path opacity="0.4" d="M138.137 130.742C153.832 130.742 166.556 118.258 166.556 102.858C166.556 87.4585 153.832 74.9746 138.137 74.9746C122.442 74.9746 109.719 87.4585 109.719 102.858C109.719 118.258 122.442 130.742 138.137 130.742Z" fill="#F2F2F2"/>
<path d="M168.509 93.6746C163.21 76.807 145.194 67.4013 128.347 72.7076C111.501 78.0138 102.107 96.0529 107.407 112.92C112.172 128.085 127.216 137.216 142.446 135.05L161.109 194.452C161.893 196.946 164.547 198.332 167.038 197.547C169.529 196.763 170.913 194.105 170.13 191.611L151.512 132.353C165.84 125.665 173.38 109.176 168.509 93.6746ZM145.88 128.512C131.994 132.885 117.144 125.132 112.776 111.23C108.409 97.3273 116.152 82.4583 130.036 78.0844C143.922 73.7111 158.772 81.4633 163.14 95.3664C167.508 109.27 159.765 124.138 145.88 128.512Z" fill="#383838"/>
<path d="M135.913 72.9459C135.067 72.8838 134.216 72.8588 133.37 72.9185C132.977 72.9459 132.582 72.9775 132.213 73.0974C131.51 73.3262 130.692 72.9191 130.27 72.3519C130.196 72.2527 130.129 72.145 130.032 72.0689C129.819 71.9034 129.672 71.9892 129.631 72.2101C129.579 72.4943 129.467 72.7682 129.334 73.0244C129.275 73.1376 129.202 73.255 129.083 73.3001C128.965 73.3445 128.832 73.3049 128.717 73.2526C128.55 73.1765 128.389 73.0901 128.223 73.0128C128.204 73.0043 127.91 72.8661 127.967 72.8388C128.035 72.8059 128.103 72.7724 128.171 72.7396C128.082 72.5351 127.823 72.4736 127.6 72.4687C127.397 72.4645 127.182 72.4907 127.019 72.613C126.856 72.7359 126.772 72.98 126.882 73.1516C127.356 73.5654 127.84 73.9482 128.471 74.1022C128.575 74.1277 128.707 74.1764 128.706 74.2842C128.705 74.342 128.661 74.3925 128.608 74.4168C128.287 74.5665 127.732 74.3176 127.434 74.1947C126.98 74.0085 126.552 73.7474 126.122 73.5198C126.212 73.4516 126.303 73.3834 126.393 73.3147C126.232 73.171 126.029 73.0652 125.814 73.0572C125.599 73.0493 125.373 73.1534 125.271 73.3433C124.993 73.8581 125.91 74.2415 126.248 74.4406C126.771 74.7485 127.332 74.995 127.919 75.1502C128.096 75.197 128.305 75.2658 128.347 75.4429C128.388 75.617 128.22 75.7831 128.044 75.8099C127.868 75.836 127.693 75.7648 127.529 75.6949C126.579 75.2901 125.61 74.9286 124.649 74.5525C124.581 74.5264 124.509 74.4996 124.438 74.5148C124.299 74.5458 124.245 74.7321 124.301 74.8635C124.357 74.995 124.483 75.0796 124.605 75.1544C125.292 75.5744 126.036 75.8884 126.782 76.1848C127.047 76.29 127.287 76.3862 127.56 76.4629C127.701 76.5024 128.051 76.5816 128.034 76.7848C128.025 76.9011 127.924 76.993 127.814 77.0295C127.703 77.0654 127.583 77.0569 127.467 77.0465C127.082 77.0118 126.698 76.9631 126.316 76.8999C126.125 76.8682 125.935 76.8329 125.745 76.7946C125.669 76.7794 125.415 76.6467 125.361 76.6735C125.116 76.7952 125.425 77.0824 125.522 77.1524C125.734 77.3058 125.971 77.4238 126.217 77.5133C126.905 77.764 127.717 77.8949 128.446 77.904C129.404 77.9162 130.374 77.7488 131.251 77.3533C131.669 77.1646 132.014 76.8859 132.44 76.7008C132.901 76.5006 133.381 76.3454 133.874 76.2481C134.391 76.1458 134.898 76.1489 135.421 76.1312C135.875 76.116 136.209 75.9675 136.637 75.8774C137.758 75.6413 139.143 75.8805 140.289 75.9006C141.404 75.92 142.544 76.0113 143.658 75.959C144.368 75.9255 145.125 75.1429 144.327 74.5464C144.11 74.3852 143.845 74.3085 143.584 74.2379C141.668 73.7176 139.713 73.3451 137.741 73.123C137.136 73.056 136.526 72.9909 135.913 72.9459Z" fill="#FEA587"/>
<path d="M133.445 50.8162C132.84 48.0125 133.961 39.0778 138.654 41.9948C139.808 42.7117 140.597 43.8771 141.344 45.0134C146.769 53.2767 151.742 61.8383 156.233 70.6464C156.874 71.9043 157.513 73.3923 156.918 74.6722C156.32 75.9563 154.764 76.4194 153.387 76.7444C150.09 77.5216 146.794 78.2981 143.497 79.0753C142.386 79.337 141.208 79.5968 140.122 79.2451C138.944 78.8635 138.083 77.8046 137.632 76.6501C137.182 75.495 137.082 74.2382 136.986 73.0022C140.769 72.1952 144.552 71.3882 148.334 70.5813C145.656 67.6229 142.977 64.6646 140.299 61.7069C137.385 58.4887 134.361 55.0617 133.445 50.8162Z" fill="#9EF7A0"/>
</svg>
