<svg width="413" height="538" viewBox="0 0 413 538" fill="none" xmlns="http://www.w3.org/2000/svg">
<path d="M160.012 147.462C194.769 121.147 256.091 118.603 293.505 135.63C321.69 148.457 320.957 180.374 313.873 190.546C306.788 200.717 160.012 147.462 160.012 147.462Z" fill="#70BEFE"/>
<path d="M290.033 140.563L290.481 139.395C264.663 129.573 246.428 129.77 246.268 129.77L246.287 131.026C246.455 131.002 264.465 130.84 290.033 140.563Z" fill="#2F7CD8"/>
<path d="M106.991 514.635C106.127 529.956 230.884 550.313 302.498 526.576C302.57 517.621 302.678 509.781 302.965 503.702C303.073 501.257 303.18 498.883 303.252 496.581C303.432 492.228 303.577 488.13 303.684 484.388V484.209C304.261 470.794 304.693 462.09 304.693 461.118C304.838 438.352 281.649 448.207 280.39 429.935C280.39 429.863 280.39 429.863 280.39 429.756C279.958 427.129 279.129 424.433 278.123 421.627L130.287 416.735C130.287 416.735 128.054 420.188 125.245 425.69C122.94 429.861 120.348 435.149 117.829 440.939C116.46 444.139 114.515 452.628 112.607 465.359C112.355 466.978 112.103 468.632 111.851 470.358C110.951 476.22 110.015 482.838 109.151 490.067C108.25 497.588 107.458 505.788 106.991 514.635Z" fill="#9FBFFF"/>
<path d="M308.422 450.999C308.045 477.749 306.362 481.658 302.368 484.687C293.507 491.404 234.267 495.056 174.413 490.158C129.58 486.489 112.991 475.97 110.014 471.748C107.037 467.527 107.899 440.505 112.579 436.432C117.259 432.359 306.045 451.354 306.045 451.354L308.422 450.999Z" fill="#2F7CD8"/>
<path d="M106.126 440.054C105.876 454.74 142.807 465.568 196.751 469.327C246.981 472.785 303.784 470.782 314.623 454.391C317.282 450.331 319.34 445.469 320.846 440.005C326.366 420.006 325.011 391.686 323.504 363.114C322.55 344.769 321.497 326.273 322.15 309.732C324.308 256.55 329.977 176.051 314.973 165.174C249.288 117.808 135.58 145.726 129.61 164.522C120.577 192.842 118.42 270.635 117.668 319.054C117.568 326.421 117.316 333.539 116.966 340.407C116.164 356.446 114.808 371.033 113.353 383.813C112.7 389.427 111.999 394.689 111.346 399.602V399.653C111.146 401.256 110.894 402.861 110.693 404.414C108.282 421.357 106.275 433.538 106.126 440.054Z" fill="#70BEFE"/>
<path d="M251.956 142.779C251.956 142.779 253.944 170.201 199.573 179.146C199.573 179.146 177.593 151.744 189.066 142.779C200.537 133.812 251.956 142.779 251.956 142.779Z" fill="#EFE3CA"/>
<path d="M189.047 142.783C189.047 142.783 189.047 142.888 189.152 142.996C189.629 145.114 194.19 162.116 203.947 164.235C208.984 165.293 214.871 164.13 220.862 161.853L221.075 161.747C236.452 155.868 251.987 142.787 251.987 142.787C251.987 142.787 248.17 133.094 245.89 119.376C245.147 114.981 244.565 110.159 244.352 105.129C244.246 102.958 244.246 100.734 244.246 98.5096C244.246 97.0256 244.352 95.4907 244.459 94.0086C244.778 89.5058 245.413 84.9521 246.475 80.4492C246.793 79.3908 247.057 78.436 247.376 77.3249C247.376 77.3249 197.693 75.6827 199.232 91.0425C199.869 97.6114 198.33 107.197 196.423 115.988C195.627 119.854 194.673 123.51 193.825 126.792C193.295 128.7 192.712 130.764 192.075 132.83C190.533 137.964 189.047 142.783 189.047 142.783Z" fill="#FF9376"/>
<path d="M183.809 128.333C185.417 133.631 188.045 147.202 210.152 143.591C227.752 140.717 241.035 128.776 245.885 119.374C245.142 114.979 244.56 110.157 244.347 105.127C244.241 102.956 244.241 100.732 244.241 98.5076C244.241 97.0236 244.347 95.4888 244.454 94.0067C244.773 89.5038 245.408 84.9501 246.47 80.4472L244.931 78.0649L196.415 115.984C195.62 119.851 194.666 123.506 193.817 126.788C193.288 128.694 184.446 126.267 183.809 128.333Z" fill="#E55841"/>
<path d="M199.574 179.146C254.347 181.206 269.056 155.108 265.539 143.771C262.022 132.434 251.64 134.064 250.328 138.04C249.016 142.017 245.113 159.223 225.531 168.617C205.945 178.011 199.574 179.146 199.574 179.146Z" fill="#2F7CD8"/>
<path d="M191.054 136.196C176.521 134.492 174.273 150.516 177.825 160.648C181.379 170.781 199.573 179.146 199.573 179.146C199.573 179.146 186.655 163.315 186.335 149.846C186.237 145.722 189.067 142.779 189.067 142.779L191.054 136.196Z" fill="#2F7CD8"/>
<path d="M165.929 88.4003C165.964 88.6366 166.06 88.8631 166.097 89.0994C166.369 90.0855 166.707 91.1145 166.881 92.2432C169.68 110.347 176.122 124.691 181.339 129.953C190.451 139.145 197.758 143.921 212.369 135.407C221.601 130.028 228.123 126.415 233.585 115.947C241.926 99.9583 244.063 82.6477 244.063 82.6477L247.714 54.2927C247.714 54.2927 249.487 46.1051 247.099 36.8005C244.768 27.4862 238.272 17.0569 221.728 12.5091C200.059 6.50847 180.919 15.4713 171.354 33.2447C167.671 40.0303 165.44 47.9855 164.934 56.9464C164.86 58.0458 164.731 59.5767 164.537 61.4786C164.021 67.6003 163.364 77.5512 165.929 88.4003Z" fill="#FF9376"/>
<path d="M245.213 67.3351C242.998 73.1522 240.549 82.9 240.723 84.302C240.205 82.3181 239.479 37.1251 212.02 36.7775L226.687 32.7647C220.922 24.9071 238.873 30.0154 247.111 36.8224C250.045 45.8321 246.955 62.7639 245.213 67.3351Z" fill="#705959"/>
<path d="M237.303 71.7423C238.074 62.2386 248.356 57.4428 254.252 62.0296C260.148 66.6165 255.468 83.2534 244.321 88.5159C238.312 91.3531 236.015 87.6333 237.303 71.7423Z" fill="#FF9376"/>
<path d="M240.801 74.3784C242.674 62.92 250.544 63.3438 252.337 65.73C254.129 68.1161 250.569 68.9109 247.911 71.6642C245.252 74.4155 249.375 80.5743 245.594 81.8689C243.542 82.5719 240.121 78.5415 240.801 74.3784Z" fill="#E55841"/>
<path d="M194.294 68.4908C194.638 68.4908 194.963 68.278 195.082 67.9343C195.232 67.5008 195.002 67.0263 194.568 66.874C191.694 65.884 190.826 64.1539 190.789 64.0817C190.588 63.6716 190.095 63.5037 189.681 63.6911C189.27 63.8883 189.088 64.3746 189.284 64.7885C189.331 64.8862 190.443 67.2079 194.02 68.4498C194.11 68.4772 194.204 68.4908 194.294 68.4908Z" fill="#E0604F"/>
<path d="M202.971 83.1262C203.331 85.4753 204.92 87.1819 206.523 86.9378C208.126 86.6938 209.133 84.5907 208.775 82.2416C208.415 79.8925 206.826 78.1859 205.223 78.43C203.62 78.676 202.612 80.7771 202.971 83.1262Z" fill="#441817"/>
<path d="M175.887 87.3053C176.246 89.6543 177.836 91.361 179.439 91.1169C181.042 90.8728 182.048 88.7698 181.691 86.4207C181.331 84.0716 179.742 82.365 178.139 82.611C176.536 82.8551 175.529 84.9562 175.887 87.3053Z" fill="#441817"/>
<path d="M168.475 75.6417C168.889 75.6417 169.247 75.3371 169.304 74.9173C169.347 74.6029 170.453 67.2217 179.559 65.2632C180.01 65.1655 180.298 64.7184 180.2 64.2692C180.1 63.8221 179.676 63.5214 179.205 63.6288C168.915 65.8451 167.656 74.6107 167.646 74.7005C167.585 75.1535 167.906 75.5753 168.363 75.6339C168.401 75.6378 168.438 75.6417 168.475 75.6417Z" fill="#332525"/>
<path d="M207.589 73.2728C212.687 73.2728 215.686 71.8376 215.872 71.7439C216.286 71.5408 216.452 71.0429 216.249 70.6289C216.048 70.2188 215.551 70.045 215.133 70.2442C215.07 70.2735 208.805 73.2416 198.957 70.2501C198.509 70.1192 198.048 70.3633 197.911 70.8066C197.778 71.2498 198.028 71.7146 198.468 71.8513C201.973 72.9155 205.042 73.2728 207.589 73.2728Z" fill="#332525"/>
<path d="M187.342 117.086C187.342 117.086 188.894 125.058 195.04 126.119C195.462 126.197 195.924 126.218 196.385 126.24C200.864 126.22 203.348 123.24 204.623 120.93C205.387 119.474 205.69 118.302 205.69 118.302C205.563 117.867 205.346 117.498 205.127 117.129C204.607 116.201 203.858 115.416 203.028 114.748C199.266 111.895 192.89 111.841 188.966 115.326L188.917 115.336C188.435 115.777 187.96 116.267 187.553 116.847C187.465 116.912 187.432 117.019 187.342 117.086Z" fill="#932318"/>
<path d="M188.971 115.326C191.948 117.197 199.105 116.759 203.032 114.748C199.271 111.895 192.892 111.841 188.971 115.326Z" fill="white"/>
<path d="M111.344 399.603V399.653L111.395 399.903C152.693 397.248 189.876 370.681 189.876 370.681C189.876 370.681 276.085 435.392 320.846 440.004C326.366 420.004 325.011 391.685 323.504 363.113L187.818 322.061L144.162 310.833L116.964 340.407C116.162 356.446 114.806 371.033 113.351 383.813C112.698 389.429 111.997 394.692 111.344 399.603Z" fill="#41A0FC"/>
<path d="M206.722 306.789C206.722 306.789 206.278 282.685 196.871 278.374C192.59 276.411 178.939 280.475 178.939 280.475L184.032 289.984L191.781 301.041L206.722 306.789Z" fill="#FF9376"/>
<path d="M248.269 48.6497C245.538 48.4544 232.419 52.4301 232.419 52.4301C232.419 52.4301 223.245 59.4988 220.002 58.9442C216.759 58.3897 222.872 47.9643 222.872 47.9643C222.872 47.9643 203.923 53.9746 193.058 56.1011C182.193 58.2276 194.544 46.6364 194.544 46.6364C194.544 46.6364 194.223 47.3668 176.248 52.5316C158.276 57.6965 152.131 58.5478 151.34 55.3181C150.548 52.0883 162.733 40.8272 162.733 40.8272C162.733 40.8272 141.767 43.4497 161.374 26.2484C173.934 15.2294 199.064 -7.8455 230.988 4.56188C257.279 14.7783 251 48.8449 248.269 48.6497Z" fill="#332525"/>
<path d="M192.296 106.787C192.404 106.787 192.509 106.787 192.621 106.781C194.986 106.674 196.726 105.911 197.789 104.509C199.383 102.409 198.782 99.6991 198.755 99.5858C198.652 99.1386 198.208 98.8614 197.76 98.9609C197.312 99.0644 197.031 99.5077 197.133 99.9549C197.137 99.9744 197.58 102.04 196.454 103.513C195.706 104.493 194.39 105.034 192.548 105.118C191.346 105.165 190.443 104.848 189.763 104.126C188 102.261 187.554 97.7757 188.357 90.0059C188.404 89.549 188.074 89.1389 187.616 89.0921C187.081 89.0354 186.748 89.3791 186.701 89.8321C185.834 98.2345 186.404 102.993 188.553 105.266C189.505 106.278 190.764 106.787 192.296 106.787Z" fill="#E0604F"/>
<path d="M195.039 126.121C195.461 126.199 195.923 126.22 196.384 126.242C200.863 126.222 203.347 123.242 204.622 120.932C197.879 120.534 195.725 124.219 195.039 126.121Z" fill="#B53C37"/>
<path d="M188.408 71.4412C188.631 71.4412 188.856 71.3513 189.02 71.1736C189.335 70.8358 189.312 70.3086 188.973 69.9981C188.973 69.9942 188.027 69.0511 187.75 66.7274C187.689 66.2743 187.273 65.9658 186.821 65.999C186.364 66.0557 186.039 66.4696 186.094 66.9266C186.448 69.8595 187.705 71.0877 187.844 71.2186C188.004 71.367 188.209 71.4412 188.408 71.4412Z" fill="#E0604F"/>
<path d="M316.084 166.258C392.904 246.162 378.071 364.505 337.338 387.504C296.604 410.502 210.708 370.107 200.525 356.841C188.919 341.719 201.411 298.018 236.831 304.653C280.774 312.884 301.032 307.012 301.032 307.012C301.032 307.012 313.146 294.314 308.117 255.709C299.703 191.136 316.084 166.258 316.084 166.258Z" fill="#70BEFE"/>
<path d="M130.288 163.058C76.5643 225.382 55.8897 370.843 93.376 381.753C121.561 389.956 159.495 357.428 165.989 329.122C172.483 300.818 153.568 289.098 137.652 289.982C129.682 290.424 118.392 302.698 118.392 302.698C118.392 302.698 117.843 259.833 125.846 223.275C135.88 177.424 130.288 163.058 130.288 163.058Z" fill="#70BEFE"/>
<path d="M138.981 279.147C130.79 290.426 127.027 302.146 127.027 302.146C127.027 302.146 138.244 329.272 159.939 320.132C174.462 314.012 138.981 279.147 138.981 279.147Z" fill="#FF9376"/>
<path d="M149.385 257.843C137.799 270.743 133.52 288.434 133.52 288.434C133.52 288.434 133.557 292.193 144.072 306.346C154.337 320.161 165.102 320.94 165.102 320.94L167.094 297.28L147.612 277.819C147.612 277.819 148.349 269.784 151.229 264.182C153.232 260.286 149.385 257.843 149.385 257.843Z" fill="#FF9376"/>
<path d="M197.645 295.954L177.489 253.737C177.225 253.182 176.666 252.829 176.052 252.827L136.844 252.624C135.673 252.618 134.891 253.828 135.381 254.891L162.225 313.202L197.645 295.954Z" fill="#3C3C3D"/>
<path d="M206.17 301.039C206.17 301.039 202.997 290.656 196.54 293.447C193.809 294.626 183.701 299.933 176.395 296.175C169.09 292.416 160.676 278.926 155.586 276.935C150.493 274.945 161.785 296.616 167.319 303.028C172.853 309.441 164.304 315.309 170.861 325.805C176.616 335.019 189.383 333.84 196.247 337.82C203.11 341.799 209.972 344.748 209.972 344.748C213.749 348.165 233.587 325.73 223.845 313.79C223.844 313.792 210.044 306.567 206.17 301.039Z" fill="#FF9376"/>
<path d="M175.407 307.096C161.725 295.927 155.258 283.673 148.721 285.376C148.072 285.546 154.22 298.817 157.12 302.95C160.017 307.084 172.659 316.652 172.659 316.652L175.407 307.096Z" fill="#FF9376"/>
<path d="M171.908 312.877C158.578 303.37 152.37 292.829 145.911 294.389C145.27 294.544 153.404 305.256 156.205 308.804C159.006 312.35 169.08 321.2 169.08 321.2L171.908 312.877Z" fill="#FF9376"/>
<path d="M171.757 318.949C158.427 309.441 152.218 298.901 145.759 300.461C145.118 300.615 152.275 311.72 154.568 315.012C158.863 321.175 176.061 331.003 176.061 331.003L171.757 318.949Z" fill="#FF9376"/>
<path d="M167.418 302.115L168.106 301.066C168.045 301.027 162.143 297.092 160.136 291.188L158.947 291.588C161.096 297.915 167.16 301.945 167.418 302.115Z" fill="#E0604F"/>
<path d="M163.375 309.775L163.96 308.667C163.874 308.621 155.231 303.846 148.985 284.483L147.789 284.87C154.217 304.785 163.004 309.579 163.375 309.775Z" fill="#E0604F"/>
<path d="M160.979 317.029L161.7 316.008C161.583 315.924 149.777 307.482 146.669 296.338L145.459 296.672C148.692 308.256 160.478 316.678 160.979 317.029Z" fill="#E0604F"/>
<path d="M165.99 289.319C176.912 286.813 179.125 282.832 183.701 283.865C188.276 284.898 178.832 295.069 173.814 298.164C168.793 301.261 165.99 289.319 165.99 289.319Z" fill="#FF9376"/>
<path d="M176.033 296.471L176.533 295.323C174.502 294.433 171.052 291.58 168.505 288.682L167.562 289.51C169.816 292.074 173.55 295.384 176.033 296.471Z" fill="#E0604F"/>
<path d="M148.645 285.282L148.946 284.068C143.785 282.793 141.328 283.234 141.225 283.246L141.455 284.48C141.479 284.472 143.797 284.091 148.645 285.282Z" fill="#E0604F"/>
<path d="M136.65 253.877L136.637 255.132L174.934 255.538L174.948 254.282L136.65 253.877Z" fill="#7D7D8C"/>
<path d="M158.13 272.289C155.378 271.928 153.417 270.157 153.663 268.255C153.787 267.308 154.441 266.499 155.505 265.986C156.504 265.505 157.757 265.336 159.016 265.498C160.288 265.664 161.448 266.148 162.282 266.866C163.178 267.638 163.606 268.581 163.483 269.53C163.262 271.209 161.405 272.35 159.08 272.35C158.771 272.348 158.451 272.328 158.13 272.289ZM155.96 266.923C155.221 267.28 154.774 267.8 154.698 268.388C154.531 269.669 156.164 270.981 158.261 271.254C160.345 271.518 162.28 270.676 162.445 269.395C162.521 268.805 162.224 268.186 161.604 267.657C160.922 267.07 159.954 266.669 158.881 266.533C158.607 266.495 158.336 266.48 158.072 266.48C157.294 266.478 156.562 266.628 155.96 266.923Z" fill="#7D7D8C"/>
<path d="M184.557 273.953L185.499 273.506L180.85 263.775L179.908 264.223L184.557 273.953Z" fill="#7D7D8C"/>
<path d="M192.654 290.582L193.591 290.129L189.054 280.842L188.119 281.295L192.654 290.582Z" fill="#7D7D8C"/>
<path d="M157.68 319.919L158.362 318.87C147.968 312.122 145.47 304.575 145.446 304.499L144.25 304.875C144.35 305.201 146.875 312.911 157.68 319.919Z" fill="#E0604F"/>
<path d="M220.628 310.636C220.681 310.259 222.081 301.444 235.061 301.444C239.674 301.444 249.003 302.993 258.881 304.635C284.388 308.876 302.544 311.436 303.858 305.826C310.002 279.524 308.245 253.174 306.698 229.929C305.138 206.546 303.795 186.357 311.312 173.762L310.237 173.122C302.517 186.05 303.876 206.423 305.445 230.013C306.988 253.17 308.739 279.42 302.636 305.539C301.495 310.444 276.985 306.373 259.088 303.397C248.725 301.679 239.778 300.191 235.061 300.191C220.953 300.191 219.398 310.362 219.387 310.466L220.628 310.636Z" fill="#2F7CD8"/>
<path d="M336.59 330.774L337.792 330.425C337.726 330.184 330.563 306.688 303.281 305.059L303.207 306.307C329.615 307.885 336.524 330.544 336.59 330.774Z" fill="#2F7CD8"/>
<path d="M342.152 312.243L342.854 311.208C334.442 305.504 320.764 309.48 320.184 309.654L320.545 310.855C320.676 310.818 334.233 306.887 342.152 312.243Z" fill="#2F7CD8"/>
<path d="M224.352 314.159C224.38 314.126 226.972 310.667 233.382 309.693L233.194 308.451C226.225 309.513 223.449 313.266 223.336 313.423L224.352 314.159Z" fill="#2F7CD8"/>
<path d="M207.814 354.661L208.88 354.001C208.77 353.826 206.254 349.616 210.426 345.181L209.511 344.32C204.663 349.479 207.781 354.611 207.814 354.661Z" fill="#2F7CD8"/>
<path d="M99.3895 300.56C99.5733 300.343 117.994 279.063 134.231 285.23L134.679 284.062C117.611 277.554 99.2116 298.838 98.4336 299.746L99.3895 300.56Z" fill="#2F7CD8"/>
<path d="M114.187 288.102L114.776 286.995C114.451 286.821 106.761 282.806 98.7734 283.607L98.9005 284.855C106.534 284.058 114.111 288.063 114.187 288.102Z" fill="#2F7CD8"/>
<path d="M119.995 285.282C124.051 280.104 124.956 260.163 126.004 237.07C127.06 213.921 128.252 187.681 132.94 172.3L131.738 171.933C127.007 187.466 125.809 213.79 124.753 237.014C123.758 258.939 122.816 279.649 119.008 284.507L119.995 285.282Z" fill="#2F7CD8"/>
<path d="M126.484 302.456L127.573 301.835C127.469 301.655 125.004 297.453 118.61 295.932L118.322 297.155C124.187 298.549 126.458 302.419 126.484 302.456Z" fill="#2F7CD8"/>
<path d="M202.077 473.656C232.692 473.656 260.762 463.95 282.692 445.477L281.882 444.516C255.273 466.935 219.499 476.316 181.127 470.913C140.079 465.137 127.066 435.542 126.939 435.245L125.783 435.733C125.914 436.036 139.17 466.275 180.953 472.155C188.096 473.159 195.155 473.656 202.077 473.656Z" fill="#2F7CD8"/>
<path d="M294.374 467.966C294.679 467.562 301.877 457.997 302.027 451.093L300.77 451.065C300.629 457.562 293.443 467.115 293.371 467.21L294.374 467.966Z" fill="#2F7CD8"/>
<path d="M314.763 166.672L315.631 165.772C293.754 144.652 265.114 139.706 264.826 139.659L264.619 140.893C264.905 140.94 293.176 145.829 314.763 166.672Z" fill="#2F7CD8"/>
<path d="M163.541 146.889C163.598 146.87 169.328 144.855 176.748 143.937L176.594 142.695C169.031 143.628 163.178 145.688 163.121 145.708L163.541 146.889Z" fill="#2F7CD8"/>
<path d="M220.891 240.156C221.569 240.156 222.126 239.615 222.144 238.935C222.234 235.612 221.249 231.23 220.113 226.161C217.247 213.396 213.322 195.914 222.017 178.123C222.322 177.498 222.064 176.752 221.442 176.447C220.828 176.145 220.072 176.401 219.765 177.022C210.679 195.603 214.718 213.584 217.664 226.708C218.766 231.617 219.718 235.854 219.638 238.869C219.618 239.56 220.166 240.136 220.858 240.154C220.868 240.152 220.879 240.156 220.891 240.156Z" fill="#2F7CD8"/>
<path d="M180.009 237.205C180.55 237.205 181.051 236.852 181.211 236.307C181.318 235.944 192.031 199.542 191.149 173.106C191.13 172.415 190.707 171.872 189.853 171.897C189.161 171.921 188.62 172.499 188.643 173.192C189.513 199.215 178.912 235.233 178.804 235.592C178.607 236.256 178.984 236.953 179.649 237.15C179.77 237.187 179.891 237.205 180.009 237.205Z" fill="#2F7CD8"/>
<path d="M214.842 230.57C214.842 233.745 217.021 236.321 219.711 236.321C222.401 236.321 224.581 233.747 224.581 230.57C224.581 227.395 222.401 224.821 219.711 224.821C217.021 224.821 214.842 227.395 214.842 230.57Z" fill="#3C3C3D"/>
<path d="M176.786 226.637C175.95 229.701 177.377 232.757 179.971 233.464C182.565 234.171 185.347 232.259 186.183 229.197C187.02 226.134 185.593 223.078 182.999 222.371C180.405 221.664 177.623 223.574 176.786 226.637Z" fill="#3C3C3D"/>
<path d="M198.24 537.585L184.38 509.894L182.134 511.015L193.019 532.76C183.497 528.636 154.61 515.11 143.117 498.25L141.045 499.658C155.266 520.524 193.572 535.749 195.196 536.386L198.24 537.585Z" fill="#6696E2"/>
<path d="M301.87 512.935L302.851 510.625C275.102 498.867 272.604 491.203 272.584 491.125L270.143 491.707C270.338 492.588 272.891 500.654 301.87 512.935Z" fill="#6696E2"/>
<path d="M244.406 34.2017C242.727 35.2053 241.165 36.2891 239.525 37.2615C237.885 38.2281 236.284 39.2376 234.622 40.1574L224.635 45.8104C226.566 45.4862 228.415 44.8672 230.228 44.1662C232.048 43.4769 233.782 42.5904 235.476 41.6355C238.827 39.6809 241.984 37.2654 244.406 34.2017Z" fill="#705959"/>
<path d="M227.803 23.6494C224.605 24.657 221.563 26.1 218.601 27.668C215.634 29.2302 212.817 31.0481 210.039 32.9091C207.289 34.8129 204.601 36.8027 202.03 38.937C199.454 41.0635 196.928 43.2544 194.6 45.6601C205.682 38.1872 216.183 30.1987 227.803 23.6494Z" fill="#705959"/>
<path d="M180.564 30.1323C179.029 30.8997 177.616 31.7863 176.175 32.6279L171.916 35.2171C169.105 36.9882 166.295 38.7222 163.51 40.6846C165.193 40.339 166.778 39.722 168.332 39.0424C169.892 38.3727 171.374 37.5486 172.819 36.668C175.673 34.8559 178.369 32.7509 180.564 30.1323Z" fill="#705959"/>
<path d="M209.09 9.32666C204.114 9.35205 199.128 10.6818 194.639 12.9001C192.393 14.0151 190.239 15.3234 188.282 16.8855C186.317 18.4281 184.462 20.1328 182.98 22.1422C186.941 19.1584 191.038 16.5536 195.398 14.431C197.558 13.3394 199.792 12.3982 202.072 11.5547C204.343 10.6643 206.703 10.057 209.09 9.32666Z" fill="#705959"/>
<path d="M407.928 53.4453H297.557C295.022 53.4453 292.969 55.4988 292.969 58.0338V89.754C292.969 92.289 295.022 94.3425 297.557 94.3425H309.486V103.781L326.945 94.3425H407.928C410.463 94.3425 412.516 92.289 412.516 89.754V58.0338C412.516 55.4988 410.46 53.4453 407.928 53.4453Z" fill="#6690FF"/>
<path d="M397.047 66.3921H307.387V68.5522H397.047V66.3921Z" fill="white"/>
<path d="M397.047 77.4023H307.387V79.5624H397.047V77.4023Z" fill="white"/>
<path d="M167.678 150.047H63.8159C61.4304 150.047 59.498 151.98 59.498 154.365V184.215C59.498 186.6 61.4304 188.533 63.8159 188.533H127.859L143.376 196.919V188.533H167.674C170.06 188.533 171.992 186.6 171.992 184.215V154.365C171.996 151.98 170.06 150.047 167.678 150.047Z" fill="#54DC6E"/>
<path d="M157.565 162.723H73.1914V164.755H157.565V162.723Z" fill="white"/>
<path d="M117.228 173.083H73.1914V175.116H117.228V173.083Z" fill="white"/>
<path d="M51.574 140.649L50.1367 142.086L56.6779 148.628L58.1152 147.19L51.574 140.649Z" fill="#54DC6E"/>
<path d="M61.4214 136H59.3887V145.251H61.4214V136Z" fill="#54DC6E"/>
<path d="M54.8249 149.814H45.5742V151.847H54.8249V149.814Z" fill="#54DC6E"/>
<path d="M162.169 383.655C162.169 383.655 295.585 389.277 296.989 390.67C296.989 390.67 297.134 393.169 294.178 393.139L206.336 392.253C203.38 392.224 199.846 391.071 198.444 389.679L79.9716 375.402C78.5676 374.009 55.2557 433.844 55.2556 324.571L132.828 378.831C135.783 378.859 160.765 382.261 162.169 383.655Z" fill="#221F22"/>
<path d="M4.29936 249.5H185.641C188.329 249.5 190.904 251.679 191.392 254.367L193.583 266.405L215.619 387.514C216.107 390.202 214.325 392.38 211.637 392.38H30.2971C27.609 392.38 25.0342 390.202 24.5459 387.514L2.50984 266.405L0.319253 254.367C-0.170606 251.679 1.61279 249.5 4.29936 249.5Z" fill="#352E35"/>
<path d="M211.711 381.518C213.507 380.447 210.663 382.786 211.906 381.608H212.534L212.219 381.412C210.73 382.823 214.047 381.755 212.094 381.126C210.14 380.497 208.744 378.917 208.36 376.902L187.06 259.174C186.474 256.098 183.778 253.87 180.652 253.87H0.318359V254.866H180.652C183.301 254.866 185.583 256.755 186.081 259.356L207.382 377.085C207.837 379.468 209.484 381.333 211.789 382.075C212.463 382.292 211.034 381.518 211.711 381.518Z" fill="white"/>
<path d="M112.873 331.719C116.578 327.662 115.637 320.771 110.772 316.327C105.906 311.884 98.9583 311.571 95.2534 315.628C91.5484 319.686 92.4893 326.577 97.3549 331.02C102.22 335.463 109.168 335.776 112.873 331.719Z" fill="#F3F3F3"/>
<path d="M212.471 381.477C212.471 381.757 212.23 382.113 211.95 382.113C211.669 382.113 211.441 381.886 211.441 381.605C211.441 381.324 211.55 381.125 211.831 381.125C212.111 381.125 212.471 381.196 212.471 381.477Z" fill="white"/>
</svg>
