<?xml version="1.0" encoding="UTF-8" standalone="no"?>
<!-- Created with Inkscape (http://www.inkscape.org/) -->

<svg
   width="118.6571mm"
   height="118.65718mm"
   viewBox="0 0 118.6571 118.65718"
   version="1.1"
   id="svg580"
   xml:space="preserve"
   inkscape:version="1.2.2 (732a01da63, 2022-12-09)"
   sodipodi:docname="browser-images.svg"
   xmlns:inkscape="http://www.inkscape.org/namespaces/inkscape"
   xmlns:sodipodi="http://sodipodi.sourceforge.net/DTD/sodipodi-0.dtd"
   xmlns="http://www.w3.org/2000/svg"
   xmlns:svg="http://www.w3.org/2000/svg"><sodipodi:namedview
     id="namedview582"
     pagecolor="#505050"
     bordercolor="#eeeeee"
     borderopacity="1"
     inkscape:showpageshadow="0"
     inkscape:pageopacity="0"
     inkscape:pagecheckerboard="0"
     inkscape:deskcolor="#505050"
     inkscape:document-units="mm"
     showgrid="false"
     inkscape:zoom="0.1767767"
     inkscape:cx="-7099.352"
     inkscape:cy="-2316.4818"
     inkscape:window-width="1920"
     inkscape:window-height="1001"
     inkscape:window-x="-9"
     inkscape:window-y="-9"
     inkscape:window-maximized="1"
     inkscape:current-layer="g16540" /><defs
     id="defs577" /><g
     inkscape:groupmode="layer"
     id="layer5"
     inkscape:label="logos"
     transform="translate(1755.8368,324.97024)"><g
       style="fill:#000000;fill-opacity:1;stroke:none;stroke-width:1.3417;stroke-dasharray:none;stroke-opacity:1"
       id="g1826-09-3-6-7-0-2"
       transform="matrix(6.5920795,0,0,6.5920795,-1762.4291,-331.56246)"
       inkscape:export-filename="..\..\project\responser-landing\img\g1826-09-3-6-7-0-2.svg"
       inkscape:export-xdpi="32.109329"
       inkscape:export-ydpi="32.109329"><path
         id="path1817-7-9-6-3-5-3"
         style="fill:#000000;fill-opacity:1;stroke:none;stroke-width:1.3417;stroke-dasharray:none;stroke-opacity:1"
         d="m 10.000026,1.0000215 c -4.9705549,0 -9.0000088,4.029454 -9.0000088,9.0000095 0,1.197098 0.2337398,2.339649 0.6580594,3.384448 0.08121,0.199999 0.1218276,0.300047 0.1399475,0.380847 0.01772,0.079 0.024199,0.137463 0.024209,0.218563 10e-6,0.0828 -0.01504,0.173019 -0.04511,0.353519 L 1.184139,17.895184 c -0.0621,0.372599 -0.093157,0.558923 -0.035377,0.693623 0.05057,0.1179 0.1445252,0.211863 0.2624251,0.262363 0.1347099,0.0578 0.3209814,0.02685 0.693561,-0.03525 l 3.5579008,-0.593046 c 0.1804398,-0.0301 0.2706267,-0.04505 0.3534566,-0.04505 0.08102,0 0.1395653,0.0064 0.2186252,0.02415 0.08082,0.0181 0.1808149,0.05875 0.3807847,0.139948 1.044809,0.424399 2.1873717,0.658059 3.3845106,0.658059 4.970595,0 8.999947,-4.029351 8.999947,-8.999946 0,-4.9705555 -4.029352,-9.0000095 -8.999947,-9.0000095 z m 0.950371,3.7791465 c 0.06545,5.588e-4 0.129751,0.022608 0.182125,0.063641 0.08025,0.062876 0.116214,0.2101163 0.188053,0.5046974 l 0.681394,2.7946467 c 0.02118,0.086954 0.03181,0.1304998 0.05341,0.1673381 0.01919,0.032629 0.04457,0.061298 0.07475,0.08448 0.03406,0.026168 0.07644,0.042548 0.161036,0.075246 L 15.01131,9.52054 c 0.286392,0.1106949 0.429658,0.1660157 0.481862,0.2529414 0.04536,0.075605 0.05389,0.1671538 0.02309,0.2490726 -0.03543,0.09416 -0.166258,0.172227 -0.427954,0.328313 l -2.483118,1.480961 c -0.07745,0.04614 -0.116151,0.06926 -0.144876,0.100702 -0.02552,0.02777 -0.04518,0.06032 -0.05803,0.09565 -0.01453,0.03989 -0.01694,0.0845 -0.02171,0.173702 l -0.152988,2.863279 c -0.01608,0.302011 -0.02416,0.453078 -0.09153,0.528282 -0.05866,0.0654 -0.14433,0.101027 -0.233225,0.09696 -0.102066,-0.0047 -0.218924,-0.103739 -0.452537,-0.301858 L 9.2344011,13.509577 c -0.069031,-0.05847 -0.1035467,-0.08776 -0.1430048,-0.105257 -0.034904,-0.01543 -0.072486,-0.02409 -0.1106229,-0.02546 -0.043131,-0.0015 -0.08694,0.0098 -0.1746381,0.03219 l -2.8140509,0.7222 C 5.6953999,14.209416 5.5470532,14.247485 5.4531333,14.207069 5.3714219,14.1719 5.3099041,14.102402 5.2857327,14.017955 5.2579571,13.92087 5.3166816,13.78148 5.4341034,13.502776 L 6.54732,10.860368 c 0.034688,-0.08233 0.052085,-0.123555 0.056466,-0.165778 0.00388,-0.0374 3.5e-4,-0.07525 -0.01042,-0.111372 -0.012162,-0.04085 -0.036882,-0.07859 -0.086352,-0.153923 L 4.9203591,8.0123754 C 4.7531299,7.7576434 4.6695362,7.6303107 4.6788356,7.5301396 c 0.00809,-0.087144 0.055644,-0.1657651 0.129528,-0.2139457 0.084911,-0.055391 0.2379765,-0.042649 0.5440049,-0.017096 l 2.9061431,0.2426465 c 0.090379,0.00754 0.1355923,0.011336 0.1776954,0.00268 0.037271,-0.00767 0.072652,-0.022387 0.1041339,-0.043363 0.035563,-0.023691 0.064045,-0.058196 0.1211049,-0.1271571 L 10.495302,5.157769 c 0.193306,-0.2336016 0.289935,-0.3504371 0.389645,-0.3719249 0.02168,-0.00468 0.04363,-0.00686 0.06545,-0.00668 z" /></g></g></svg>
