<svg width="20" height="21" viewBox="0 0 20 21" fill="none" xmlns="http://www.w3.org/2000/svg">
<path d="M19 7.5H1M1 6.3L1 14.7C1 16.3802 1 17.2202 1.29428 17.862C1.55314 18.4265 1.96619 18.8854 2.47423 19.173C3.05179 19.5 3.80786 19.5 5.32 19.5H14.68C16.1921 19.5 16.9482 19.5 17.5258 19.173C18.0338 18.8854 18.4469 18.4265 18.7057 17.862C19 17.2202 19 16.3802 19 14.7V6.3C19 4.61984 19 3.77977 18.7057 3.13803C18.4469 2.57354 18.0338 2.1146 17.5258 1.82698C16.9482 1.5 16.1921 1.5 14.68 1.5L5.32 1.5C3.80786 1.5 3.05179 1.5 2.47423 1.82698C1.96619 2.1146 1.55314 2.57354 1.29428 3.13803C1 3.77976 1 4.61984 1 6.3Z" stroke="#555770" stroke-width="2" stroke-linecap="round" stroke-linejoin="round"/>
</svg>
