<svg width="20" height="21" viewBox="0 0 20 21" fill="none" xmlns="http://www.w3.org/2000/svg">
<path d="M1 10.5H19M1 10.5C1 15.4706 5.02944 19.5 10 19.5M1 10.5C1 5.52944 5.02944 1.5 10 1.5M19 10.5C19 15.4706 14.9706 19.5 10 19.5M19 10.5C19 5.52944 14.9706 1.5 10 1.5M10 1.5C12.2512 3.96452 13.5305 7.16283 13.6 10.5C13.5305 13.8372 12.2512 17.0355 10 19.5M10 1.5C7.74885 3.96452 6.46952 7.16283 6.4 10.5C6.46952 13.8372 7.74885 17.0355 10 19.5" stroke="#555770" stroke-width="2" stroke-linecap="round" stroke-linejoin="round"/>
</svg>
