<svg width="12.666681" height="12.666704" viewBox="0 0 12.666681 12.666704" fill="none" version="1.1" id="svg4" xmlns="http://www.w3.org/2000/svg">
  <path fill-rule="evenodd" clip-rule="evenodd" d="m 2.242641,2.911044 c 0.97834,-1.16817 2.44776,-1.91104 4.09069,-1.91104 1.90448,0 3.57585,0.99822 4.51935,2.5 h -4.51674 l -0.00969,9e-5 c -1.22503,0.003 -2.26737,0.78345 -2.65972,1.87406 z m -0.62175,0.92256 c -0.39633,0.74561 -0.62089,1.59645 -0.62089,2.49973 0,2.63275 1.90764,4.81997 4.41609,5.25477 l 1.42261,-2.46629 c -0.16398,0.02952 -0.33286,0.04494 -0.50535,0.04494 -1.10954,0 -2.07013,-0.63778 -2.53515,-1.56674 z m 3.96522,8.7894 c 0.02533,0.0049 0.05084,0.0077 0.07629,0.0085 0.22047,0.0233 0.44431,0.0352 0.67093,0.0352 3.49785,0 6.33335,-2.8356 6.33335,-6.33337 0,-0.8784 -0.1788,-1.71504 -0.5021,-2.47549 -0.0118,-0.03979 -0.0283,-0.07751 -0.0491,-0.11249 C 11.125881,1.537774 8.909201,0 6.333331,0 2.835531,0 0,2.835534 0,6.333334 c 0,3.24497 2.440461,5.91997 5.586111,6.28967 z m 5.75707,-8.123 c 0.2093,0.57167 0.3235,1.18916 0.3235,1.83333 0,2.88062 -2.2838,5.22787 -5.13949,5.32987 l 2.19665,-3.80815 c 0.28038,-0.43956 0.44284,-0.96162 0.44284,-1.52164 0,-0.6992 -0.25327,-1.33926 -0.67307,-1.83341 z m -6.56456,2.80543 c -0.00796,-0.01874 -0.01715,-0.03719 -0.0276,-0.05527 l -0.06886,-0.11912 c -0.11671,-0.24115 -0.18214,-0.51175 -0.18214,-0.79763 0,-1.01252 0.82081,-1.83333 1.83333,-1.83333 1.01253,0 1.83334,0.82081 1.83334,1.83333 0,0.31787 -0.0809,0.61685 -0.22323,0.87747 -0.00892,0.0126 -0.01733,0.02573 -0.0252,0.03937 l -0.04723,0.08189 c -0.32699,0.50241 -0.89354,0.83461 -1.53768,0.83461 -0.65548,0 -1.23062,-0.344 -1.55473,-0.86132 z" fill="#000000" fill-opacity="0.6" id="path2" />
</svg>
