<svg width="12.73744" height="12.73775" viewBox="0 0 12.73744 12.73775" fill="none" version="1.1" id="svg13" xmlns="http://www.w3.org/2000/svg">
  <g clip-path="url(#clip0_1070_26283)" id="g6" transform="translate(-1.41016,-1.01465)">
    <path d="M 7.16016,2.75244 H 3.07682 c -0.30942,0 -0.60616,0.12292 -0.82496,0.34171 -0.21879,0.21879 -0.3417,0.51554 -0.3417,0.82496 v 8.16669 c 0,0.3094 0.12291,0.6061 0.3417,0.8249 0.2188,0.2188 0.51554,0.3417 0.82496,0.3417 h 8.16668 c 0.3094,0 0.6062,-0.1229 0.8249,-0.3417 0.2188,-0.2188 0.3418,-0.5155 0.3418,-0.8249 V 8.00244" stroke="#000000" stroke-opacity="0.6" stroke-linecap="round" stroke-linejoin="round" id="path2" />
    <path d="m 11.5352,1.87709 c 0.232,-0.23207 0.5468,-0.36244 0.875,-0.36244 0.3281,0 0.6429,0.13037 0.875,0.36244 0.232,0.23206 0.3624,0.54681 0.3624,0.875 0,0.32818 -0.1304,0.64293 -0.3624,0.875 L 7.74349,9.16875 5.41016,9.75209 5.99349,7.41875 Z" stroke="#000000" stroke-opacity="0.6" stroke-linecap="round" stroke-linejoin="round" id="path4" />
  </g>
    <clipPath id="clip0_1070_26283">
      <rect width="14" height="14" fill="#ffffff" transform="translate(0.744141,0.418945)" id="rect8" x="0" y="0" />
    </clipPath>
</svg>
