<?xml version="1.0" encoding="UTF-8" standalone="no"?>
<svg
   viewBox="0 0 26 26"
   width="26"
   height="26"
   version="1.1"
   id="svg951"
   xmlns="http://www.w3.org/2000/svg"
   xmlns:svg="http://www.w3.org/2000/svg">
  <defs
     id="defs955" />
  <path
     d="M 0.4,26 H 5.8 V 8.6 H 0.4 Z M 3.1,0 C 1.4,0 0,1.4 0,3.1 0,4.8 1.4,6.2 3.1,6.2 4.8,6.2 6.2,4.8 6.2,3.1 6.2,1.4 4.8,0 3.1,0 Z m 16.4,8.2 c -2.6,0 -4.4,1.4 -5.1,2.8 H 14.3 V 8.6 H 9.1 V 26 h 5.4 v -8.6 c 0,-2.3 0.4,-4.5 3.2,-4.5 2.8,0 2.8,2.6 2.8,4.6 V 26 H 26 V 16.5 C 26,11.8 25,8.2 19.5,8.2 Z"
     fill="#ffffff"
     id="path949" />
</svg>
