<svg width="17" height="16" viewBox="0 0 17 16" fill="none" xmlns="http://www.w3.org/2000/svg">
<path d="M8.07321 1.623C8.2505 1.26982 8.33911 1.09324 8.45948 1.03682C8.56417 0.987728 8.68585 0.987728 8.79053 1.03682C8.91083 1.09324 8.99951 1.26982 9.17681 1.623L10.8587 4.9736C10.911 5.07786 10.9372 5.13 10.9754 5.17048C11.0093 5.20632 11.0499 5.23535 11.095 5.25598C11.1459 5.27927 11.2045 5.28768 11.3215 5.3045L15.0837 5.84524C15.4798 5.90218 15.6779 5.93065 15.7696 6.02581C15.8493 6.10859 15.8869 6.22235 15.8717 6.3354C15.8542 6.46535 15.7108 6.60271 15.424 6.87741L12.7027 9.48382C12.6178 9.56505 12.5754 9.60574 12.5481 9.65407C12.5238 9.6968 12.5083 9.74385 12.5023 9.79248C12.4955 9.84739 12.5055 9.9048 12.5255 10.0195L13.1676 13.701C13.2354 14.0893 13.2692 14.2835 13.2056 14.3987C13.1502 14.4989 13.0518 14.5692 12.9377 14.59C12.8067 14.6139 12.6294 14.5222 12.2748 14.3388L8.91137 12.5995C8.80661 12.5454 8.75423 12.5183 8.699 12.5076C8.65016 12.4982 8.59985 12.4982 8.55101 12.5076C8.49579 12.5183 8.44341 12.5454 8.33857 12.5995L4.97523 14.3388C4.62064 14.5222 4.44335 14.6139 4.31225 14.59C4.19819 14.5692 4.09977 14.4989 4.0444 14.3987C3.98076 14.2835 4.01462 14.0893 4.08235 13.701L4.72446 10.0195C4.74447 9.9048 4.75448 9.84739 4.74771 9.79248C4.74171 9.74385 4.72617 9.6968 4.70194 9.65407C4.67456 9.60574 4.63215 9.56505 4.54731 9.48382L1.82599 6.87741C1.53917 6.60271 1.39576 6.46535 1.37831 6.3354C1.36313 6.22235 1.40063 6.10859 1.4804 6.02581C1.57207 5.93065 1.77016 5.90218 2.16633 5.84524L5.92853 5.3045C6.04553 5.28768 6.10403 5.27927 6.15498 5.25598C6.20008 5.23535 6.24069 5.20632 6.27455 5.17048C6.3128 5.13 6.33897 5.07786 6.3913 4.9736L8.07321 1.623Z" stroke="#6690FF" stroke-linecap="round" stroke-linejoin="round"/>
</svg>
