<?xml version="1.0" encoding="UTF-8" standalone="no"?>
<svg
   viewBox="0 0 100 100"
   fill="none"
   shape-rendering="auto"
   version="1.1"
   id="svg27"
   width="100"
   height="100"
   xmlns="http://www.w3.org/2000/svg"
   xmlns:svg="http://www.w3.org/2000/svg"
   xmlns:rdf="http://www.w3.org/1999/02/22-rdf-syntax-ns#"
   xmlns:dc="http://purl.org/dc/elements/1.1/"
   xmlns:xsi="http://www.w3.org/2001/XMLSchema-instance"
   xmlns:dcterms="http://purl.org/dc/terms/">
  <defs
     id="defs31" />
  <metadata
     id="metadata2">
    <rdf:RDF>
      <rdf:Description>
        <dc:title>Thumbs</dc:title>
        <dc:creator>DiceBear</dc:creator>
        <dc:source
           xsi:type="dcterms:URI">https://www.dicebear.com</dc:source>
        <dcterms:license
           xsi:type="dcterms:URI">https://creativecommons.org/publicdomain/zero/1.0/</dcterms:license>
        <dc:rights>„Thumbs” (https://www.dicebear.com) by „DiceBear”, licensed under „CC0 1.0” (https://creativecommons.org/publicdomain/zero/1.0/)</dc:rights>
      </rdf:Description>
    </rdf:RDF>
  </metadata>
  <mask
     id="viewboxMask">
    <rect
       width="100"
       height="100"
       rx="0"
       ry="0"
       x="0"
       y="0"
       fill="#ffffff"
       id="rect4" />
  </mask>
  <g
     mask="url(#viewboxMask)"
     id="g25">
    <rect
       fill="#0a5b83"
       width="100"
       height="100"
       x="0"
       y="0"
       id="rect7"
       style="fill:#d6deee;fill-opacity:1" />
    <g
       transform="rotate(19,55.487882,84.439411)"
       id="g23">
      <path
         d="M 95,53.33 C 95,29.4 74.85,10 50,10 25.15,10 5,29.4 5,53.33 V 140 h 90 z"
         fill="#1c799f"
         id="path9"
         style="fill:#4f75c5;fill-opacity:1" />
      <g
         transform="translate(29,33)"
         id="g21">
        <g
           transform="rotate(18,10.872497,38.784379)"
           id="g19">
          <g
             transform="translate(0,4)"
             id="g13">
            <path
               d="M 7.5,10 C 3.62,10 0.39,5.77 1.1,5.15 c 0.71,-0.62 2.63,1.3 6.4,1.3 3.77,0 5.69,-2 6.4,-1.3 C 14.61,5.85 11.38,10 7.5,10 Z m 27,0 c -3.88,0 -7.11,-4.23 -6.4,-4.85 0.71,-0.62 2.63,1.3 6.4,1.3 3.77,0 5.69,-2 6.4,-1.3 0.71,0.7 -2.52,4.85 -6.4,4.85 z"
               fill="#ffffff"
               id="path11" />
          </g>
          <g
             transform="translate(6,24)"
             id="g17">
            <path
               d="M 15,10 C 6.79,10 3.02,3.88 4.22,3.12 5.42,2.35 6.1,6.6 15,6.49 23.9,6.37 24.58,2.26 25.78,3.12 26.98,3.98 23.21,10 15,10 Z"
               fill="#ffffff"
               id="path15" />
          </g>
        </g>
      </g>
    </g>
  </g>
</svg>
