<?xml version="1.0" encoding="UTF-8" standalone="no"?>
<svg
   viewBox="0 0 100 100"
   fill="none"
   shape-rendering="auto"
   version="1.1"
   id="svg27"
   width="100"
   height="100"
   xmlns="http://www.w3.org/2000/svg"
   xmlns:svg="http://www.w3.org/2000/svg"
   xmlns:rdf="http://www.w3.org/1999/02/22-rdf-syntax-ns#"
   xmlns:dc="http://purl.org/dc/elements/1.1/"
   xmlns:xsi="http://www.w3.org/2001/XMLSchema-instance"
   xmlns:dcterms="http://purl.org/dc/terms/">
  <defs
     id="defs31" />
  <metadata
     id="metadata2">
    <rdf:RDF>
      <rdf:Description>
        <dc:title>Thumbs</dc:title>
        <dc:creator>DiceBear</dc:creator>
        <dc:source
           xsi:type="dcterms:URI">https://www.dicebear.com</dc:source>
        <dcterms:license
           xsi:type="dcterms:URI">https://creativecommons.org/publicdomain/zero/1.0/</dcterms:license>
        <dc:rights>„Thumbs” (https://www.dicebear.com) by „DiceBear”, licensed under „CC0 1.0” (https://creativecommons.org/publicdomain/zero/1.0/)</dc:rights>
      </rdf:Description>
    </rdf:RDF>
  </metadata>
  <mask
     id="viewboxMask">
    <rect
       width="100"
       height="100"
       rx="0"
       ry="0"
       x="0"
       y="0"
       fill="#ffffff"
       id="rect4" />
  </mask>
  <g
     mask="url(#viewboxMask)"
     id="g25">
    <rect
       fill="#f88c49"
       width="100"
       height="100"
       x="0"
       y="0"
       id="rect7"
       style="fill:#d07272;fill-opacity:1" />
    <g
       transform="rotate(12,67.528729,53.728453)"
       id="g23">
      <path
         d="M 95,53.33 C 95,29.4 74.85,10 50,10 25.15,10 5,29.4 5,53.33 V 140 h 90 z"
         fill="#69d2e7"
         id="path9"
         style="fill:#d6de73;fill-opacity:1" />
      <g
         transform="translate(29,33)"
         id="g21">
        <g
           transform="rotate(-16,19.942315,2.7115757)"
           id="g19">
          <g
             transform="translate(0,2)"
             id="g13">
            <path
               d="M 9.86,7.5 C 9.86,6.08 5.72,4.65 5.04,2.52 4.34,0.4 14,5.37 14,7.5 14,9.63 4.35,14.61 5.04,12.48 5.72,10.35 9.86,8.92 9.86,7.5 Z m 22.28,0 c 0,-1.42 4.14,-2.85 4.82,-4.98 C 37.66,0.4 28,5.37 28,7.5 c 0,2.13 9.65,7.11 8.96,4.98 C 36.28,10.35 32.14,8.92 32.14,7.5 Z"
               fill="#ffffff"
               id="path11"
               style="fill:#605c55;fill-opacity:1" />
          </g>
          <g
             transform="translate(6,26)"
             id="g17">
            <path
               d="M 15,14 C 1.9,14 -0.72,1.29 0.15,0.23 1.03,-0.83 6.27,2.11 15,2.11 23.73,2.11 28.97,-0.83 29.85,0.23 30.72,1.3 28.1,14 15,14 Z"
               fill="#ffffff"
               id="path15"
               style="fill:#605c55;fill-opacity:1" />
          </g>
        </g>
      </g>
    </g>
  </g>
</svg>
