<?xml version="1.0" encoding="UTF-8" standalone="no"?>
<svg
   viewBox="0 0 100 100"
   fill="none"
   shape-rendering="auto"
   version="1.1"
   id="svg27"
   width="100"
   height="100"
   xmlns="http://www.w3.org/2000/svg"
   xmlns:svg="http://www.w3.org/2000/svg"
   xmlns:rdf="http://www.w3.org/1999/02/22-rdf-syntax-ns#"
   xmlns:dc="http://purl.org/dc/elements/1.1/"
   xmlns:xsi="http://www.w3.org/2001/XMLSchema-instance"
   xmlns:dcterms="http://purl.org/dc/terms/">
  <defs
     id="defs31" />
  <metadata
     id="metadata2">
    <rdf:RDF>
      <rdf:Description>
        <dc:title>Thumbs</dc:title>
        <dc:creator>DiceBear</dc:creator>
        <dc:source
           xsi:type="dcterms:URI">https://www.dicebear.com</dc:source>
        <dcterms:license
           xsi:type="dcterms:URI">https://creativecommons.org/publicdomain/zero/1.0/</dcterms:license>
        <dc:rights>„Thumbs” (https://www.dicebear.com) by „DiceBear”, licensed under „CC0 1.0” (https://creativecommons.org/publicdomain/zero/1.0/)</dc:rights>
      </rdf:Description>
    </rdf:RDF>
  </metadata>
  <mask
     id="viewboxMask">
    <rect
       width="100"
       height="100"
       rx="0"
       ry="0"
       x="0"
       y="0"
       fill="#ffffff"
       id="rect4" />
  </mask>
  <g
     mask="url(#viewboxMask)"
     id="g25">
    <rect
       fill="#69d2e7"
       width="100"
       height="100"
       x="0"
       y="0"
       id="rect7"
       style="fill:#78ac65;fill-opacity:1" />
    <g
       transform="rotate(15,59.095754,80.393631)"
       id="g23">
      <path
         d="M 95,53.33 C 95,29.4 74.85,10 50,10 25.15,10 5,29.4 5,53.33 V 140 h 90 z"
         fill="#f1f4dc"
         id="path9"
         style="fill:#e3e6ec;fill-opacity:1" />
      <g
         transform="translate(29,33)"
         id="g21">
        <g
           transform="rotate(-10,-51.080314,55.005183)"
           id="g19">
          <g
             transform="translate(0,1)"
             id="g13">
            <path
               d="m 14,8 c 0,2.2 -1.34,4 -3,4 C 9.34,12 8,10.2 8,8 8,5.8 9.34,4 11,4 c 1.66,0 3,1.8 3,4 z M 28.5,5 C 25.29,5 24,6.36 24,7.04 c 0,3.4 1.29,1.35 4.5,1.35 3.21,0 4.5,2.04 4.5,-1.35 C 33,6.36 31.71,5 28.5,5 Z"
               fill="#000000"
               id="path11" />
          </g>
          <g
             transform="translate(6,27)"
             id="g17">
            <path
               d="M 15,14 C 1.9,14 -0.72,1.29 0.15,0.23 1.03,-0.83 6.27,2.11 15,2.11 23.73,2.11 28.97,-0.83 29.85,0.23 30.72,1.3 28.1,14 15,14 Z"
               fill="#000000"
               id="path15" />
          </g>
        </g>
      </g>
    </g>
  </g>
</svg>
