<?xml version="1.0" encoding="UTF-8" standalone="no"?>
<svg
   viewBox="0 0 100 100"
   fill="none"
   shape-rendering="auto"
   version="1.1"
   id="svg27"
   width="100"
   height="100"
   xmlns="http://www.w3.org/2000/svg"
   xmlns:svg="http://www.w3.org/2000/svg"
   xmlns:rdf="http://www.w3.org/1999/02/22-rdf-syntax-ns#"
   xmlns:dc="http://purl.org/dc/elements/1.1/"
   xmlns:xsi="http://www.w3.org/2001/XMLSchema-instance"
   xmlns:dcterms="http://purl.org/dc/terms/">
  <defs
     id="defs31" />
  <metadata
     id="metadata2">
    <rdf:RDF>
      <rdf:Description>
        <dc:title>Thumbs</dc:title>
        <dc:creator>DiceBear</dc:creator>
        <dc:source
           xsi:type="dcterms:URI">https://www.dicebear.com</dc:source>
        <dcterms:license
           xsi:type="dcterms:URI">https://creativecommons.org/publicdomain/zero/1.0/</dcterms:license>
        <dc:rights>„Thumbs” (https://www.dicebear.com) by „DiceBear”, licensed under „CC0 1.0” (https://creativecommons.org/publicdomain/zero/1.0/)</dc:rights>
      </rdf:Description>
    </rdf:RDF>
  </metadata>
  <mask
     id="viewboxMask">
    <rect
       width="100"
       height="100"
       rx="0"
       ry="0"
       x="0"
       y="0"
       fill="#ffffff"
       id="rect4" />
  </mask>
  <g
     mask="url(#viewboxMask)"
     id="g25">
    <rect
       fill="#f88c49"
       width="100"
       height="100"
       x="0"
       y="0"
       id="rect7"
       style="fill:#e3e6ec;fill-opacity:1" />
    <g
       transform="rotate(14,55.072173,77.644346)"
       id="g23">
      <path
         d="M 95,53.33 C 95,29.4 74.85,10 50,10 25.15,10 5,29.4 5,53.33 V 140 h 90 z"
         fill="#0a5b83"
         id="path9"
         style="fill:#78ac65;fill-opacity:1" />
      <g
         transform="translate(29,33)"
         id="g21">
        <g
           transform="rotate(15,0.21273766,39.191508)"
           id="g19">
          <g
             transform="translate(0,4)"
             id="g13">
            <path
               d="M 6,8.36 C 6,8.36 6,4 10,4 c 4,0 4,4.36 4,4.36 v 2.91 C 14,11.27 14,12 13.33,12 12.67,12 12.67,9.1 10,9.1 7.33,9.1 7.33,12 6.67,12 6,12 6,11.27 6,11.27 v -2.9 z m 22,0 c 0,0 0,-4.36 4,-4.36 4,0 4,4.36 4,4.36 v 2.91 C 36,11.27 36,12 35.33,12 34.67,12 34.67,9.1 32,9.1 29.33,9.1 29.33,12 28.67,12 28,12 28,11.27 28,11.27 v -2.9 z"
               fill="#ffffff"
               id="path11" />
          </g>
          <g
             transform="translate(6,24)"
             id="g17">
            <path
               d="M 15,10 C 6.79,10 3.02,3.88 4.22,3.12 5.42,2.35 6.1,6.6 15,6.49 23.9,6.37 24.58,2.26 25.78,3.12 26.98,3.98 23.21,10 15,10 Z"
               fill="#ffffff"
               id="path15" />
          </g>
        </g>
      </g>
    </g>
  </g>
</svg>
