<?xml version="1.0" encoding="UTF-8" standalone="no"?>
<svg
   viewBox="0 0 100 100"
   fill="none"
   shape-rendering="auto"
   version="1.1"
   id="svg27"
   width="100"
   height="100"
   xmlns="http://www.w3.org/2000/svg"
   xmlns:svg="http://www.w3.org/2000/svg"
   xmlns:rdf="http://www.w3.org/1999/02/22-rdf-syntax-ns#"
   xmlns:dc="http://purl.org/dc/elements/1.1/"
   xmlns:xsi="http://www.w3.org/2001/XMLSchema-instance"
   xmlns:dcterms="http://purl.org/dc/terms/">
  <defs
     id="defs31" />
  <metadata
     id="metadata2">
    <rdf:RDF>
      <rdf:Description>
        <dc:title>Thumbs</dc:title>
        <dc:creator>DiceBear</dc:creator>
        <dc:source
           xsi:type="dcterms:URI">https://www.dicebear.com</dc:source>
        <dcterms:license
           xsi:type="dcterms:URI">https://creativecommons.org/publicdomain/zero/1.0/</dcterms:license>
        <dc:rights>„Thumbs” (https://www.dicebear.com) by „DiceBear”, licensed under „CC0 1.0” (https://creativecommons.org/publicdomain/zero/1.0/)</dc:rights>
      </rdf:Description>
    </rdf:RDF>
  </metadata>
  <mask
     id="viewboxMask">
    <rect
       width="100"
       height="100"
       rx="0"
       ry="0"
       x="0"
       y="0"
       fill="#ffffff"
       id="rect4" />
  </mask>
  <g
     mask="url(#viewboxMask)"
     id="g25">
    <rect
       fill="#0a5b83"
       width="100"
       height="100"
       x="0"
       y="0"
       id="rect7"
       style="fill:#bbc35f;fill-opacity:1" />
    <g
       transform="rotate(-11,74.963493,82.885397)"
       id="g23">
      <path
         d="M 95,53.33 C 95,29.4 74.85,10 50,10 25.15,10 5,29.4 5,53.33 V 140 h 90 z"
         fill="#1c799f"
         id="path9"
         style="fill:#e5e7ba;fill-opacity:1" />
      <g
         transform="translate(29,33)"
         id="g21">
        <g
           transform="rotate(-9,-24.471717,30.206205)"
           id="g19">
          <g
             transform="translate(0,3)"
             id="g13">
            <path
               d="m 14,8 c 0,3.31 -1.34,6 -3,6 C 9.34,14 8,11.31 8,8 8,4.69 9.34,2 11,2 c 1.66,0 3,2.69 3,6 z m 20,0 c 0,3.31 -1.34,6 -3,6 -1.66,0 -3,-2.69 -3,-6 0,-3.31 1.34,-6 3,-6 1.66,0 3,2.69 3,6 z"
               fill="#ffffff"
               id="path11"
               style="fill:#605c55;fill-opacity:1" />
          </g>
          <g
             transform="translate(6,25)"
             id="g17">
            <path
               d="m 15.2,3.84 c 0,-0.67 -4.2,-2 -4.2,-2.67 0,-0.66 7,0.67 7,2.67 0,2 -4.2,2.66 -4.2,2.66 0,0 4.2,0.67 4.2,2.66 0,2 -7,3.33 -7,2.67 0,-0.67 4.2,-2 4.2,-2.67 0,-0.66 -3.5,-1.33 -3.5,-2.66 0,-1.33 3.5,-2 3.5,-2.66 z"
               fill="#ffffff"
               id="path15"
               style="fill:#605c55;fill-opacity:1" />
          </g>
        </g>
      </g>
    </g>
  </g>
</svg>
