<svg width="16" height="16" viewBox="0 0 16 16" fill="none" xmlns="http://www.w3.org/2000/svg">
<path d="M11.1111 3.8V3.24C11.1111 2.45593 11.1111 2.06389 10.9416 1.76441C10.7924 1.50099 10.5545 1.28681 10.2618 1.15259C9.92901 1 9.49342 1 8.62222 1H7.37778C6.50658 1 6.07099 1 5.73824 1.15259C5.44554 1.28681 5.20757 1.50099 5.05843 1.76441C4.88889 2.06389 4.88889 2.45593 4.88889 3.24V3.8M6.44444 7.65V11.15M9.55556 7.65V11.15M1 3.8H15M13.4444 3.8V11.64C13.4444 12.8161 13.4444 13.4042 13.1901 13.8534C12.9664 14.2485 12.6095 14.5698 12.1704 14.7711C11.6713 15 11.0179 15 9.71111 15H6.28889C4.9821 15 4.32871 15 3.82958 14.7711C3.39053 14.5698 3.03358 14.2485 2.80987 13.8534C2.55556 13.4042 2.55556 12.8161 2.55556 11.64V3.8" stroke="#555770" stroke-width="2" stroke-linecap="round" stroke-linejoin="round"/>
</svg>
