<?xml version="1.0" encoding="UTF-8" standalone="no"?>
<!-- Created with Inkscape (http://www.inkscape.org/) -->

<svg
   width="575.09875mm"
   height="576.58917mm"
   viewBox="0 0 575.09875 576.58917"
   version="1.1"
   id="svg580"
   xml:space="preserve"
   inkscape:version="1.2.2 (732a01da63, 2022-12-09)"
   sodipodi:docname="browser-images.svg"
   xmlns:inkscape="http://www.inkscape.org/namespaces/inkscape"
   xmlns:sodipodi="http://sodipodi.sourceforge.net/DTD/sodipodi-0.dtd"
   xmlns:xlink="http://www.w3.org/1999/xlink"
   xmlns="http://www.w3.org/2000/svg"
   xmlns:svg="http://www.w3.org/2000/svg"><sodipodi:namedview
     id="namedview582"
     pagecolor="#505050"
     bordercolor="#eeeeee"
     borderopacity="1"
     inkscape:showpageshadow="0"
     inkscape:pageopacity="0"
     inkscape:pagecheckerboard="0"
     inkscape:deskcolor="#505050"
     inkscape:document-units="mm"
     showgrid="false"
     inkscape:zoom="0.088388348"
     inkscape:cx="-5707.7659"
     inkscape:cy="-1397.243"
     inkscape:window-width="1920"
     inkscape:window-height="1001"
     inkscape:window-x="-9"
     inkscape:window-y="-9"
     inkscape:window-maximized="1"
     inkscape:current-layer="layer5" /><defs
     id="defs577"><linearGradient
       id="a"
       x1="70.790001"
       x2="6.447"
       y1="12.39"
       y2="74.470001"
       gradientTransform="translate(-1.3,-0.004086)"
       gradientUnits="userSpaceOnUse"><stop
         stop-color="#fff44f"
         offset=".048"
         id="stop287" /><stop
         stop-color="#ffe847"
         offset=".111"
         id="stop289" /><stop
         stop-color="#ffc830"
         offset=".225"
         id="stop291" /><stop
         stop-color="#ff980e"
         offset=".368"
         id="stop293" /><stop
         stop-color="#ff8b16"
         offset=".401"
         id="stop295" /><stop
         stop-color="#ff672a"
         offset=".462"
         id="stop297" /><stop
         stop-color="#ff3647"
         offset=".534"
         id="stop299" /><stop
         stop-color="#e31587"
         offset=".705"
         id="stop301" /></linearGradient><radialGradient
       id="b"
       cx="-7907"
       cy="-8515"
       r="80.800003"
       gradientTransform="translate(7974,8524)"
       gradientUnits="userSpaceOnUse"><stop
         stop-color="#ffbd4f"
         offset=".129"
         id="stop304" /><stop
         stop-color="#ffac31"
         offset=".186"
         id="stop306" /><stop
         stop-color="#ff9d17"
         offset=".247"
         id="stop308" /><stop
         stop-color="#ff980e"
         offset=".283"
         id="stop310" /><stop
         stop-color="#ff563b"
         offset=".403"
         id="stop312" /><stop
         stop-color="#ff3750"
         offset=".467"
         id="stop314" /><stop
         stop-color="#f5156c"
         offset=".71"
         id="stop316" /><stop
         stop-color="#eb0878"
         offset=".782"
         id="stop318" /><stop
         stop-color="#e50080"
         offset=".86"
         id="stop320" /></radialGradient><radialGradient
       id="c"
       cx="-7937"
       cy="-8482"
       r="80.800003"
       gradientTransform="translate(7974,8524)"
       gradientUnits="userSpaceOnUse"><stop
         stop-color="#960e18"
         offset=".3"
         id="stop323" /><stop
         stop-color="#b11927"
         stop-opacity=".74"
         offset=".351"
         id="stop325" /><stop
         stop-color="#db293d"
         stop-opacity=".343"
         offset=".435"
         id="stop327" /><stop
         stop-color="#f5334b"
         stop-opacity=".094"
         offset=".497"
         id="stop329" /><stop
         stop-color="#ff3750"
         stop-opacity="0"
         offset=".53"
         id="stop331" /></radialGradient><radialGradient
       id="d"
       cx="-7927"
       cy="-8533"
       r="58.529999"
       gradientTransform="translate(7974,8524)"
       gradientUnits="userSpaceOnUse"><stop
         stop-color="#fff44f"
         offset=".132"
         id="stop334" /><stop
         stop-color="#ffdc3e"
         offset=".252"
         id="stop336" /><stop
         stop-color="#ff9d12"
         offset=".506"
         id="stop338" /><stop
         stop-color="#ff980e"
         offset=".526"
         id="stop340" /></radialGradient><radialGradient
       id="e"
       cx="-7946"
       cy="-8461"
       r="38.470001"
       gradientTransform="translate(7974,8524)"
       gradientUnits="userSpaceOnUse"><stop
         stop-color="#3a8ee6"
         offset=".353"
         id="stop343" /><stop
         stop-color="#5c79f0"
         offset=".472"
         id="stop345" /><stop
         stop-color="#9059ff"
         offset=".669"
         id="stop347" /><stop
         stop-color="#c139e6"
         offset="1"
         id="stop349" /></radialGradient><radialGradient
       id="f"
       cx="-7936"
       cy="-8492"
       r="20.4"
       gradientTransform="matrix(0.972,-0.235,0.275,1.138,10090,7834)"
       gradientUnits="userSpaceOnUse"><stop
         stop-color="#9059ff"
         stop-opacity="0"
         offset=".206"
         id="stop352" /><stop
         stop-color="#8c4ff3"
         stop-opacity=".064"
         offset=".278"
         id="stop354" /><stop
         stop-color="#7716a8"
         stop-opacity=".45"
         offset=".747"
         id="stop356" /><stop
         stop-color="#6e008b"
         stop-opacity=".6"
         offset=".975"
         id="stop358" /></radialGradient><radialGradient
       id="g"
       cx="-7938"
       cy="-8518"
       r="27.68"
       gradientTransform="translate(7974,8524)"
       gradientUnits="userSpaceOnUse"><stop
         stop-color="#ffe226"
         offset="0"
         id="stop361" /><stop
         stop-color="#ffdb27"
         offset=".121"
         id="stop363" /><stop
         stop-color="#ffc82a"
         offset=".295"
         id="stop365" /><stop
         stop-color="#ffa930"
         offset=".502"
         id="stop367" /><stop
         stop-color="#ff7e37"
         offset=".732"
         id="stop369" /><stop
         stop-color="#ff7139"
         offset=".792"
         id="stop371" /></radialGradient><radialGradient
       id="h"
       cx="-7916"
       cy="-8536"
       r="118.1"
       gradientTransform="translate(7974,8524)"
       gradientUnits="userSpaceOnUse"><stop
         stop-color="#fff44f"
         offset=".113"
         id="stop374" /><stop
         stop-color="#ff980e"
         offset=".456"
         id="stop376" /><stop
         stop-color="#ff5634"
         offset=".622"
         id="stop378" /><stop
         stop-color="#ff3647"
         offset=".716"
         id="stop380" /><stop
         stop-color="#e31587"
         offset=".904"
         id="stop382" /></radialGradient><radialGradient
       id="i"
       cx="-7927"
       cy="-8523"
       r="86.5"
       gradientTransform="matrix(0.105,0.995,-0.653,0.069,-4685,8470)"
       gradientUnits="userSpaceOnUse"><stop
         stop-color="#fff44f"
         offset="0"
         id="stop385" /><stop
         stop-color="#ffe847"
         offset=".06"
         id="stop387" /><stop
         stop-color="#ffc830"
         offset=".168"
         id="stop389" /><stop
         stop-color="#ff980e"
         offset=".304"
         id="stop391" /><stop
         stop-color="#ff8b16"
         offset=".356"
         id="stop393" /><stop
         stop-color="#ff672a"
         offset=".455"
         id="stop395" /><stop
         stop-color="#ff3647"
         offset=".57"
         id="stop397" /><stop
         stop-color="#e31587"
         offset=".737"
         id="stop399" /></radialGradient><radialGradient
       id="j"
       cx="-7938"
       cy="-8508"
       r="73.720001"
       gradientTransform="translate(7974,8524)"
       gradientUnits="userSpaceOnUse"><stop
         stop-color="#fff44f"
         offset=".137"
         id="stop402" /><stop
         stop-color="#ff980e"
         offset=".48"
         id="stop404" /><stop
         stop-color="#ff5634"
         offset=".592"
         id="stop406" /><stop
         stop-color="#ff3647"
         offset=".655"
         id="stop408" /><stop
         stop-color="#e31587"
         offset=".904"
         id="stop410" /></radialGradient><radialGradient
       id="k"
       cx="-7919"
       cy="-8504"
       r="80.690002"
       gradientTransform="translate(7974,8524)"
       gradientUnits="userSpaceOnUse"><stop
         stop-color="#fff44f"
         offset=".094"
         id="stop413" /><stop
         stop-color="#ffe141"
         offset=".231"
         id="stop415" /><stop
         stop-color="#ffaf1e"
         offset=".509"
         id="stop417" /><stop
         stop-color="#ff980e"
         offset=".626"
         id="stop419" /></radialGradient><linearGradient
       id="l"
       x1="70.010002"
       x2="15.27"
       y1="12.06"
       y2="66.809998"
       gradientTransform="translate(-1.3,-0.004086)"
       gradientUnits="userSpaceOnUse"><stop
         stop-color="#fff44f"
         stop-opacity=".8"
         offset=".167"
         id="stop422" /><stop
         stop-color="#fff44f"
         stop-opacity=".634"
         offset=".266"
         id="stop424" /><stop
         stop-color="#fff44f"
         stop-opacity=".217"
         offset=".489"
         id="stop426" /><stop
         stop-color="#fff44f"
         stop-opacity="0"
         offset=".6"
         id="stop428" /></linearGradient><linearGradient
       id="a-8"
       x1="63.299999"
       y1="84"
       x2="241.7"
       y2="84"
       gradientTransform="matrix(1,0,0,-1,0,266)"
       gradientUnits="userSpaceOnUse"><stop
         offset="0"
         stop-color="#0c59a4"
         id="stop640" /><stop
         offset="1"
         stop-color="#114a8b"
         id="stop642" /></linearGradient><radialGradient
       id="b-9"
       cx="161.8"
       cy="68.900002"
       r="95.400002"
       gradientTransform="matrix(1,0,0,-0.95,0,248.8)"
       gradientUnits="userSpaceOnUse"><stop
         offset=".7"
         stop-opacity="0"
         id="stop610" /><stop
         offset=".9"
         stop-opacity=".5"
         id="stop612" /><stop
         offset="1"
         id="stop614" /></radialGradient><linearGradient
       id="c-3"
       x1="157.3"
       y1="161.39999"
       x2="46"
       y2="40.099998"
       gradientTransform="matrix(1,0,0,-1,0,266)"
       gradientUnits="userSpaceOnUse"><stop
         offset="0"
         stop-color="#1b9de2"
         id="stop645" /><stop
         offset=".2"
         stop-color="#1595df"
         id="stop647" /><stop
         offset=".7"
         stop-color="#0680d7"
         id="stop649" /><stop
         offset="1"
         stop-color="#0078d4"
         id="stop651" /></linearGradient><radialGradient
       id="d-4"
       cx="-340.29999"
       cy="63"
       r="143.2"
       gradientTransform="matrix(0.15,-0.99,-0.8,-0.12,176.6,-125.4)"
       gradientUnits="userSpaceOnUse"><stop
         offset=".8"
         stop-opacity="0"
         id="stop617" /><stop
         offset=".9"
         stop-opacity=".5"
         id="stop619" /><stop
         offset="1"
         id="stop621" /></radialGradient><radialGradient
       id="e-9"
       cx="113.4"
       cy="570.20001"
       r="202.39999"
       gradientTransform="matrix(-0.04,1,2.13,0.08,-1179.5,-106.7)"
       gradientUnits="userSpaceOnUse"><stop
         offset="0"
         stop-color="#35c1f1"
         id="stop624" /><stop
         offset=".1"
         stop-color="#34c1ed"
         id="stop626" /><stop
         offset=".2"
         stop-color="#2fc2df"
         id="stop628" /><stop
         offset=".3"
         stop-color="#2bc3d2"
         id="stop630" /><stop
         offset=".7"
         stop-color="#36c752"
         id="stop632" /></radialGradient><radialGradient
       id="f-7"
       cx="376.5"
       cy="568"
       r="97.300003"
       gradientTransform="matrix(0.28,0.96,0.78,-0.23,-303.8,-148.5)"
       gradientUnits="userSpaceOnUse"><stop
         offset="0"
         stop-color="#66eb6e"
         id="stop635" /><stop
         offset="1"
         stop-color="#66eb6e"
         stop-opacity="0"
         id="stop637" /></radialGradient><linearGradient
       xlink:href="#a-7"
       id="d-6"
       x1="412.97501"
       x2="412.97501"
       y1="237.60777"
       y2="59.392235"
       gradientTransform="matrix(0.35154,0,0,0.35154,-111.47368,-21.179696)"
       gradientUnits="userSpaceOnUse" /><linearGradient
       id="a-7"><stop
         offset="0"
         stop-color="#bdbdbd"
         id="stop716" /><stop
         offset="1"
         stop-color="#fff"
         id="stop718" /></linearGradient><radialGradient
       xlink:href="#b-2"
       id="e-6"
       cx="413.06128"
       cy="136.81819"
       r="82.125351"
       fx="413.06128"
       fy="136.81819"
       gradientTransform="matrix(0.38143,0,0,0.38143,-123.71913,-25.371866)"
       gradientUnits="userSpaceOnUse" /><linearGradient
       id="b-2"><stop
         offset="0"
         stop-color="#06c2e7"
         id="stop705" /><stop
         offset=".25000015"
         stop-color="#0db8ec"
         id="stop707" /><stop
         offset=".5000003"
         stop-color="#12aef1"
         id="stop709" /><stop
         offset=".75000012"
         stop-color="#1f86f9"
         id="stop711" /><stop
         offset="1"
         stop-color="#107ddd"
         id="stop713" /></linearGradient><filter
       id="f-4"
       width="1.0429894"
       height="1.0445137"
       x="-0.021494724"
       y="-0.022256861"
       color-interpolation-filters="sRGB"><feGaussianBlur
         stdDeviation=".95767362"
         id="feGaussianBlur722" /></filter><linearGradient
       inkscape:collect="always"
       xlink:href="#a"
       id="linearGradient1409"
       gradientUnits="userSpaceOnUse"
       gradientTransform="translate(-1.3,-0.004086)"
       x1="70.790001"
       y1="12.39"
       x2="6.447"
       y2="74.470001" /><linearGradient
       inkscape:collect="always"
       xlink:href="#l"
       id="linearGradient1411"
       gradientUnits="userSpaceOnUse"
       gradientTransform="translate(-1.3,-0.004086)"
       x1="70.010002"
       y1="12.06"
       x2="15.27"
       y2="66.809998" /></defs><g
     inkscape:groupmode="layer"
     id="layer3"
     inkscape:label="browsers_icons"
     transform="translate(1222.1989,1242.9582)"><g
       transform="matrix(1.4383202,0,0,1.4383202,-1091.7879,-1972.8612)"
       id="g271"><path
         d="m 4.583,650.342 c 26.304,0 47.627,-21.324 47.627,-47.628 0,-26.304 -21.323,-47.628 -47.627,-47.628 -26.304,0 -47.627,21.324 -47.627,47.628 0,26.304 21.323,47.628 47.627,47.628 z"
         fill="#ffffff"
         clip-path="none"
         mask="none"
         id="path261" /><path
         d="m -36.664,626.539 -41.24,-71.43 c -8.362,14.479 -12.765,30.904 -12.765,47.625 0,16.721 4.401,33.146 12.762,47.625 8.361,14.479 20.387,26.503 34.868,34.86 14.481,8.357 30.908,12.755 47.628,12.75 l 41.24,-71.43 v -0.011 c -4.177,7.244 -10.188,13.26 -17.428,17.443 a 47.62,47.62 0 0 1 -47.632,0.007 47.62,47.62 0 0 1 -17.433,-17.437 z"
         fill="#229342"
         clip-path="none"
         mask="none"
         id="path263" /><path
         d="m 45.826,626.536 -41.239,71.43 c 16.72,0.003 33.146,-4.398 47.626,-12.757 14.48,-8.359 26.504,-20.384 34.863,-34.865 A 95.24,95.24 0 0 0 99.831,602.717 C 99.828,585.997 95.423,569.572 87.059,555.094 H 4.58 l -0.01,0.007 a 47.62,47.62 0 0 1 23.819,6.372 c 7.243,4.179 13.257,10.19 17.439,17.431 a 47.62,47.62 0 0 1 -0.001,47.633 z"
         fill="#fbc116"
         clip-path="none"
         mask="none"
         id="path265" /><path
         d="m 4.583,640.43 c 20.824,0 37.705,-16.881 37.705,-37.706 0,-20.825 -16.881,-37.705 -37.705,-37.705 -20.824,0 -37.705,16.881 -37.705,37.705 0,20.824 16.881,37.706 37.705,37.706 z"
         fill="#1a73e8"
         clip-path="none"
         mask="none"
         id="path267" /><path
         d="M 4.583,555.097 H 87.062 C 78.704,540.616 66.681,528.59 52.201,520.229 A 95.23,95.23 0 0 0 4.576,507.469 c -16.72,0.001 -33.145,4.404 -47.623,12.767 a 95.23,95.23 0 0 0 -34.856,34.872 l 41.24,71.43 0.011,0.006 a 47.62,47.62 0 0 1 -0.015,-47.633 c 4.179,-7.242 10.193,-13.256 17.434,-17.436 7.241,-4.18 15.456,-6.381 23.818,-6.379 z"
         fill="#e33b2e"
         clip-path="none"
         mask="none"
         id="path269" /></g><g
       transform="matrix(3.539019,0,0,3.4268222,-921.11433,-1242.8969)"
       id="g457"><path
         d="m 74.62,26.83 c -1.684,-4.052 -5.1,-8.427 -7.775,-9.81 a 40.27,40.27 0 0 1 3.925,11.76 l 0.007,0.065 C 66.395,17.925 58.967,13.515 52.897,3.925 52.59,3.44 52.283,2.954 51.984,2.441 51.813,2.148 51.676,1.884 51.557,1.641 a 7.053,7.053 0 0 1 -0.578,-1.535 0.1,0.1 0 0 0 -0.088,-0.1 0.138,0.138 0 0 0 -0.073,0 c -0.005,0 -0.013,0.009 -0.019,0.011 -0.006,0.002 -0.019,0.011 -0.028,0.015 l 0.015,-0.026 c -9.735,5.7 -13.04,16.25 -13.34,21.53 a 19.39,19.39 0 0 0 -10.67,4.111 11.59,11.59 0 0 0 -1,-0.758 17.97,17.97 0 0 1 -0.109,-9.473 28.7,28.7 0 0 0 -9.329,7.21 H 16.32 c -1.536,-1.947 -1.428,-8.367 -1.34,-9.708 a 6.928,6.928 0 0 0 -1.294,0.687 28.22,28.22 0 0 0 -3.788,3.245 33.84,33.84 0 0 0 -3.623,4.347 v 0.006 -0.007 a 32.73,32.73 0 0 0 -5.2,11.74 l -0.052,0.256 c -0.073,0.341 -0.336,2.049 -0.381,2.42 0,0.029 -0.006,0.056 -0.009,0.085 A 36.94,36.94 0 0 0 0.004,41.04 v 0.2 a 38.76,38.76 0 0 0 76.95,6.554 c 0.065,-0.5 0.118,-0.995 0.176,-1.5 A 39.86,39.86 0 0 0 74.616,26.824 Z M 29.95,57.17 c 0.181,0.087 0.351,0.181 0.537,0.264 l 0.027,0.017 Q 30.232,57.316 29.95,57.17 Z m 8.878,-23.38 m 31.95,-4.934 v -0.037 l 0.007,0.041 z"
         fill="url(#a)"
         id="path433"
         style="fill:url(#linearGradient1409)" /><path
         d="m 74.62,26.83 c -1.684,-4.052 -5.1,-8.427 -7.775,-9.81 a 40.27,40.27 0 0 1 3.925,11.76 v 0.037 l 0.007,0.041 a 35.1,35.1 0 0 1 -1.206,26.16 c -4.442,9.531 -15.19,19.3 -32.02,18.82 -18.18,-0.515 -34.2,-14.01 -37.19,-31.68 -0.545,-2.787 0,-4.2 0.274,-6.465 a 28.88,28.88 0 0 0 -0.623,5.348 v 0.2 a 38.76,38.76 0 0 0 76.95,6.554 c 0.065,-0.5 0.118,-0.995 0.176,-1.5 a 39.86,39.86 0 0 0 -2.514,-19.47 z"
         fill="url(#b)"
         id="path435"
         style="fill:url(#b)" /><path
         d="m 74.62,26.83 c -1.684,-4.052 -5.1,-8.427 -7.775,-9.81 a 40.27,40.27 0 0 1 3.925,11.76 v 0.037 l 0.007,0.041 a 35.1,35.1 0 0 1 -1.206,26.16 c -4.442,9.531 -15.19,19.3 -32.02,18.82 -18.18,-0.515 -34.2,-14.01 -37.19,-31.68 -0.545,-2.787 0,-4.2 0.274,-6.465 a 28.88,28.88 0 0 0 -0.623,5.348 v 0.2 a 38.76,38.76 0 0 0 76.95,6.554 c 0.065,-0.5 0.118,-0.995 0.176,-1.5 a 39.86,39.86 0 0 0 -2.514,-19.47 z"
         fill="url(#c)"
         id="path437"
         style="fill:url(#c)" /><path
         d="m 55.78,31.38 c 0.084,0.059 0.162,0.118 0.241,0.177 a 21.1,21.1 0 0 0 -3.6,-4.695 C 40.371,14.812 49.264,0.742 50.763,0.022 L 50.778,0 c -9.735,5.7 -13.04,16.25 -13.34,21.53 0.452,-0.031 0.9,-0.069 1.362,-0.069 a 19.56,19.56 0 0 1 16.98,9.917 z"
         fill="url(#d)"
         id="path439"
         style="fill:url(#d)" /><path
         d="m 38.82,33.79 c -0.064,0.964 -3.47,4.289 -4.661,4.289 -11.02,0 -12.81,6.667 -12.81,6.667 0.488,5.614 4.4,10.24 9.129,12.68 0.216,0.112 0.435,0.213 0.654,0.312 q 0.569,0.252 1.138,0.466 a 17.24,17.24 0 0 0 5.043,0.973 c 19.32,0.906 23.06,-23.1 9.119,-30.07 a 13.38,13.38 0 0 1 9.345,2.269 19.56,19.56 0 0 0 -16.98,-9.917 c -0.46,0 -0.91,0.038 -1.362,0.069 a 19.39,19.39 0 0 0 -10.67,4.111 c 0.591,0.5 1.258,1.168 2.663,2.553 2.63,2.591 9.375,5.275 9.39,5.59 z"
         fill="url(#e)"
         id="path441"
         style="fill:url(#e)" /><path
         d="m 38.82,33.79 c -0.064,0.964 -3.47,4.289 -4.661,4.289 -11.02,0 -12.81,6.667 -12.81,6.667 0.488,5.614 4.4,10.24 9.129,12.68 0.216,0.112 0.435,0.213 0.654,0.312 q 0.569,0.252 1.138,0.466 a 17.24,17.24 0 0 0 5.043,0.973 c 19.32,0.906 23.06,-23.1 9.119,-30.07 a 13.38,13.38 0 0 1 9.345,2.269 19.56,19.56 0 0 0 -16.98,-9.917 c -0.46,0 -0.91,0.038 -1.362,0.069 a 19.39,19.39 0 0 0 -10.67,4.111 c 0.591,0.5 1.258,1.168 2.663,2.553 2.63,2.591 9.375,5.275 9.39,5.59 z"
         fill="url(#f)"
         id="path443"
         style="fill:url(#f)" /><path
         d="m 24.96,24.36 c 0.314,0.2 0.573,0.374 0.8,0.531 a 17.97,17.97 0 0 1 -0.109,-9.473 28.7,28.7 0 0 0 -9.329,7.21 c 0.189,-0.005 5.811,-0.106 8.638,1.732 z"
         fill="url(#g)"
         id="path445"
         style="fill:url(#g)" /><path
         d="m 0.354,42.16 c 2.991,17.67 19.01,31.17 37.19,31.68 16.83,0.476 27.58,-9.294 32.02,-18.82 A 35.1,35.1 0 0 0 70.77,28.86 v -0.037 c 0,-0.029 -0.006,-0.046 0,-0.037 l 0.007,0.065 c 1.375,8.977 -3.191,17.67 -10.33,23.56 l -0.022,0.05 c -13.91,11.33 -27.22,6.834 -29.91,5 Q 30.233,57.326 29.951,57.18 C 21.842,53.304 18.491,45.92 19.211,39.58 a 9.953,9.953 0 0 1 -9.181,-5.775 14.62,14.62 0 0 1 14.25,-0.572 19.3,19.3 0 0 0 14.55,0.572 c -0.015,-0.315 -6.76,-3 -9.39,-5.59 -1.405,-1.385 -2.072,-2.052 -2.663,-2.553 a 11.59,11.59 0 0 0 -1,-0.758 c -0.23,-0.157 -0.489,-0.327 -0.8,-0.531 -2.827,-1.838 -8.449,-1.737 -8.635,-1.732 h -0.018 c -1.536,-1.947 -1.428,-8.367 -1.34,-9.708 A 6.928,6.928 0 0 0 13.69,13.62 28.22,28.22 0 0 0 9.902,16.865 33.84,33.84 0 0 0 6.264,21.202 v 0.006 -0.007 a 32.73,32.73 0 0 0 -5.2,11.74 C 1.045,33.02 -0.332,39.04 0.347,42.162 Z"
         fill="url(#h)"
         id="path447"
         style="fill:url(#h)" /><path
         d="m 52.42,26.86 a 21.1,21.1 0 0 1 3.6,4.7 c 0.213,0.161 0.412,0.321 0.581,0.476 8.787,8.1 4.183,19.55 3.84,20.36 7.138,-5.881 11.7,-14.58 10.33,-23.56 C 66.387,17.906 58.951,13.496 52.891,3.906 52.584,3.421 52.277,2.935 51.978,2.422 51.807,2.129 51.67,1.865 51.551,1.622 a 7.053,7.053 0 0 1 -0.578,-1.535 0.1,0.1 0 0 0 -0.088,-0.1 0.138,0.138 0 0 0 -0.073,0 c -0.005,0 -0.013,0.009 -0.019,0.011 -0.006,0.002 -0.019,0.011 -0.028,0.015 -1.499,0.711 -10.39,14.79 1.66,26.83 z"
         fill="url(#i)"
         id="path449"
         style="fill:url(#i)" /><path
         d="M 56.6,32.04 C 56.431,31.885 56.232,31.725 56.019,31.564 55.94,31.505 55.862,31.446 55.778,31.387 a 13.38,13.38 0 0 0 -9.345,-2.269 c 13.94,6.97 10.2,30.97 -9.119,30.07 a 17.24,17.24 0 0 1 -5.043,-0.973 q -0.569,-0.213 -1.138,-0.466 c -0.219,-0.1 -0.438,-0.2 -0.654,-0.312 l 0.027,0.017 c 2.694,1.839 16,6.332 29.91,-5 l 0.022,-0.05 c 0.347,-0.81 4.951,-12.26 -3.84,-20.36 z"
         fill="url(#j)"
         id="path451"
         style="fill:url(#j)" /><path
         d="m 21.35,44.74 c 0,0 1.789,-6.667 12.81,-6.667 1.191,0 4.6,-3.325 4.661,-4.289 a 19.3,19.3 0 0 1 -14.55,-0.572 14.62,14.62 0 0 0 -14.25,0.572 9.953,9.953 0 0 0 9.181,5.775 c -0.718,6.337 2.632,13.72 10.74,17.6 0.181,0.087 0.351,0.181 0.537,0.264 -4.733,-2.445 -8.641,-7.069 -9.129,-12.68 z"
         fill="url(#k)"
         id="path453"
         style="fill:url(#k)" /><path
         d="m 74.62,26.83 c -1.684,-4.052 -5.1,-8.427 -7.775,-9.81 a 40.27,40.27 0 0 1 3.925,11.76 l 0.007,0.065 C 66.395,17.925 58.967,13.515 52.897,3.925 52.59,3.44 52.283,2.954 51.984,2.441 51.813,2.148 51.676,1.884 51.557,1.641 a 7.053,7.053 0 0 1 -0.578,-1.535 0.1,0.1 0 0 0 -0.088,-0.1 0.138,0.138 0 0 0 -0.073,0 c -0.005,0 -0.013,0.009 -0.019,0.011 -0.006,0.002 -0.019,0.011 -0.028,0.015 l 0.015,-0.026 c -9.735,5.7 -13.04,16.25 -13.34,21.53 0.452,-0.031 0.9,-0.069 1.362,-0.069 a 19.56,19.56 0 0 1 16.98,9.917 13.38,13.38 0 0 0 -9.345,-2.269 c 13.94,6.97 10.2,30.97 -9.119,30.07 a 17.24,17.24 0 0 1 -5.043,-0.973 q -0.569,-0.213 -1.138,-0.466 c -0.219,-0.1 -0.438,-0.2 -0.654,-0.312 l 0.027,0.017 Q 30.234,57.316 29.952,57.17 c 0.181,0.087 0.351,0.181 0.537,0.264 -4.733,-2.446 -8.641,-7.07 -9.129,-12.68 0,0 1.789,-6.667 12.81,-6.667 1.191,0 4.6,-3.325 4.661,-4.289 -0.015,-0.315 -6.76,-3 -9.39,-5.59 -1.405,-1.385 -2.072,-2.052 -2.663,-2.553 a 11.59,11.59 0 0 0 -1,-0.758 17.97,17.97 0 0 1 -0.109,-9.473 28.7,28.7 0 0 0 -9.329,7.21 h -0.018 c -1.536,-1.947 -1.428,-8.367 -1.34,-9.708 A 6.928,6.928 0 0 0 13.688,13.613 28.22,28.22 0 0 0 9.9,16.858 33.84,33.84 0 0 0 6.277,21.205 v 0.006 -0.007 a 32.73,32.73 0 0 0 -5.2,11.74 L 1.025,33.2 c -0.073,0.341 -0.4,2.073 -0.447,2.445 a 45.09,45.09 0 0 0 -0.572,5.403 v 0.2 a 38.76,38.76 0 0 0 76.95,6.554 c 0.065,-0.5 0.118,-0.995 0.176,-1.5 a 39.86,39.86 0 0 0 -2.514,-19.47 z m -3.845,1.991 0.007,0.041 z"
         fill="url(#l)"
         id="path455"
         style="fill:url(#linearGradient1411)" /></g><g
       id="g703"
       transform="matrix(1.0702794,0,0,1.0707745,-921.1002,-940.37603)"><path
         d="m 235.7,195.5 a 93.7,93.7 0 0 1 -10.6,4.7 101.9,101.9 0 0 1 -35.9,6.4 c -47.3,0 -88.5,-32.5 -88.5,-74.3 A 31.5,31.5 0 0 1 117.1,105 c -42.8,1.8 -53.8,46.4 -53.8,72.5 0,74 68.1,81.4 82.8,81.4 7.9,0 19.8,-2.3 27,-4.6 l 1.3,-0.4 a 128.3,128.3 0 0 0 66.6,-52.8 4,4 0 0 0 -5.3,-5.6 z"
         transform="translate(-4.6,-5)"
         style="fill:url(#a-8)"
         id="path656" /><path
         d="m 235.7,195.5 a 93.7,93.7 0 0 1 -10.6,4.7 101.9,101.9 0 0 1 -35.9,6.4 c -47.3,0 -88.5,-32.5 -88.5,-74.3 A 31.5,31.5 0 0 1 117.1,105 c -42.8,1.8 -53.8,46.4 -53.8,72.5 0,74 68.1,81.4 82.8,81.4 7.9,0 19.8,-2.3 27,-4.6 l 1.3,-0.4 a 128.3,128.3 0 0 0 66.6,-52.8 4,4 0 0 0 -5.3,-5.6 z"
         transform="translate(-4.6,-5)"
         style="opacity:0.35;isolation:isolate;fill:url(#b-9)"
         id="path658" /><path
         d="M 110.3,246.3 A 79.2,79.2 0 0 1 87.6,225 80.7,80.7 0 0 1 117.1,105 c 3.2,-1.5 8.5,-4.1 15.6,-4 a 32.4,32.4 0 0 1 25.7,13 31.9,31.9 0 0 1 6.3,18.7 c 0,-0.2 24.5,-79.6 -80,-79.6 -43.9,0 -80,41.6 -80,78.2 a 130.2,130.2 0 0 0 12.1,56 128,128 0 0 0 156.4,67 75.5,75.5 0 0 1 -62.8,-8 z"
         transform="translate(-4.6,-5)"
         style="fill:url(#c-3)"
         id="path660" /><path
         d="M 110.3,246.3 A 79.2,79.2 0 0 1 87.6,225 80.7,80.7 0 0 1 117.1,105 c 3.2,-1.5 8.5,-4.1 15.6,-4 a 32.4,32.4 0 0 1 25.7,13 31.9,31.9 0 0 1 6.3,18.7 c 0,-0.2 24.5,-79.6 -80,-79.6 -43.9,0 -80,41.6 -80,78.2 a 130.2,130.2 0 0 0 12.1,56 128,128 0 0 0 156.4,67 75.5,75.5 0 0 1 -62.8,-8 z"
         transform="translate(-4.6,-5)"
         style="opacity:0.41;isolation:isolate;fill:url(#d-4)"
         id="path662" /><path
         d="m 157,153.8 c -0.9,1 -3.4,2.5 -3.4,5.6 0,2.6 1.7,5.2 4.8,7.3 14.3,10 41.4,8.6 41.5,8.6 a 59.6,59.6 0 0 0 30.3,-8.3 61.4,61.4 0 0 0 30.4,-52.9 C 260.9,91.7 252.6,76.8 249.3,70.2 228,28.8 182.3,5 132.6,5 A 128,128 0 0 0 4.6,131.2 c 0.5,-36.5 36.8,-66 80,-66 3.5,0 23.5,0.3 42,10 a 72.6,72.6 0 0 1 30.9,29.3 c 6.1,10.6 7.2,24.1 7.2,29.5 0,5.4 -2.7,13.3 -7.8,19.9 z"
         transform="translate(-4.6,-5)"
         style="fill:url(#e-9)"
         id="path664" /><path
         d="m 157,153.8 c -0.9,1 -3.4,2.5 -3.4,5.6 0,2.6 1.7,5.2 4.8,7.3 14.3,10 41.4,8.6 41.5,8.6 a 59.6,59.6 0 0 0 30.3,-8.3 61.4,61.4 0 0 0 30.4,-52.9 C 260.9,91.7 252.6,76.8 249.3,70.2 228,28.8 182.3,5 132.6,5 A 128,128 0 0 0 4.6,131.2 c 0.5,-36.5 36.8,-66 80,-66 3.5,0 23.5,0.3 42,10 a 72.6,72.6 0 0 1 30.9,29.3 c 6.1,10.6 7.2,24.1 7.2,29.5 0,5.4 -2.7,13.3 -7.8,19.9 z"
         transform="translate(-4.6,-5)"
         style="fill:url(#f-7)"
         id="path666" /></g><g
       id="g930"
       transform="matrix(1.0261843,0,0,1.0722775,-592.1625,-799.93322)"><g
         id="g774"
         transform="matrix(4.2554221,0,0,4.0728413,-623.8837,-129.56822)"><path
           fill="url(#d)"
           stroke="#cdcdcd"
           stroke-linecap="round"
           stroke-linejoin="round"
           stroke-width="0.0930123"
           d="M 65.029866,31.024404 A 31.325188,31.325188 0 0 1 33.704676,62.349594 31.325188,31.325188 0 0 1 2.3794958,31.024404 31.325188,31.325188 0 0 1 33.704676,-0.30078562 31.325188,31.325188 0 0 1 65.029866,31.024404 Z"
           paint-order="markers stroke fill"
           id="path733"
           style="fill:url(#d-6)" /><path
           fill="url(#e)"
           d="M 62.575251,31.024404 A 28.870571,28.870571 0 0 1 33.704681,59.894974 28.870571,28.870571 0 0 1 4.8341109,31.024404 28.870571,28.870571 0 0 1 33.704681,2.1538342 28.870571,28.870571 0 0 1 62.575251,31.024404 Z"
           paint-order="markers stroke fill"
           id="path735"
           style="fill:url(#e-6)" /><path
           fill="#f4f2f3"
           d="m 33.08292,4.01671 c -0.23319,0 -0.42092,0.18772 -0.42092,0.42092 V 9.2928 c 0,0.2332 0.18773,0.42092 0.42092,0.42092 0.2332,0 0.42092,-0.18772 0.42092,-0.42092 V 4.43763 c 0,-0.2332 -0.18772,-0.42092 -0.42092,-0.42092 z m -2.75367,0.17404 c -0.0279,-0.003 -0.0566,-0.003 -0.0856,3.5e-4 -0.23194,0.0242 -0.39917,0.2304 -0.37495,0.46234 l 0.21218,2.03119 c 0.0242,0.23194 0.23041,0.39918 0.46233,0.37496 0.23195,-0.0242 0.39919,-0.2304 0.37496,-0.46234 l -0.212,-2.03118 C 30.68497,4.36312 30.5244,4.2097 30.32922,4.19075 Z m 5.5266,0.002 c -0.19519,0.0188 -0.35578,0.17221 -0.37714,0.37513 L 35.26508,6.5989 c -0.0244,0.23192 0.14285,0.43831 0.37478,0.4627 0.23191,0.0244 0.43811,-0.14268 0.46251,-0.3746 l 0.21364,-2.03119 c 0.0244,-0.23192 -0.14286,-0.43814 -0.37478,-0.46252 -0.029,-0.003 -0.0575,-0.003 -0.0854,-5.2e-4 z m -8.3553,0.4082 c -0.028,2.2e-4 -0.0565,0.003 -0.085,0.009 -0.22814,0.0483 -0.37294,0.27089 -0.32464,0.49903 l 1.00552,4.74981 c 0.0483,0.22814 0.27088,0.37293 0.49902,0.32464 0.22814,-0.0483 0.37294,-0.27072 0.32465,-0.49886 L 27.91458,4.93459 C 27.87228,4.73496 27.69666,4.59916 27.50057,4.60069 Z m 11.18382,0.004 c -0.19609,-0.002 -0.3718,0.13394 -0.41419,0.33353 l -1.00897,4.74925 c -0.0485,0.22811 0.0962,0.45076 0.32427,0.49922 0.22811,0.0485 0.45076,-0.0962 0.49921,-0.32428 l 1.00897,-4.74926 c 0.0485,-0.2281 -0.0962,-0.45076 -0.32427,-0.49921 -0.0285,-0.006 -0.057,-0.009 -0.085,-0.009 z M 24.801,5.36212 c -0.0545,-0.005 -0.11077,0.001 -0.16622,0.0194 -0.22178,0.0721 -0.34238,0.3085 -0.27031,0.53028 l 0.6311,1.94236 c 0.0721,0.22179 0.30868,0.34238 0.53046,0.27032 0.22179,-0.0721 0.3422,-0.30868 0.27013,-0.53046 L 25.16507,5.65166 C 25.11107,5.48532 24.96448,5.37598 24.801,5.36208 Z m 16.56765,0.001 c -0.16348,0.0139 -0.30999,0.12324 -0.36406,0.28957 l -0.63147,1.94218 c -0.0721,0.22177 0.0484,0.45837 0.27014,0.53046 0.22178,0.0721 0.45837,-0.0484 0.53047,-0.27013 l 0.63146,-1.94236 c 0.0721,-0.22178 -0.0484,-0.45837 -0.27014,-0.53046 -0.0554,-0.018 -0.11191,-0.0239 -0.1664,-0.0193 z m -19.23721,0.9759 c -0.0547,0.001 -0.11004,0.013 -0.16331,0.0367 -0.21298,0.0947 -0.30836,0.34244 -0.21364,0.55553 l 1.97197,4.43662 c 0.0947,0.21308 0.34244,0.30836 0.55553,0.21364 0.21298,-0.0947 0.30854,-0.34244 0.21382,-0.55553 L 22.52365,6.58936 C 22.45265,6.42953 22.29548,6.33585 22.13144,6.33903 Z m 21.93693,0.0149 c -0.16403,-0.003 -0.32132,0.0901 -0.39257,0.24979 l -1.97798,4.4339 c -0.095,0.21296 -4e-5,0.46088 0.21292,0.55589 0.21297,0.095 0.46088,5e-5 0.5559,-0.21291 L 44.4446,6.9467 c 0.095,-0.21297 5e-5,-0.46089 -0.21291,-0.5559 C 44.17849,6.3671 44.12305,6.3551 44.06837,6.3539 Z M 19.65353,7.6501 c -0.0808,-0.006 -0.16406,0.012 -0.23979,0.0558 -0.20196,0.1166 -0.27065,0.37302 -0.15406,0.57497 l 1.02115,1.76869 c 0.1166,0.20196 0.373,0.27065 0.57496,0.15405 0.20195,-0.1166 0.27065,-0.37301 0.15406,-0.57497 L 19.9887,7.85996 C 19.9158,7.73373 19.78823,7.65955 19.65353,7.65013 Z m 26.85877,0 c -0.13468,0.009 -0.26211,0.0836 -0.33498,0.20983 l -1.02133,1.76868 c -0.1166,0.20196 -0.0477,0.45837 0.15424,0.57497 0.20196,0.1166 0.45837,0.0479 0.57497,-0.15405 l 1.02114,-1.76869 c 0.1166,-0.20195 0.0479,-0.45837 -0.15406,-0.57497 -0.0757,-0.0437 -0.15916,-0.0614 -0.23998,-0.0558 z M 17.24739,9.15083 c -0.081,0.003 -0.16211,0.029 -0.2329,0.0803 -0.18875,0.13693 -0.23048,0.39911 -0.0935,0.58787 l 2.85086,3.92995 c 0.13693,0.18876 0.39929,0.23049 0.58805,0.0936 0.18876,-0.13693 0.23049,-0.39911 0.0935,-0.58787 L 17.60236,9.32473 C 17.51676,9.20675 17.38232,9.14626 17.24739,9.15087 Z m 31.70122,0.0214 c -0.13493,-0.005 -0.26941,0.0555 -0.35516,0.17331 l -2.8563,3.92614 c -0.1372,0.18857 -0.0958,0.45086 0.0928,0.58805 0.18858,0.13718 0.45087,0.0959 0.58806,-0.0926 l 2.85613,-3.92614 c 0.13718,-0.18858 0.0957,-0.45086 -0.0928,-0.58805 -0.0707,-0.0514 -0.15176,-0.0778 -0.23272,-0.0807 z m -33.85196,1.78231 c -0.10744,-0.006 -0.21708,0.0299 -0.30374,0.10791 -0.17332,0.15602 -0.18725,0.42109 -0.0312,0.59441 l 1.36648,1.51799 c 0.15601,0.17332 0.42109,0.18726 0.59441,0.0312 0.17332,-0.15602 0.18726,-0.42127 0.0312,-0.59459 l -1.3663,-1.51781 c -0.078,-0.0867 -0.18339,-0.13351 -0.29085,-0.13916 z m 35.97562,0.003 c -0.10745,0.006 -0.21282,0.0525 -0.29084,0.13915 l -1.36648,1.51763 c -0.15606,0.1733 -0.14224,0.43855 0.0311,0.59459 0.17329,0.15604 0.43837,0.14205 0.59441,-0.0312 l 1.36666,-1.51762 c 0.15605,-0.17331 0.14205,-0.43856 -0.0312,-0.59459 -0.0867,-0.078 -0.19611,-0.11354 -0.30357,-0.10791 z m -38.03696,1.97705 c -0.10745,0.006 -0.21266,0.0525 -0.29067,0.13916 -0.15602,0.17332 -0.14207,0.43839 0.0312,0.59441 l 3.60841,3.24834 c 0.17332,0.15603 0.43839,0.14207 0.5944,-0.0312 0.15603,-0.17331 0.14226,-0.43839 -0.0311,-0.59441 l -3.60858,-3.24834 c -0.0867,-0.078 -0.1963,-0.11356 -0.30376,-0.10791 z m 40.10831,0.0142 c -0.10745,-0.006 -0.21722,0.0298 -0.30393,0.10773 l -3.61059,3.24581 c -0.17342,0.15589 -0.18768,0.42097 -0.0318,0.5944 0.1559,0.17342 0.42117,0.18751 0.59459,0.0316 l 3.61077,-3.2458 c 0.17342,-0.1559 0.1875,-0.42098 0.0316,-0.59441 -0.078,-0.0867 -0.18322,-0.13361 -0.29066,-0.13933 z m -41.8225,2.18998 c -0.13494,-0.005 -0.26949,0.0558 -0.35515,0.17367 -0.13707,0.18866 -0.0955,0.4508 0.0932,0.58787 l 1.65224,1.20044 c 0.18866,0.13708 0.45079,0.0957 0.58786,-0.093 0.13708,-0.18866 0.0956,-0.45098 -0.093,-0.58805 l -1.65224,-1.20044 c -0.0707,-0.0514 -0.15193,-0.0776 -0.23289,-0.0805 z m 43.53505,0.0153 c -0.081,0.003 -0.16211,0.0289 -0.23289,0.0803 l -1.65297,1.19936 c -0.18875,0.13694 -0.2305,0.39929 -0.0936,0.58805 0.13695,0.18875 0.39912,0.23031 0.58787,0.0934 l 1.65316,-1.19935 c 0.18875,-0.13694 0.23031,-0.39912 0.0934,-0.58787 -0.0856,-0.11797 -0.22004,-0.17847 -0.35497,-0.17385 z M 9.7192,17.48992 c -0.13469,0.009 -0.26211,0.0836 -0.33499,0.20982 -0.1166,0.20195 -0.0479,0.45837 0.15405,0.57497 l 4.20463,2.42758 c 0.20195,0.1166 0.45837,0.0479 0.57497,-0.15405 0.1166,-0.20195 0.0479,-0.45837 -0.15405,-0.57497 L 9.95918,17.54568 c -0.0757,-0.0437 -0.15917,-0.0614 -0.23998,-0.0558 z m 46.72744,0 c -0.0808,-0.006 -0.16425,0.012 -0.23998,0.0558 l -4.20463,2.42759 c -0.20195,0.1166 -0.27065,0.37302 -0.15405,0.57497 0.1166,0.20195 0.37302,0.27065 0.57497,0.15405 l 4.20482,-2.42758 c 0.20195,-0.1166 0.27064,-0.37302 0.15404,-0.57497 -0.0729,-0.12622 -0.20048,-0.20041 -0.33517,-0.20982 z m -47.9386,2.50606 c -0.16403,-0.004 -0.32133,0.0899 -0.39258,0.2496 -0.095,0.21298 -6e-5,0.46091 0.21292,0.5559 l 1.86532,0.83202 c 0.21298,0.095 0.46091,7e-5 0.5559,-0.2129 0.095,-0.21298 -1.2e-4,-0.46091 -0.21309,-0.5559 L 8.67136,20.03268 c -0.0532,-0.0238 -0.10865,-0.0356 -0.16332,-0.0367 z m 49.15794,0.0173 c -0.0547,10e-4 -0.11024,0.013 -0.16351,0.0367 l -1.86569,0.83057 c -0.21304,0.0949 -0.3083,0.34267 -0.21346,0.55571 0.0949,0.21304 0.34286,0.3083 0.5559,0.21346 l 1.8657,-0.83076 c 0.21303,-0.0948 0.30811,-0.34267 0.21327,-0.55571 -0.0711,-0.15978 -0.22818,-0.25323 -0.39221,-0.24997 z M 7.42859,22.61527 c -0.16349,0.0137 -0.31006,0.12291 -0.36424,0.28921 -0.0722,0.22172 0.048,0.45839 0.26977,0.53064 l 4.61629,1.50418 c 0.22171,0.0722 0.45839,-0.0481 0.53064,-0.26977 0.0722,-0.22172 -0.048,-0.4584 -0.26977,-0.53064 L 7.595,22.6347 C 7.5396,22.6166 7.48308,22.6107 7.42859,22.6153 Z m 51.31484,0.018 c -0.0545,-0.005 -0.11078,0.001 -0.16623,0.0194 l -4.61736,1.50092 c -0.22178,0.0721 -0.34223,0.30869 -0.27014,0.53046 0.0721,0.22177 0.30868,0.34223 0.53046,0.27014 l 4.61719,-1.50092 c 0.22178,-0.0721 0.3424,-0.30869 0.27032,-0.53046 -0.0541,-0.16633 -0.20077,-0.2757 -0.36424,-0.28957 z M 6.75607,25.36479 c -0.1961,-0.002 -0.37196,0.13412 -0.41438,0.33371 -0.0485,0.2281 0.0962,0.45073 0.32427,0.49922 l 1.99777,0.42455 c 0.2281,0.0485 0.45072,-0.0962 0.49921,-0.32427 0.0485,-0.22811 -0.0962,-0.45074 -0.32427,-0.49922 L 6.84108,25.37423 c -0.0285,-0.006 -0.057,-0.009 -0.085,-0.009 z m 52.65462,0.004 c -0.028,2.3e-4 -0.0563,0.004 -0.0848,0.009 l -1.99778,0.42437 c -0.2281,0.0485 -0.37271,0.27093 -0.32426,0.49904 0.0485,0.2281 0.2711,0.3729 0.49921,0.32445 l 1.99759,-0.42437 c 0.2281,-0.0485 0.3729,-0.27111 0.32445,-0.49922 -0.0424,-0.19959 -0.21829,-0.33537 -0.41437,-0.33371 z M 6.24704,28.13046 c -0.1952,0.0187 -0.35587,0.17185 -0.37731,0.37477 -0.0245,0.2319 0.14232,0.43838 0.37422,0.46288 l 4.82829,0.51048 c 0.2319,0.0245 0.43838,-0.1425 0.46288,-0.37441 0.0245,-0.2319 -0.1425,-0.43838 -0.37441,-0.46288 L 6.33243,28.13082 c -0.029,-0.003 -0.0575,-0.003 -0.0854,-3.5e-4 z m 53.6763,0.0363 c -0.0279,-0.003 -0.0566,-0.003 -0.0856,3.5e-4 l -4.82883,0.50394 c -0.23194,0.0242 -0.39914,0.2304 -0.37496,0.46233 0.0242,0.23194 0.2304,0.39918 0.46234,0.37496 l 4.82883,-0.50394 c 0.23193,-0.0242 0.39914,-0.2304 0.37496,-0.46234 -0.0212,-0.20294 -0.1816,-0.35634 -0.37678,-0.37532 z M 6.16529,30.96149 c -0.2332,0 -0.42091,0.18772 -0.42091,0.42092 0,0.23319 0.18771,0.42091 0.42091,0.42091 h 2.04228 c 0.23319,0 0.4211,-0.18772 0.4211,-0.42091 0,-0.2332 -0.18791,-0.42092 -0.4211,-0.42092 z m 51.79298,0 c -0.23319,0 -0.42092,0.18772 -0.42092,0.42092 10e-6,0.23319 0.18773,0.42091 0.42092,0.42091 h 2.04228 c 0.23319,0 0.42092,-0.18772 0.42092,-0.42091 0,-0.2332 -0.18773,-0.42092 -0.42092,-0.42092 z M 11.15508,33.2561 c -0.0279,-0.003 -0.0564,-0.003 -0.0854,3.5e-4 l -4.82902,0.50394 c -0.23194,0.0242 -0.39913,0.2304 -0.37495,0.46233 0.0242,0.23194 0.2304,0.39918 0.46233,0.37496 l 4.82902,-0.50394 c 0.23194,-0.0242 0.39913,-0.2304 0.37495,-0.46234 -0.0212,-0.20294 -0.18177,-0.35634 -0.37695,-0.37531 z m 43.85314,0.0298 c -0.19521,0.0187 -0.35588,0.17186 -0.37732,0.37478 -0.0245,0.2319 0.14233,0.43838 0.37423,0.46288 l 4.82829,0.51048 c 0.23191,0.0245 0.43837,-0.14251 0.46288,-0.37441 0.0245,-0.2319 -0.14251,-0.43838 -0.37441,-0.46288 l -4.8281,-0.51048 c -0.029,-0.003 -0.0577,-0.003 -0.0856,-3.5e-4 z m -46.2602,2.8436 c -0.028,2.4e-4 -0.0565,0.003 -0.085,0.009 l -1.99777,0.42436 c -0.22811,0.0485 -0.37271,0.27111 -0.32427,0.49922 0.0485,0.22811 0.27111,0.37272 0.49922,0.32427 l 1.99777,-0.42419 c 0.2281,-0.0485 0.37271,-0.27111 0.32426,-0.49921 -0.0424,-0.1996 -0.2181,-0.33537 -0.41419,-0.33372 z m 48.66925,0.004 c -0.19609,-0.002 -0.37177,0.13394 -0.41419,0.33353 -0.0485,0.2281 0.096,0.45074 0.32409,0.49922 l 1.99777,0.42455 c 0.22809,0.0485 0.45073,-0.096 0.49921,-0.32409 0.0485,-0.2281 -0.0962,-0.45092 -0.32426,-0.4994 l -1.9976,-0.42455 c -0.0285,-0.006 -0.057,-0.009 -0.085,-0.009 z m -45.30519,1.65787 c -0.0545,-0.005 -0.11077,10e-4 -0.16622,0.0194 L 7.3285,39.31168 c -0.22178,0.0721 -0.34223,0.30869 -0.27014,0.53046 0.0721,0.22178 0.30868,0.34222 0.53046,0.27014 l 4.61719,-1.50092 c 0.22178,-0.0721 0.34241,-0.30869 0.27032,-0.53046 -0.0541,-0.16633 -0.20077,-0.2757 -0.36425,-0.28957 z m 41.93713,0.0149 c -0.16349,0.0137 -0.31005,0.12292 -0.36423,0.28921 -0.0722,0.22173 0.048,0.4584 0.26977,0.53065 l 4.61628,1.50418 c 0.22172,0.0722 0.4584,-0.0481 0.53064,-0.26977 0.0723,-0.22172 -0.048,-0.4584 -0.26977,-0.53065 l -4.61628,-1.50418 c -0.0554,-0.0181 -0.11191,-0.024 -0.16641,-0.0194 z m -43.69909,3.27251 c -0.0547,10e-4 -0.11006,0.0128 -0.16332,0.0365 l -1.86587,0.83075 c -0.21304,0.0948 -0.30812,0.34267 -0.21328,0.55571 0.0949,0.21304 0.34268,0.30812 0.55571,0.21328 l 1.86589,-0.83058 c 0.21303,-0.0948 0.30811,-0.34267 0.21327,-0.55571 -0.0711,-0.15978 -0.22837,-0.25323 -0.3924,-0.24997 z m 45.45888,0.016 c -0.16403,-0.004 -0.32133,0.0899 -0.39258,0.24961 -0.095,0.21297 -6e-5,0.4609 0.21291,0.55589 l 1.86515,0.83202 c 0.21297,0.095 0.46091,6e-5 0.5559,-0.21291 0.095,-0.21297 6e-5,-0.4609 -0.21291,-0.55589 l -1.86515,-0.83203 c -0.0532,-0.0238 -0.10864,-0.0356 -0.16332,-0.0367 z m -41.82613,0.91214 c -0.0808,-0.006 -0.16424,0.012 -0.23998,0.0558 L 9.53826,44.4903 c -0.20195,0.1166 -0.27065,0.37302 -0.15405,0.57497 0.1166,0.20195 0.37302,0.27065 0.57497,0.15405 l 4.20463,-2.4274 c 0.20195,-0.1166 0.27064,-0.3732 0.15405,-0.57515 -0.0729,-0.12622 -0.2003,-0.20041 -0.33499,-0.20982 z m 38.20028,0 c -0.13469,0.009 -0.26229,0.0836 -0.33517,0.20982 -0.1166,0.20195 -0.0479,0.45855 0.15405,0.57515 l 4.20463,2.4274 c 0.20196,0.1166 0.45855,0.0479 0.57515,-0.15405 0.1166,-0.20195 0.0479,-0.45837 -0.15404,-0.57497 l -4.20482,-2.42758 c -0.0757,-0.0437 -0.15899,-0.0614 -0.2398,-0.0558 z m -39.24903,3.56244 c -0.081,0.003 -0.16211,0.0291 -0.2329,0.0805 l -1.65296,1.19935 c -0.18875,0.13694 -0.2305,0.39912 -0.0936,0.58787 0.13695,0.18875 0.39912,0.2305 0.58787,0.0935 l 1.65314,-1.19935 c 0.18877,-0.13693 0.23051,-0.39911 0.0936,-0.58786 -0.0856,-0.11797 -0.22022,-0.17866 -0.35516,-0.17404 z m 40.28761,0.0142 c -0.13494,-0.005 -0.26948,0.0558 -0.35515,0.17367 -0.13708,0.18865 -0.0955,0.45098 0.0932,0.58805 l 1.65224,1.20044 c 0.18866,0.13707 0.4508,0.0955 0.58787,-0.0932 0.13707,-0.18866 0.0956,-0.4508 -0.093,-0.58787 l -1.65224,-1.20044 c -0.0707,-0.0514 -0.15193,-0.0778 -0.23289,-0.0807 z m -36.54387,0.14533 c -0.10743,-0.006 -0.21702,0.0298 -0.30374,0.10773 l -3.61076,3.2458 c -0.17342,0.15589 -0.18751,0.42098 -0.0316,0.59441 0.15589,0.17342 0.42097,0.1875 0.5944,0.0316 l 3.61077,-3.2458 c 0.17342,-0.15589 0.18751,-0.42098 0.0316,-0.59441 -0.0779,-0.0867 -0.18322,-0.13361 -0.29067,-0.13933 z m 32.80012,0.0116 c -0.10745,0.006 -0.21283,0.0525 -0.29084,0.13915 -0.15603,0.17332 -0.14207,0.43839 0.0312,0.59441 l 3.60841,3.24834 c 0.17332,0.15604 0.43857,0.14208 0.59459,-0.0312 0.15603,-0.17331 0.14207,-0.43839 -0.0312,-0.5944 l -3.6086,-3.24835 c -0.0867,-0.078 -0.19611,-0.11355 -0.30356,-0.10791 z m -29.37464,3.08358 c -0.13493,-0.005 -0.2696,0.0554 -0.35534,0.1733 l -2.85613,3.92614 c -0.13719,0.18858 -0.0959,0.45087 0.0926,0.58805 0.18857,0.13719 0.45087,0.0959 0.58805,-0.0927 l 2.85613,-3.92614 c 0.13718,-0.18857 0.0959,-0.45086 -0.0926,-0.58805 -0.0707,-0.0514 -0.15175,-0.0778 -0.23271,-0.0806 z m 25.93573,0.0176 c -0.081,0.003 -0.16211,0.0289 -0.2329,0.0803 -0.18875,0.13694 -0.23048,0.39911 -0.0936,0.58787 l 2.85086,3.92995 c 0.13693,0.18876 0.39911,0.2305 0.58787,0.0936 0.18876,-0.13693 0.23049,-0.3991 0.0936,-0.58786 L 46.39404,49.01557 C 46.30844,48.8976 46.174,48.83711 46.03906,48.84172 Z m -29.6228,0.6064 c -0.10745,0.006 -0.21282,0.0525 -0.29084,0.13915 l -1.36649,1.51763 c -0.15605,0.1733 -0.14223,0.43855 0.0311,0.59459 0.1733,0.15604 0.43837,0.14205 0.5944,-0.0313 l 1.36666,-1.51762 c 0.15606,-0.1733 0.14206,-0.43856 -0.0312,-0.59459 -0.0867,-0.078 -0.19611,-0.11354 -0.30357,-0.10791 z m 33.33076,0.002 c -0.10745,-0.006 -0.21691,0.0299 -0.30356,0.10791 -0.17333,0.156 -0.18726,0.42108 -0.0313,0.5944 l 1.3663,1.51799 c 0.15602,0.17333 0.42109,0.18726 0.59442,0.0312 0.17332,-0.15601 0.18726,-0.42126 0.0312,-0.59459 l -1.36631,-1.5178 c -0.078,-0.0867 -0.18339,-0.13351 -0.29084,-0.13916 z m -25.65524,1.68366 c -0.16403,-0.004 -0.32114,0.0899 -0.39239,0.24961 l -1.97816,4.43389 c -0.095,0.21297 -5e-5,0.46089 0.21292,0.5559 0.21296,0.095 0.46089,5e-5 0.55589,-0.21291 l 1.97815,-4.4339 c 0.095,-0.21296 5e-5,-0.46089 -0.21292,-0.55589 -0.0532,-0.0238 -0.10881,-0.0356 -0.16349,-0.0367 z m 17.95556,0.0122 c -0.0547,10e-4 -0.11023,0.0128 -0.1635,0.0365 -0.21297,0.0947 -0.30836,0.34244 -0.21363,0.55553 l 1.97196,4.43662 c 0.0947,0.21297 0.34262,0.30836 0.55571,0.21364 0.21298,-0.0947 0.30836,-0.34244 0.21364,-0.55553 l -1.97197,-4.43662 c -0.071,-0.15973 -0.22818,-0.25329 -0.39221,-0.25015 z M 20.61581,52.5046 c -0.13468,0.009 -0.26212,0.0836 -0.33498,0.20982 l -1.02115,1.76869 c -0.11659,0.20195 -0.0479,0.45837 0.15406,0.57497 0.20195,0.1166 0.45837,0.0479 0.57496,-0.15405 l 1.02115,-1.76869 c 0.11659,-0.20195 0.0479,-0.45837 -0.15406,-0.57497 -0.0757,-0.0437 -0.15916,-0.0614 -0.23998,-0.0558 z m 24.93421,0 c -0.0808,-0.006 -0.16406,0.0121 -0.23979,0.0558 -0.20195,0.1166 -0.27065,0.37302 -0.15405,0.57497 l 1.02114,1.76869 c 0.1166,0.20195 0.37302,0.27064 0.57496,0.15405 0.20196,-0.1166 0.27066,-0.37302 0.15406,-0.57497 L 45.8852,52.71445 c -0.0729,-0.12622 -0.20049,-0.20041 -0.33518,-0.20982 z m -17.0545,0.0634 c -0.19609,-0.002 -0.3718,0.13394 -0.41419,0.33354 l -1.00897,4.74926 c -0.0485,0.2281 0.0962,0.45076 0.32427,0.49921 0.22811,0.0485 0.45076,-0.0962 0.49922,-0.32427 l 1.00896,-4.74926 c 0.0485,-0.2281 -0.0962,-0.45076 -0.32427,-0.49921 -0.0285,-0.006 -0.057,-0.009 -0.085,-0.009 z m 9.1599,0.003 c -0.028,2.2e-4 -0.0563,0.003 -0.0848,0.009 -0.22814,0.0483 -0.37294,0.27071 -0.32465,0.49885 l 1.00553,4.74999 c 0.0483,0.22814 0.27088,0.37293 0.49903,0.32464 0.22814,-0.0483 0.37293,-0.27089 0.32464,-0.49903 l -1.0057,-4.74965 c -0.0423,-0.19963 -0.21793,-0.33543 -0.41402,-0.33391 z m -4.5725,0.47905 c -0.23319,0 -0.42092,0.18772 -0.42092,0.42092 v 4.85517 c 0,0.2332 0.18773,0.42092 0.42092,0.42092 0.2332,0 0.42092,-0.18772 0.42092,-0.42092 v -4.85517 c 0,-0.2332 -0.18772,-0.42092 -0.42092,-0.42092 z m -7.72657,1.56886 c -0.16347,0.0139 -0.31017,0.12324 -0.36423,0.28957 l -0.63129,1.94236 c -0.0721,0.22178 0.0484,0.45837 0.27014,0.53047 0.22177,0.0721 0.45836,-0.0486 0.53046,-0.27032 l 0.63128,-1.94218 c 0.0721,-0.22177 -0.0484,-0.45836 -0.27013,-0.53046 -0.0554,-0.018 -0.11173,-0.024 -0.16623,-0.0194 z m 15.44987,10e-4 c -0.0545,-0.005 -0.11078,0.001 -0.16622,0.0193 -0.22178,0.0721 -0.34238,0.30868 -0.27033,0.53047 l 0.63111,1.94235 c 0.0721,0.22179 0.30868,0.3422 0.53046,0.27014 0.22178,-0.0721 0.34238,-0.3085 0.27032,-0.53028 l -0.63128,-1.94236 c -0.0541,-0.16634 -0.20058,-0.27568 -0.36406,-0.28957 z m -10.36543,1.08181 c -0.1952,0.0188 -0.356,0.17203 -0.37732,0.37496 l -0.21346,2.03119 c -0.0244,0.23192 0.14268,0.43812 0.3746,0.46252 0.23192,0.0244 0.4383,-0.14268 0.4627,-0.3746 l 0.21345,-2.03101 c 0.0244,-0.23192 -0.14268,-0.4383 -0.37458,-0.4627 -0.029,-0.003 -0.0575,-0.003 -0.0854,-3.5e-4 z m 5.26736,0.002 c -0.0279,-0.003 -0.0566,-0.003 -0.0856,3.5e-4 -0.23193,0.0242 -0.39917,0.2304 -0.37495,0.46233 l 0.21218,2.03138 c 0.0242,0.23193 0.2304,0.399 0.46234,0.37478 0.23193,-0.0242 0.39918,-0.23041 0.37496,-0.46234 l -0.212,-2.03119 C 36.06388,55.87608 35.9033,55.72266 35.70811,55.7037 Z"
           paint-order="markers stroke fill"
           id="path737" /><path
           d="m 469.09621,100.6068 -65.50955,38.06124 -41.41979,65.20654 60.59382,-44.88117 z"
           filter="url(#f)"
           opacity="0.409"
           paint-order="markers stroke fill"
           transform="matrix(0.35154,0,0,0.35154,-112.09544,-20.8224)"
           id="path739"
           style="filter:url(#f-4)" /><path
           fill="#ff5150"
           d="M 36.3834,34.838062 29.782449,27.925337 53.198524,12.17334 Z"
           paint-order="markers stroke fill"
           id="path741" /><path
           fill="#f1f1f1"
           d="M 36.38339,34.838059 29.782439,27.925335 12.967313,50.590054 Z"
           paint-order="markers stroke fill"
           id="path743" /><path
           d="M 12.96732,50.59006 36.38339,34.83805 53.19852,12.17333 Z"
           opacity="0.243"
           id="path745" /></g></g></g></svg>
