<svg width="243" height="241" viewBox="0 0 243 241" fill="none" xmlns="http://www.w3.org/2000/svg">
<path d="M145.522 39.3633H7.76C3.67514 39.3633 0.353516 43.2831 0.353516 48.1036V107.825C0.353516 112.645 3.67514 116.565 7.76 116.565H145.522C149.607 116.565 152.929 112.645 152.929 107.825V48.1036C152.929 43.2831 149.607 39.3633 145.522 39.3633Z" fill="#585858"/>
<path d="M145.522 39.3633H7.76C3.67514 39.3633 0.353516 43.2831 0.353516 48.1036V107.825C0.353516 112.645 3.67514 116.565 7.76 116.565H145.522C149.607 116.565 152.929 112.645 152.929 107.825V48.1036C152.929 43.2831 149.607 39.3633 145.522 39.3633ZM152.15 107.825C152.15 112.14 149.179 115.646 145.522 115.646H7.76C4.10348 115.646 1.13232 112.14 1.13232 107.825V48.1036C1.13232 43.7886 4.10348 40.2823 7.76 40.2823H145.522C149.179 40.2823 152.15 43.7886 152.15 48.1036V107.825Z" fill="#585858"/>
<g clip-path="url(#clip0_1621_341)">
<path d="M167.63 80.304C171.381 80.9472 175.3 80.5797 178.846 79.1829C179.199 79.0543 179.552 78.8889 179.756 78.5765C179.886 78.3743 179.924 78.1354 179.961 77.8781C180.406 74.7906 180.573 70.38 179.478 67.4395C178.791 65.6201 177.528 64.0764 176.135 62.6797C175.244 61.7792 174.241 60.897 173.015 60.5111C171.79 60.1252 170.286 60.3641 169.524 61.3932C168.447 62.8267 168.466 65.9325 168.187 67.6601C167.76 70.2697 167.184 72.8794 166.145 75.342C165.55 76.7387 164.789 78.1354 164.919 79.6424C165.81 79.9181 166.72 80.1386 167.63 80.304Z" fill="#292929"/>
<path d="M148.075 39.3581C145.401 41.6921 144.213 44.9634 144.194 48.4919C144.176 52.0756 145.253 55.549 146.089 59.0408C146.943 62.5142 147.574 66.1714 146.72 69.6631C146.089 72.2544 144.64 74.6068 142.969 76.7018C148.93 80.0466 156.209 80.9655 162.82 79.2196C163.117 72.8241 163.284 66.7227 161.706 60.4007C160.685 56.2657 159.069 52.3145 158.103 48.1611C157.602 45.9925 157.231 43.7872 157.286 41.5635C157.323 39.8727 158.233 37.4101 156.395 36.2707C153.869 34.7086 150.118 37.6674 148.298 39.1744C148.224 39.2295 148.15 39.303 148.075 39.3581Z" fill="#292929"/>
<path d="M108.726 145.068C111.957 150.36 116.432 151.224 121.39 148.21C131.845 141.852 158.122 111.969 157.472 98.2226C156.283 73.5412 141.687 84.9171 141.687 84.9171C141.687 84.9171 123.396 115.314 111.326 132.699C107.463 138.231 108.651 144.921 108.726 145.068Z" fill="#FFA288"/>
<path d="M196.19 174.068C196.301 174.546 196.412 175.024 196.505 175.52C197.099 178.644 197.044 182.577 195.28 185.389C193.943 187.502 191.176 188.127 188.836 188.715C183.859 189.965 178.697 190.369 173.59 190.884C164.973 191.748 156.245 191.582 147.629 190.645C139.18 189.726 132.104 187.741 132.754 177.983C133.181 171.459 135.726 165.302 137.415 158.98C141.092 145.233 141.352 129.318 135.67 116.049C134.519 113.348 133.107 110.628 133.089 107.724C133.052 103.7 135.596 100.116 138.047 96.8079C141.278 92.4523 145.512 83.5575 151.751 82.4916C156.041 81.7565 161.241 82.1791 165.642 82.1056C170.73 82.0321 177.564 80.7089 182.355 82.5651C187.499 84.5499 190.786 90.7983 192.048 95.5031C193.813 102.064 193.478 109.709 193.218 116.417C192.921 123.915 191.733 131.377 189.634 138.581C189.059 140.529 188.427 142.477 188.13 144.48C187.332 149.828 188.966 155.231 190.99 160.248C192.828 164.824 195.038 169.308 196.19 174.068Z" fill="#FFA288"/>
<path d="M223.823 145.068C220.591 150.36 216.116 151.224 211.158 148.21C200.703 141.852 174.426 111.969 175.076 98.2226C176.265 73.5412 190.861 84.9171 190.861 84.9171C190.861 84.9171 209.152 115.314 221.223 132.699C225.085 138.231 223.915 144.921 223.823 145.068Z" fill="#FFA288"/>
<path d="M171.77 69.4795H159.365V87.1406H171.77V69.4795Z" fill="#AA6150"/>
<path d="M180.832 55.7329C180.832 66.1715 175.242 73.6329 165.753 77.5657C163.432 78.5214 160.739 79.0176 158.455 77.9884C157.285 77.4555 156.301 76.5733 155.447 75.6361C148.892 68.5239 148.409 58.6182 150.507 49.6499C152.141 42.703 157.378 35.1865 165.326 35.1865C173.887 35.1865 180.832 44.3754 180.832 55.7329Z" fill="#BC7763"/>
<path d="M162.597 93.8122C171.622 90.835 177.174 84.1454 178.957 81.7747C174.649 81.2417 169.616 82.0504 165.642 82.1055C161.576 82.1606 156.84 81.8298 152.736 82.3628C154.853 86.0935 162.597 93.8122 162.597 93.8122Z" fill="#FFA288"/>
<path d="M154.352 82.1975C155.02 84.7521 163.117 92.8015 163.117 92.8015C172.439 89.7324 177.397 81.977 177.527 81.8667C177.378 81.7932 177.23 81.7197 177.081 81.6646C177.026 81.6462 176.97 81.6278 176.933 81.6095C173.144 81.4624 169.022 82.0505 165.661 82.1057C162.095 82.1608 158.047 81.9219 154.352 82.1975Z" fill="#AA6150"/>
<path d="M159.366 82.3809C159.366 82.3809 164.455 88.6661 171.585 81.7744C169.487 81.9214 167.444 82.1236 165.624 82.142C163.6 82.1787 161.39 82.1052 159.199 82.0868C159.255 82.1787 159.311 82.289 159.366 82.3809Z" fill="#AA6150"/>
<path d="M158.214 56.4868C159.198 57.424 160.312 58.2327 161.519 58.8575C165.103 60.6953 169.448 60.9526 172.698 63.3233C175.168 65.106 176.709 67.9361 177.359 70.895C178.009 73.8538 177.805 76.9229 177.285 79.9001C180.238 78.632 182.93 76.8126 185.196 74.5522C186.106 73.6516 186.941 72.6776 187.48 71.5382C187.963 70.509 188.167 69.388 188.353 68.2853C188.928 64.9038 189.337 61.4672 189.058 58.0489C188.594 52.3701 186.254 46.9487 182.949 42.2991C178.028 35.2972 171.398 32.8345 162.986 32.9999C160.832 33.0367 158.511 33.147 156.821 34.4702C152.661 37.6863 152.68 45.2396 154.11 49.7973C154.89 52.315 156.319 54.6674 158.214 56.4868Z" fill="#292929"/>
<path d="M110.321 138.36C113.163 134.666 118.492 133.968 122.225 136.798L163.413 172.433L158.548 178.718L111.9 150.14C108.186 147.329 107.462 142.054 110.321 138.36Z" fill="#BC7763"/>
<path d="M161.668 172.413C161.668 172.413 169.709 169.161 172.346 170.373C174.964 171.568 169.895 174.803 169.895 174.803C169.895 174.803 183.005 180.04 181.315 184.175C179.625 188.31 174.129 194.485 157.861 178.68L161.668 172.413Z" fill="#DAD180"/>
<path d="M222.224 138.36C219.383 134.666 214.054 133.968 210.321 136.798L169.133 172.433L173.998 178.718L220.646 150.14C224.379 147.329 225.084 142.054 222.224 138.36Z" fill="#BC7763"/>
<path d="M170.879 172.413C170.879 172.413 162.839 169.161 160.202 170.373C157.583 171.568 162.653 174.803 162.653 174.803C162.653 174.803 149.543 180.04 151.232 184.175C152.904 188.329 158.419 194.485 174.686 178.68L170.879 172.413Z" fill="#DAD180"/>
<path d="M164.918 65.8595C167.235 65.8595 169.114 64 169.114 61.7061C169.114 59.4123 167.235 57.5527 164.918 57.5527C162.6 57.5527 160.721 59.4123 160.721 61.7061C160.721 64 162.6 65.8595 164.918 65.8595Z" stroke="white" stroke-miterlimit="10"/>
<path d="M157.249 61.7061C157.249 64.0033 155.374 65.8595 153.052 65.8595C150.731 65.8595 148.855 64.0033 148.855 61.7061C148.855 59.4089 150.731 57.5527 153.052 57.5527C155.374 57.5711 157.249 59.4273 157.249 61.7061Z" stroke="white" stroke-miterlimit="10"/>
<path d="M156.896 62.0548C156.896 62.0548 158.995 59.9781 161.093 62.0548" stroke="white" stroke-miterlimit="10"/>
<path d="M75.7269 177.927C76.0798 172.212 81.0565 167.875 86.8318 168.224L160.388 172.708L158.326 205.659L85.5319 188.899C79.7566 188.55 75.3741 183.643 75.7269 177.927Z" fill="#52A0E0"/>
<path d="M242.43 194.228C242.56 188.512 237.992 183.753 232.216 183.624L158.754 172.652L158.029 202.59L231.715 204.336C237.49 204.483 242.3 199.962 242.43 194.228Z" fill="#52A0E0"/>
<path d="M137.858 197.213L138.641 206.774L155.539 205.42L154.757 195.859L137.858 197.213Z" fill="#BC7763"/>
<path d="M242.169 193.787C242.503 199.503 238.083 204.409 232.308 204.722L152.271 207.387L151.51 194.357L231.101 184.01C236.895 183.716 241.834 188.09 242.169 193.787Z" fill="#70BEFE"/>
<path d="M130.88 201.763C130.88 201.763 117.713 210.364 113.424 206.431L138.4 189.542L143.006 197.408L130.88 201.763Z" fill="black"/>
<path d="M148.783 192.629L149.174 208.925L155.207 208.783L154.817 192.487L148.783 192.629Z" fill="#70BEFE"/>
<path d="M169.015 222.237L172.908 213.451L157.381 206.713L153.488 215.498L169.015 222.237Z" fill="#BC7763"/>
<path d="M76.4692 176.567C78.9761 171.403 85.2342 169.234 90.4524 171.715L162.337 206.284L156.636 218.046L81.3716 190.405C76.1535 187.924 73.9622 181.731 76.4692 176.567Z" fill="#70BEFE"/>
<path d="M169.301 222.236C169.301 222.236 176.766 240.54 182.578 241L178.382 214.444L172.272 212.974L169.301 222.236Z" fill="black"/>
<path d="M158.887 221.035L165.502 206.106L159.975 203.708L153.36 218.636L158.887 221.035Z" fill="#70BEFE"/>
<path d="M182.726 178.883L120.851 173.939C118.92 173.792 117.471 172.102 117.62 170.19L117.787 168.15L186.682 173.664L186.515 175.704C186.366 177.597 184.658 179.03 182.726 178.883Z" fill="#292929"/>
<path d="M177.508 121.563L135.299 118.181C127.926 117.593 121.464 123.033 120.87 130.311L117.787 168.132L186.682 173.645L189.764 135.824C190.359 128.546 184.881 122.151 177.508 121.563Z" fill="#383838"/>
<path d="M156.542 144.627C156.542 143.396 157.081 142.293 157.953 141.54C156.951 140.878 155.744 140.492 154.462 140.492C150.99 140.492 148.186 143.267 148.186 146.704C148.186 150.141 150.99 152.916 154.462 152.916C157.211 152.916 159.532 151.17 160.386 148.744C158.232 148.578 156.542 146.796 156.542 144.627Z" fill="white"/>
</g>
<path d="M145.102 28.157H8.7354C4.41171 28.157 0.908203 24.6518 0.908203 20.3298V8.38189C0.908203 4.0582 4.41336 0.554688 8.7354 0.554688H145.102C149.425 0.554688 152.929 4.05985 152.929 8.38189V20.3298C152.929 24.6518 149.424 28.157 145.102 28.157Z" fill="#585858"/>
<path d="M145.101 28.7113H8.7352C4.11281 28.7113 0.353516 24.9503 0.353516 20.3296V8.38169C0.353516 3.7593 4.11281 0 8.7352 0H145.101C149.724 0 153.483 3.7593 153.483 8.38169V20.3296C153.483 24.9503 149.722 28.7113 145.101 28.7113ZM8.7352 1.10733C4.72506 1.10733 1.46084 4.3699 1.46084 8.38169V20.3296C1.46084 24.3397 4.72341 27.604 8.7352 27.604H145.101C149.112 27.604 152.376 24.3414 152.376 20.3296V8.38169C152.376 4.37155 149.113 1.10733 145.101 1.10733H8.7352Z" fill="#585858"/>
<path d="M137.008 16.3239C138.619 15.0169 139.06 12.6818 137.952 10.8599C136.65 8.71951 133.733 8.15017 131.708 9.76082C131.109 10.2377 130.65 10.8747 130.389 11.5943C129.95 12.8056 130.072 14.1043 130.713 15.1902C131.269 16.1358 132.183 16.8338 133.242 17.121C133.61 17.22 133.985 17.2695 134.355 17.2695C134.942 17.2695 135.521 17.1441 136.063 16.9032L138.162 20.1872C138.327 20.4446 138.668 20.5205 138.928 20.3555C139.185 20.1905 139.261 19.8489 139.096 19.5898L137.008 16.3239ZM135.964 15.7084C135.254 16.1407 134.419 16.2695 133.612 16.0731C132.805 15.8767 132.122 15.3767 131.691 14.6671C131.259 13.9574 131.13 13.1224 131.326 12.3154C131.523 11.5085 132.023 10.8252 132.732 10.3945C133.236 10.0876 133.794 9.94235 134.343 9.94235C135.394 9.94235 136.421 10.4737 137.005 11.4358C137.896 12.9013 137.429 14.8172 135.964 15.7084Z" fill="#F3F3F3"/>
<path d="M14.21 66.5811H136.647C137.807 66.5811 138.748 67.6909 138.748 69.06C138.748 70.4291 137.807 71.539 136.647 71.539H14.21C13.0499 71.539 12.1094 70.4291 12.1094 69.06C12.1094 67.6909 13.0499 66.5811 14.21 66.5811Z" fill="#F3F3F3"/>
<path d="M14.21 82.8711H58.6236C59.7837 82.8711 60.7242 83.981 60.7242 85.35C60.7242 86.7191 59.7837 87.829 58.6236 87.829H14.21C13.0499 87.829 12.1094 86.7191 12.1094 85.35C12.1094 83.981 13.0499 82.8711 14.21 82.8711Z" fill="#F3F3F3"/>
<defs>
<clipPath id="clip0_1621_341">
<rect width="167" height="208" fill="white" transform="translate(75.4297 33)"/>
</clipPath>
</defs>
</svg>
