<svg width="207" height="215" viewBox="0 0 207 215" fill="none" xmlns="http://www.w3.org/2000/svg">
<g clip-path="url(#clip0_1502_2101)">
<path d="M183.522 163.621L183.518 163.718L188.367 215H152.979L148.392 183.504L146.373 214.192L110.031 213.788L113.892 173.498L117.174 154.822V154.818L117.667 152.008H182.557L182.642 153.025L183.522 163.621Z" fill="#3FA853"/>
<path d="M89.9987 193.35C93.7466 194.032 97.6547 189.812 98.7278 183.922C99.1975 181.344 99.0459 178.873 98.4127 176.853L98.9874 173.458L108.631 127.785C108.631 127.785 126.39 92.261 126.39 86.0939C126.389 79.9267 121.253 76.9023 121.253 76.9023L114.302 76.9673L92.5038 130.206L88.578 169.548L87.9429 174.946C86.638 176.613 85.6249 178.871 85.1553 181.449C84.0823 187.339 86.2507 192.667 89.9987 193.35Z" fill="#FF9C82"/>
<path d="M160.707 54.8955L154.247 39.9551L133.249 43.5892L131.836 61.167L160.707 54.8955Z" fill="#CF7A64"/>
<path d="M206.335 85.9879C206.335 85.9879 191.395 58.1261 188.568 55.2995C187.31 54.0412 185.332 54.0237 183.523 54.3904L162.725 47.2236L155.676 43.2627L155.211 50.7983L132.068 54.9523C132.196 50.3568 132.844 48.6088 132.844 48.6088L124.365 58.5299L107.809 66.6058L107.818 66.6785C106.603 67.1026 105.451 67.8282 104.579 69.0285C101.348 73.4703 92.4648 127.579 92.4648 127.579L111.443 131.617L114.026 115.409L115.885 130.002L117.298 157.258C117.298 157.258 143.141 179.466 155.659 171.391C168.176 163.315 183.521 163.718 183.521 163.718L183.904 151.085C184.176 150.649 184.328 150.393 184.328 150.393L183.924 105.578V93.6534C187.001 97.9391 190.713 101.625 195.029 103.351C209.162 109.004 206.335 85.9879 206.335 85.9879Z" fill="#8CD3F6"/>
<path d="M141.553 46.2179C152.222 46.2179 160.87 37.5694 160.87 26.9009C160.87 16.2325 152.222 7.58398 141.553 7.58398C130.885 7.58398 122.236 16.2325 122.236 26.9009C122.236 37.5694 130.885 46.2179 141.553 46.2179Z" fill="#FF9C82"/>
<path d="M155.411 32.3599C155.411 32.3599 157.091 26.4809 160.87 26.9008C164.65 27.3207 165.49 23.9613 164.65 22.2815C163.81 20.6018 162.13 12.2031 162.13 12.2031C162.13 12.2031 162.97 6.32405 157.931 5.48418C152.892 4.64432 151.212 3.80445 150.372 2.12471C149.532 0.44498 136.934 -1.23475 132.735 1.28485C128.536 3.80445 125.176 8.63864 122.237 10.001C119.297 11.3633 116.777 13.8829 118.457 18.0822C120.137 22.2815 122.573 30.4945 122.573 30.4945C122.573 30.4945 126.856 29.0005 127.696 31.5201C128.536 34.0397 125.176 30.6802 129.375 23.9613C133.575 17.2423 133.575 10.5234 140.294 13.043C147.013 15.5626 154.571 14.7227 153.732 19.7619C152.892 24.8011 155.411 32.3599 155.411 32.3599Z" fill="#313131"/>
<path d="M154.229 185.497H7.524C3.37519 185.497 0 182.122 0 177.973V100.044C0 95.895 3.37519 92.5195 7.524 92.5195H154.229C158.378 92.5195 161.753 95.895 161.753 100.044V177.973C161.753 182.122 158.378 185.497 154.229 185.497Z" fill="#636566"/>
<path d="M154.229 185.497H7.524C3.37519 185.497 0 182.122 0 177.973V100.044C0 95.895 3.37519 92.5195 7.524 92.5195H154.229C158.378 92.5195 161.753 95.895 161.753 100.044V177.973C161.753 182.122 158.378 185.497 154.229 185.497ZM7.524 93.776C4.06814 93.776 1.25645 96.5877 1.25645 100.044V177.973C1.25645 181.429 4.06814 184.241 7.524 184.241H154.229C157.685 184.241 160.497 181.429 160.497 177.973V100.044C160.497 96.5877 157.685 93.776 154.229 93.776H7.524Z" fill="#636566"/>
<path d="M142.906 101.943C143.947 101.943 144.791 101.099 144.791 100.059C144.791 99.0176 143.947 98.1738 142.906 98.1738C141.865 98.1738 141.021 99.0176 141.021 100.059C141.021 101.099 141.865 101.943 142.906 101.943Z" fill="#F3F3F3"/>
<path d="M147.932 101.943C148.972 101.943 149.816 101.099 149.816 100.059C149.816 99.0176 148.972 98.1738 147.932 98.1738C146.891 98.1738 146.047 99.0176 146.047 100.059C146.047 101.099 146.891 101.943 147.932 101.943Z" fill="#F3F3F3"/>
<path d="M152.959 101.943C154 101.943 154.844 101.099 154.844 100.059C154.844 99.0176 154 98.1738 152.959 98.1738C151.918 98.1738 151.074 99.0176 151.074 100.059C151.074 101.099 151.918 101.943 152.959 101.943Z" fill="#F3F3F3"/>
<path d="M10.6806 130.527C10.161 130.527 9.73828 130.95 9.73828 131.47C9.73828 131.723 9.83614 131.957 10.0137 132.13C10.1929 132.314 10.4276 132.412 10.6806 132.412H151.702C152.222 132.412 152.645 131.989 152.645 131.47C152.645 131.216 152.547 130.982 152.369 130.809C152.19 130.626 151.955 130.527 151.702 130.527H10.6806Z" fill="#636566"/>
<path d="M134.112 130.213V132.726H10.6803C10.3348 132.726 10.0207 132.588 9.7945 132.355C9.56202 132.129 9.42383 131.815 9.42383 131.469C9.42383 130.778 9.98925 130.213 10.6803 130.213H134.112Z" fill="#F3F3F3"/>
<path d="M150.13 125.501H137.566C136.18 125.501 135.053 124.374 135.053 122.988C135.053 121.603 136.18 120.476 137.566 120.476H150.13C151.516 120.476 152.643 121.603 152.643 122.988C152.643 124.374 151.516 125.501 150.13 125.501Z" fill="#636566"/>
<path d="M67.8334 112.309H11.6223C10.2367 112.309 9.10938 111.182 9.10938 109.796C9.10938 108.41 10.2367 107.283 11.6223 107.283H67.8334C69.219 107.283 70.3463 108.41 70.3463 109.796C70.3463 111.182 69.219 112.309 67.8334 112.309Z" fill="#B8B8B8"/>
<path d="M10.6806 158.798C10.161 158.798 9.73828 159.221 9.73828 159.74C9.73828 159.994 9.83614 160.228 10.0137 160.401C10.1929 160.584 10.4276 160.683 10.6806 160.683H151.702C152.222 160.683 152.645 160.26 152.645 159.74C152.645 159.487 152.547 159.252 152.369 159.079C152.19 158.896 151.955 158.798 151.702 158.798H10.6806Z" fill="#636566"/>
<path d="M85.7382 158.483V160.996H10.6803C10.3348 160.996 10.0207 160.858 9.7945 160.626C9.56202 160.399 9.42383 160.085 9.42383 159.74C9.42383 159.049 9.98925 158.483 10.6803 158.483H85.7382Z" fill="#F3F3F3"/>
<path d="M150.13 153.772H137.566C136.18 153.772 135.053 152.645 135.053 151.259C135.053 149.873 136.18 148.746 137.566 148.746H150.13C151.516 148.746 152.643 149.873 152.643 151.259C152.643 152.645 151.516 153.772 150.13 153.772Z" fill="#636566"/>
<path d="M199.289 79.2132L179.686 69.8357C179.686 69.8357 178.898 63.5592 175.222 61.3205C174.597 59.8295 173.878 58.1915 173.225 56.8936C171.61 53.6839 174.033 47.627 172.014 47.627C169.995 47.627 167.01 53.997 167.168 55.7029C167.289 57.0123 168.372 59.2985 168.595 61.2998C166.133 62.2283 164.147 63.8198 162.841 65.087C161.711 66.1836 161.291 67.8197 161.733 69.3312C163.013 73.7112 166.212 82.7571 170.802 82.7571C176.859 82.7571 178.474 81.5457 178.474 81.5457C178.474 81.5457 190.992 97.2937 200.279 98.5051C209.567 99.7165 199.289 79.2132 199.289 79.2132Z" fill="#FF9C82"/>
</g>
<defs>
<clipPath id="clip0_1502_2101">
<rect width="206.566" height="215" fill="white"/>
</clipPath>
</defs>
</svg>
