<svg width="16" height="16" viewBox="0 0 16 16" fill="none" xmlns="http://www.w3.org/2000/svg">
<path d="M11.4025 1V8.7M15 6.46V3.24C15 2.45592 15 2.06389 14.8432 1.76441C14.7052 1.50098 14.4851 1.28681 14.2142 1.15259C13.9064 1 13.5035 1 12.6976 1H5.01195C3.96042 1 3.43466 1 3.01001 1.1872C2.63574 1.3522 2.31765 1.61769 2.09313 1.9525C1.83838 2.33237 1.75843 2.83795 1.59854 3.84908L1.22219 6.22908C1.0113 7.56271 0.905853 8.22953 1.10927 8.74837C1.2878 9.20379 1.62359 9.58459 2.05909 9.82553C2.55525 10.1 3.24871 10.1 4.6356 10.1H5.21484C5.6178 10.1 5.81927 10.1 5.97318 10.1763C6.10857 10.2434 6.21864 10.3505 6.28761 10.4822C6.36603 10.6319 6.36603 10.8279 6.36603 11.22V13.2739C6.36603 14.2272 7.16032 15 8.1402 15C8.37389 15 8.58571 14.8661 8.68061 14.6583L11.0987 9.36514C11.2086 9.12434 11.2636 9.00401 11.3505 8.91574C11.4274 8.83769 11.5217 8.77805 11.6262 8.74144C11.7444 8.7 11.8798 8.7 12.1506 8.7H12.6976C13.5035 8.7 13.9064 8.7 14.2142 8.5474C14.4851 8.41321 14.7052 8.19901 14.8432 7.9356C15 7.63614 15 7.24407 15 6.46Z" stroke="#6690FF" stroke-width="2" stroke-linecap="round" stroke-linejoin="round"/>
</svg>
