<svg width="16" height="16" viewBox="0 0 16 16" fill="none" xmlns="http://www.w3.org/2000/svg">
<path d="M4.58904 15V7.3M1 8.7V13.6C1 14.3732 1.64275 15 2.43562 15H12.073C13.136 15 14.0398 14.2438 14.2015 13.2193L14.9745 8.31934C15.1752 7.04723 14.1659 5.9 12.8461 5.9H10.3315C9.93505 5.9 9.61369 5.5866 9.61369 5.2V2.72609C9.61369 1.77279 8.82123 1 7.84372 1C7.61051 1 7.39924 1.13391 7.30455 1.34168L4.7785 6.8843C4.66329 7.13709 4.40623 7.3 4.12256 7.3H2.43562C1.64275 7.3 1 7.92678 1 8.7Z" stroke="#555770" stroke-width="2" stroke-linecap="round" stroke-linejoin="round"/>
</svg>
