<svg width="12" height="12" viewBox="0 0 12 12" fill="none" version="1.1" id="svg6" xmlns="http://www.w3.org/2000/svg">
    <circle cx="6" cy="6" r="6" fill="#000000" fill-opacity="0.25" id="circle2"/>
    <path d="m 5.79935,6.68 -0.006,-1.14 0.162,-0.006 c 0.14,0 0.262,-0.03 0.366,-0.09 0.108,-0.06 0.192,-0.142 0.252,-0.246 0.06,-0.104 0.09,-0.22 0.09,-0.348 0,-0.132 -0.03,-0.248 -0.09,-0.348 -0.056,-0.1 -0.138,-0.178 -0.246,-0.234 -0.104,-0.056 -0.228,-0.084 -0.372,-0.084 -0.192,0 -0.358,0.048 -0.498,0.144 -0.14,0.096 -0.252,0.232 -0.336,0.408 l -0.396,-0.33 c 0.116,-0.236 0.282,-0.42 0.498,-0.552 0.22,-0.132 0.472,-0.198 0.756,-0.198 0.244,0 0.46,0.05 0.648,0.15 0.188,0.096 0.334,0.232 0.438,0.408 0.104,0.172 0.156,0.372 0.156,0.6 0,0.208 -0.048,0.398 -0.144,0.57 -0.092,0.168 -0.224,0.308 -0.396,0.42 -0.168,0.108 -0.368,0.178 -0.6,0.21 l 0.234,-0.24 -0.048,0.906 z m 0.228,1.38 c -0.112,0 -0.206,-0.038 -0.282,-0.114 -0.072,-0.076 -0.108,-0.17 -0.108,-0.282 0,-0.112 0.036,-0.204 0.108,-0.276 0.076,-0.076 0.17,-0.114 0.282,-0.114 0.112,0 0.204,0.038 0.276,0.114 0.076,0.072 0.114,0.164 0.114,0.276 0,0.112 -0.038,0.206 -0.114,0.282 -0.072,0.076 -0.164,0.114 -0.276,0.114 z" fill="#ffffff" id="path4"/>
</svg>
