<svg
    width="13.83332"
    height="11.497265"
    viewBox="0 0 13.83332 11.497265"
    fill="none"
    version="1.1"
    id="svg15"
    xmlns="http://www.w3.org/2000/svg">
  <path d="m 0.5,1.0820229 v 3.5 H 4" stroke="#000000" stroke-opacity="0.6" stroke-linecap="round" stroke-linejoin="round" id="path2" />
  <path d="M 13.332019,10.414043 V 6.9140626 H 9.8320197" stroke="#000000" stroke-opacity="0.6" stroke-linecap="round" stroke-linejoin="round" id="path4" />
  <path d="m 11.869219,3.9986129 c -0.2959,-0.83604 -0.7987,-1.58351 -1.4616,-2.17267 -0.6627993,-0.58916 -1.4641393,-1.00080007 -2.3291193,-1.19651007 -0.86498,-0.19571 -1.76544,-0.16912 -2.61736,0.0773 C 4.6092197,0.95315285 3.83361,1.4113629 3.20667,2.0386129 L 0.5,4.5819529 m 12.833319,2.3333297 -2.7066,2.54336 C 9.9997197,10.085843 9.2241197,10.544043 8.3721997,10.790543 c -0.85192,0.2464 -1.75238,0.273 -2.61736,0.0773 -0.86498,-0.1958 -1.6662897,-0.6074 -2.3291497,-1.1966004 -0.66286,-0.5891 -1.16567,-1.33658 -1.46152,-2.17263" stroke="#000000" stroke-opacity="0.6" stroke-linecap="round" stroke-linejoin="round" id="path6" />
</svg>
