<svg width="9.8863316" height="9.8846807" viewBox="0 0 9.8863316 9.8846807" fill="none" version="1.1" id="svg4" xmlns="http://www.w3.org/2000/svg">
  <path fill-rule="evenodd" clip-rule="evenodd" d="m 0.9999994,4.448906 c 0,-1.90478 1.54413,-3.44891 3.44891,-3.44891 1.90477,0 3.4489,1.54413 3.4489,3.44891 0,0.93036 -0.36838,1.77468 -0.96724,2.39506 -0.0156,0.01226 -0.03063,0.02558 -0.04501,0.03996 -0.01445,0.01445 -0.02783,0.02956 -0.04014,0.04524 -0.62051,0.59969 -1.46543,0.96864 -2.39651,0.96864 -1.90478,0 -3.44891,-1.54412 -3.44891,-3.4489 z m 6.2223,3.47887 c -0.76054,0.60711 -1.72459,0.97003 -2.77339,0.97003 C 1.9918394,8.897806 0,6.905966 0,4.448906 0,1.991846 1.9918394,0 4.4489094,0 c 2.45706,0 4.4489,1.991846 4.4489,4.448906 0,1.04797 -0.36234,2.01131 -0.96859,2.77158 l 1.81066,1.81066 c 0.19527,0.19526 0.19527,0.51186 0,0.70706 -0.19526,0.1953 -0.51184,0.1953 -0.7071,0 z" fill="#000000" fill-opacity="0.6" id="path2" />
</svg>
