<?xml version="1.0" encoding="UTF-8" standalone="no"?>
<svg
   viewBox="0 0 41.542831 35.351543"
   width="41.542831"
   height="35.351543"
   version="1.1"
   id="svg563"
   xmlns="http://www.w3.org/2000/svg"
   xmlns:svg="http://www.w3.org/2000/svg">
  <defs
     id="defs567" />
  <path
     d="m 38.41574,0.00304585 c -0.6901,-0.0281 -1.37668,0.14048 -1.96142,0.41265 -0.84989,0.32661 -8.63939,3.33985995 -16.5237,6.39173995 -3.9685,1.53296 -7.93349,3.06593 -10.9853696,4.2406702 -3.05012,1.1765 -5.34694,2.05098 -5.4681,2.09312 -0.80775,0.28096 -1.89996,0.63566 -2.82712002,1.72788 -0.23354,0.27218 -0.46884,0.62161 -0.58825,1.10275 -0.11941,0.48114 -0.06673,1.09222 0.16682,1.5716 0.46533,0.96052 1.25376002,1.35737 2.18443002,1.71383 3.09051,0.99037 6.28638,1.93508 8.9326296,2.8236 0.97632,3.44171 1.91401,6.89571 2.84116,10.34268 0.30554,0.69185 0.97105,0.94823 1.65764,0.95525 l -0.0035,0.03512 c 0,0 0.53908,0.05268 1.06412,-0.07375 0.52679,-0.12292 1.18879,-0.42846 1.79109,-0.99212 0.662,-0.62161 2.45836,-2.38812 3.47683,-3.38552 l 7.6736,5.66477 0.06146,0.03512 c 0,0 0.84989,0.59703 2.09312,0.68132 0.62161,0.04214 1.4399,-0.07726 2.14229,-0.59176 0.70766,-0.51626 1.1765,-1.34683 1.396,-2.29506 0.65673,-2.86224 5.00979,-23.5774502 5.75257,-27.0068602 l -0.02107,0.08077 c 0.51977,-1.93157 0.32837,-3.70159 -0.87096,-4.74990995 -0.60054,-0.52152 -1.2924,-0.7498 -1.98425,-0.77965 v 0.0018 z m -0.2072,3.29068995 c 0.04741,0.0439 0.0439,0.0439 0.0035,0.04741 -0.01229,-0.0035 0.14048,0.2072 -0.15804,1.32576 l -0.01229,0.04214 -0.0088,0.03863 c -0.75855,3.50668 -5.15551,24.4080202 -5.742,26.9647202 -0.08077,0.34417 -0.11414,0.31959 -0.09482,0.29852 -0.1756,-0.02634 -0.50045,-0.16506 -0.52679,-0.1756 l -13.13468,-9.70175 c 4.4988,-4.33199 9.09945,-8.25307 13.744,-12.4322902 0.8218,-0.41265 0.68483,-1.68573 -0.29852,-1.70681 -1.04305,0.24584 -1.92279,0.99564 -2.8798,1.47502 -5.49971,3.2626002 -11.11882,6.1318602 -16.55882,9.4927902 -2.7919996,-0.97105 -5.5787296,-1.77704 -8.1529796,-2.57601 2.2336,-0.89555 4.00889,-1.55579 5.7560796,-2.23009 3.05188,-1.1765 7.01687,-2.7042 10.98537,-4.2406702 7.94051,-3.06944 15.92667,-6.16346 16.62028,-6.43037 l 0.05619,-0.02283 0.05268,-0.02283 c 0.19316,-0.0878 0.30378,-0.09658 0.35471,-0.10009 0,0 -0.01756,-0.05795 -0.0035,-0.04566 h -0.0018 z m -20.91715,22.0638002 2.16687,1.60145 c -0.93418,0.91311 -1.81743,1.77353 -2.45485,2.38812 l 0.28798,-3.98957"
     fill="#ffffff"
     id="path561" />
</svg>
