<svg width="16" height="16" viewBox="0 0 16 16" fill="none" xmlns="http://www.w3.org/2000/svg">
<path d="M7.69821 1.623C7.8755 1.26982 7.96411 1.09324 8.08448 1.03682C8.18917 0.987728 8.31085 0.987728 8.41553 1.03682C8.53583 1.09324 8.62451 1.26982 8.80181 1.623L10.4837 4.9736C10.536 5.07786 10.5622 5.13 10.6004 5.17048C10.6343 5.20632 10.6749 5.23535 10.72 5.25598C10.7709 5.27927 10.8295 5.28768 10.9465 5.3045L14.7087 5.84524C15.1048 5.90218 15.3029 5.93065 15.3946 6.02581C15.4743 6.10859 15.5119 6.22235 15.4967 6.3354C15.4792 6.46535 15.3358 6.60271 15.049 6.87741L12.3277 9.48382C12.2428 9.56505 12.2004 9.60574 12.1731 9.65407C12.1488 9.6968 12.1333 9.74385 12.1273 9.79248C12.1205 9.84739 12.1305 9.9048 12.1505 10.0195L12.7926 13.701C12.8604 14.0893 12.8942 14.2835 12.8306 14.3987C12.7752 14.4989 12.6768 14.5692 12.5627 14.59C12.4317 14.6139 12.2544 14.5222 11.8998 14.3388L8.53637 12.5995C8.43161 12.5454 8.37923 12.5183 8.324 12.5076C8.27516 12.4982 8.22485 12.4982 8.17601 12.5076C8.12079 12.5183 8.06841 12.5454 7.96357 12.5995L4.60023 14.3388C4.24564 14.5222 4.06835 14.6139 3.93725 14.59C3.82319 14.5692 3.72477 14.4989 3.6694 14.3987C3.60576 14.2835 3.63962 14.0893 3.70735 13.701L4.34946 10.0195C4.36947 9.9048 4.37948 9.84739 4.37271 9.79248C4.36671 9.74385 4.35117 9.6968 4.32694 9.65407C4.29956 9.60574 4.25715 9.56505 4.17231 9.48382L1.45099 6.87741C1.16417 6.60271 1.02076 6.46535 1.00331 6.3354C0.98813 6.22235 1.02563 6.10859 1.1054 6.02581C1.19707 5.93065 1.39516 5.90218 1.79133 5.84524L5.55353 5.3045C5.67053 5.28768 5.72903 5.27927 5.77998 5.25598C5.82508 5.23535 5.86569 5.20632 5.89955 5.17048C5.9378 5.13 5.96397 5.07786 6.0163 4.9736L7.69821 1.623Z" fill="#6690FF" stroke="#6690FF" stroke-linecap="round" stroke-linejoin="round"/>
</svg>
